<?xml version="1.0" encoding="utf-8"?>
<!-- Generator: Adobe Illustrator 18.1.0, SVG Export Plug-In . SVG Version: 6.00 Build 0)  -->
<svg version="1.1" id="Layer_1" xmlns="http://www.w3.org/2000/svg" xmlns:xlink="http://www.w3.org/1999/xlink" x="0px" y="0px"
	 width="26px" height="26px" viewBox="0 0 26 26" enable-background="new 0 0 26 26" xml:space="preserve">
<g>
	<g>
		<path fill="#FFFFFF" d="M15.3,17c-0.1,0.1-1,0.7-2.2,0.7c-1.1,0-2-0.6-2.2-0.7l-9.8-6.2v11c0,1.6,1.3,3,3,3h17.9c1.6,0,3-1.3,3-3
			v-11L15.3,17z"/>
	</g>
	<path fill="#FFFFFF" d="M23.6,7.6l-9.4-6.1c-0.7-0.4-1.8-0.4-2.5,0L2.3,7.6c-0.7,0.4-0.7,1.1,0,1.6l3.2,2V8.4h14.9v2.8l3.2-2
		C24.3,8.8,24.3,8.1,23.6,7.6z"/>
	<path fill="#FFFFFF" d="M17.5,12.1c0,0.4-0.3,0.7-0.7,0.7H9.3c-0.4,0-0.7-0.3-0.7-0.7l0,0c0-0.4,0.3-0.7,0.7-0.7h7.4
		C17.1,11.4,17.5,11.7,17.5,12.1L17.5,12.1z"/>
	<path fill="#FFFFFF" d="M16,15.1c0,0.4-0.3,0.7-0.7,0.7h-4.5c-0.4,0-0.7-0.3-0.7-0.7l0,0c0-0.4,0.3-0.7,0.7-0.7h4.5
		C15.6,14.4,16,14.7,16,15.1L16,15.1z"/>
</g>
</svg>
