<?xml version="1.0" encoding="utf-8"?>
<!-- Generator: Adobe Illustrator 18.1.0, SVG Export Plug-In . SVG Version: 6.00 Build 0)  -->
<svg version="1.1" id="Layer_1" xmlns="http://www.w3.org/2000/svg" xmlns:xlink="http://www.w3.org/1999/xlink" x="0px" y="0px"
	 width="24px" height="24px" viewBox="0 0 24 24" enable-background="new 0 0 24 24" xml:space="preserve">
<path fill="#216396" d="M18.7,16.3c-0.9,0-1.7,0.3-2.3,0.9l-7.8-4.5c0-0.2,0.1-0.5,0.1-0.7c0-0.2,0-0.5-0.1-0.7l7.8-4.5
	c0.6,0.5,1.4,0.9,2.3,0.9c1.9,0,3.5-1.5,3.5-3.5c0-1.9-1.5-3.5-3.5-3.5s-3.5,1.5-3.5,3.5c0,0.2,0,0.5,0.1,0.7L7.6,9.4
	C7,8.9,6.2,8.5,5.3,8.5c-1.9,0-3.5,1.5-3.5,3.5s1.5,3.5,3.5,3.5c0.9,0,1.7-0.3,2.3-0.9l7.8,4.5c0,0.2-0.1,0.5-0.1,0.7
	c0,1.9,1.5,3.5,3.5,3.5s3.5-1.5,3.5-3.5S20.6,16.3,18.7,16.3z"/>
</svg>
