<?xml version="1.0" encoding="utf-8"?>
<!-- Generator: Adobe Illustrator 18.1.0, SVG Export Plug-In . SVG Version: 6.00 Build 0)  -->
<svg version="1.1" id="Layer_1" xmlns="http://www.w3.org/2000/svg" xmlns:xlink="http://www.w3.org/1999/xlink" x="0px" y="0px"
	 width="26px" height="26px" viewBox="0 0 26 26" enable-background="new 0 0 26 26" xml:space="preserve">
<path fill="#FFFFFF" d="M13.2,0.1c-7,0-12.6,5.7-12.6,12.6c0,2.4,0.6,4.6,1.8,6.5l-2.2,6.6L7.3,24c1.8,0.9,3.8,1.5,5.9,1.5
	c7,0,12.6-5.7,12.6-12.6C25.9,5.8,20.2,0.1,13.2,0.1z M21.1,18.4l-0.8,0.8c-2.5,2.5-5.3,1.3-7.7-1.2l-2.3-2.3L8,13.4
	C5.6,11,4.3,8.2,6.8,5.7l0.8-0.8C8,4.5,8.5,4.5,9,4.7c1.1,0.6,2.4,2.7,2.4,2.7c0.3,0.5,0.3,1.1-0.2,1.4c0,0-0.8,0.7-1,0.9
	c-0.6,0.8-0.5,1.6,0.2,2.3l1.8,1.8l1.8,1.8c0.8,0.8,1.5,0.8,2.3,0.2c0.2-0.1,0.9-1,0.9-1c0.3-0.5,0.9-0.5,1.4-0.2
	c0,0,2.2,1.3,2.7,2.4C21.5,17.5,21.5,18,21.1,18.4z"/>
</svg>
