<?xml version="1.0" encoding="utf-8"?>
<!-- Generator: Adobe Illustrator 18.1.0, SVG Export Plug-In . SVG Version: 6.00 Build 0)  -->
<svg version="1.1" id="Layer_1" xmlns="http://www.w3.org/2000/svg" xmlns:xlink="http://www.w3.org/1999/xlink" x="0px" y="0px"
	 width="278px" height="69px" viewBox="0 0 278 69" enable-background="new 0 0 278 69" xml:space="preserve">
<g>
	<g>
		<g>
			<g>
				<path fill-rule="evenodd" clip-rule="evenodd" fill="#8DBB07" d="M157.1,44.9h-26.3V26.6l21.2-4.9c1.6,0.4,2.8,1,3.5,1.8
					c1.1,1.3,1.7,3.8,1.7,7.6V44.9z M148.1,39.3v-7.7c0-1.9-0.2-3.1-0.7-3.6c-0.6-0.7-1.8-1-3.9-1h-3.8v12.3H148.1z"/>
				<path fill-rule="evenodd" clip-rule="evenodd" fill="#8DBB07" d="M169.4,34.9h-9V27c0-1.7-0.2-3.2-0.5-4.4
					c-0.1-0.4-0.3-0.8-0.5-1.3h9c0.2,0.5,0.3,1,0.5,1.5c0.3,1.4,0.5,2.8,0.5,4.2V34.9z"/>
				<polygon fill-rule="evenodd" clip-rule="evenodd" fill="#8DBB07" points="195.3,27 191,27 191,44.9 182,44.9 182,27 171.3,27 
					171.3,21.3 195.3,21.3 				"/>
				<path fill-rule="evenodd" clip-rule="evenodd" fill="#8DBB07" d="M208.8,44.9h-9V26.6c0-1.8-0.2-3.3-0.6-4.6
					c-0.1-0.2-0.2-0.4-0.3-0.8h9c0.2,0.5,0.3,0.9,0.5,1.4c0.3,1.3,0.5,2.6,0.5,3.9V44.9z"/>
				<path fill-rule="evenodd" clip-rule="evenodd" fill="#8DBB07" d="M237.9,33.2c0,4.2-0.5,7.1-1.4,8.8c-1.3,2.4-3.8,3.6-7.7,3.6
					c-1.4,0-2.8-0.3-4.3-1v-6c0.5,0.5,1.2,0.7,2.1,0.7c1.4,0,2.1-2.1,2.1-6.3c0-1.9-0.2-3.3-0.6-4.3c-0.6-1.4-1.7-2.1-3.3-2.1
					c-2.7,0-4.1,2-4.1,5.9v12.4h-9V29.5c0-3.8-0.3-6.5-0.9-8.2h8.5c0.3,0,0.5,0.6,0.7,1.7l0.2,1.7c0.1,0.3,0.2,0.4,0.3,0.4
					c1.3-3,4.1-4.6,8.3-4.6c3.7,0,6.2,1.2,7.6,3.7C237.4,26.2,237.9,29.2,237.9,33.2z"/>
				<path fill-rule="evenodd" clip-rule="evenodd" fill="#8DBB07" d="M250,34.9h-9V27c0-1.7-0.2-3.2-0.5-4.4
					c-0.1-0.4-0.3-0.8-0.5-1.3h9c0.2,0.5,0.3,1,0.5,1.5c0.3,1.4,0.5,2.8,0.5,4.2V34.9z"/>
				<path fill-rule="evenodd" clip-rule="evenodd" fill="#8DBB07" d="M276.1,29.7l-4,15.2h-9.4l3.7-13.5c0.2-0.8,0.3-1.5,0.3-1.9
					c0-1.7-1-2.5-2.9-2.5h-6.7c-1.4,0-2.5-0.6-3.2-1.8c-0.6-1-0.9-2.3-0.9-3.8v-5.7c0-1.4-0.1-2.6-0.3-3.6c-0.1-0.3-0.2-0.7-0.3-1
					h9.1c0.3,1,0.5,2.6,0.5,4.6c0,2.5,0,3.8,0,4c0.3,1.2,1.3,1.7,2.9,1.7h6.6c3.4,0,5,1.8,5,5.5C276.5,27.8,276.4,28.8,276.1,29.7z"
					/>
			</g>
		</g>
		<g>
			<path fill-rule="evenodd" clip-rule="evenodd" fill="#FFFFFF" d="M19.4,25.9c0,0.1-0.4,1.9-1.2,5.4c-0.2,1-0.9,4-2.1,8.9
				l-1.1,4.7H12l4.3-18.5c0.2-0.8,0.3-1.4,0.3-1.8c0-0.5-0.5-0.8-1.5-0.8H7.2c-1.7,0-2.8-0.2-3.4-0.6c-0.8-0.5-1.2-1.5-1.2-3.1v-4.6
				c0-1.3-0.2-2.6-0.7-3.9c-0.1-0.3-0.2-0.5-0.3-0.8h3c0.2,0.5,0.4,0.9,0.5,1.3c0.3,1.1,0.5,2.2,0.5,3.3v2.5c0,1.5,0.1,2.5,0.4,2.8
				c0.3,0.3,1.1,0.5,2.5,0.5h8.6c1.8,0,2.7,0.9,2.7,2.8c0,0.2,0,0.5-0.1,1C19.4,25.5,19.4,25.8,19.4,25.9z"/>
			<polygon fill-rule="evenodd" clip-rule="evenodd" fill="#FFFFFF" points="42,44.9 38.9,44.9 28,29.9 24.1,44.9 21.5,44.9 
				26.2,27.3 21.8,21.3 24.7,21.3 35.1,35.4 39,21.3 41.9,21.3 37,37.8 			"/>
			<path fill-rule="evenodd" clip-rule="evenodd" fill="#FFFFFF" d="M61.5,44.9h-2.8V31.3c0-2.7-0.5-4.6-1.4-5.5
				c-1.1-1.2-3.4-1.8-6.9-1.8h-5.1v-2.6h5.4c3.8,0,6.5,0.6,8,1.8c1.9,1.4,2.8,4.1,2.8,8V44.9z"/>
			<path fill-rule="evenodd" clip-rule="evenodd" fill="#FFFFFF" d="M77.4,37.2h-2.8V21.3h2.8V37.2z M87.1,36.6
				c0,5.6-3.4,8.4-10.3,8.4h-9.8l-3.1-23.6h2.9l2.9,21H77c4.8,0,7.3-1.9,7.3-5.6V21.3h2.8V36.6z"/>
			<path fill-rule="evenodd" clip-rule="evenodd" fill="#FFFFFF" d="M94.6,33.6h-3v-7.7c0-1.9-0.3-3.5-0.8-4.6h3.1
				c0.5,1.6,0.8,3.2,0.8,4.7V33.6z"/>
			<path fill-rule="evenodd" clip-rule="evenodd" fill="#FFFFFF" d="M118.4,44.9H98.8v-2.6h6.2c3,0,5.3-0.8,7-2.4
				c1.7-1.6,2.6-3.9,2.6-6.8c0-2.7-0.7-4.8-2-6.5c-1.4-1.8-3.5-2.7-6.1-2.7h-7.7v-2.6h7.8c3.4,0,6.1,1.1,8.1,3.3c2,2.2,3,5,3,8.5
				c0,2.2-0.6,4.1-1.7,5.7c-1.3,1.2-2.6,2.4-3.8,3.6c0,0.2,0.2,0.3,0.6,0.3c0.3,0,0.8-0.1,1.4-0.2c0.6-0.1,1.1-0.2,1.4-0.2h3.1V44.9
				z"/>
		</g>
		<path fill="#ADD507" d="M143.8,11c-1.6,0.2-3.2,0.4-4.8,0.8c-4.8,1.1-9.1,3-12.8,5.5c0,0-0.1,0-0.1,0.1l0.8,3.5l1,4.2l26.8-6.2
			l-1.8-7.8c0,0-0.1,0-0.1,0C150,10.8,146.9,10.7,143.8,11z M136.4,0.4l-21.9,17.3l4.4,1.1l0.8,3.5l0.7,3.1c-0.5,0.4-0.8,1-0.6,1.6
			c0.1,0.5,0.5,0.9,0.9,1.1c-0.3,1.7-0.4,2.7-0.8,4.5c2.2,0.4,3.3,0.1,5.1-1.2c-1.1-1.5-1.7-2.3-2.7-3.7c0.3-0.4,0.5-0.9,0.4-1.4
			c-0.1-0.6-0.7-1.1-1.3-1.2l-0.7-3l-0.7-3.1l5,1.3l-0.8-3.7l0.6-0.4c0,0,0.1,0,0.1-0.1l0,0c4.1-2.8,8.4-5,13.8-6.3
			c3.2-0.7,6.1-1,9.1-0.9c2,0,4,0.2,6,0.5l0,0c0,0,0.1,0,0.1,0l0.7,0.1l0.8,3.5l7.9-6.7l0.1-0.1L136.4,0.4z"/>
	</g>
	<g>
		<g>
			<path fill="#FFFFFF" d="M15,54.7v9.9h-1.1l0-1.3c-0.7,1-1.7,1.4-3.1,1.4c-1,0-1.8-0.3-2.4-0.9c-0.6-0.6-0.9-1.6-0.9-2.8v-6.3h1.1
				v6.3c0,1,0.2,1.7,0.6,2.1c0.4,0.4,1,0.6,1.7,0.6c0.8,0,1.5-0.2,2-0.5c0.5-0.4,0.8-0.8,1-1.4v-7.2H15z"/>
			<path fill="#FFFFFF" d="M26.7,55.4c0.5,0.6,0.8,1.5,0.8,2.8v6.4h-1.1v-6.4c0-1-0.2-1.7-0.6-2.1c-0.4-0.4-1-0.6-1.7-0.6
				c-0.7,0-1.3,0.2-1.8,0.7c-0.5,0.4-0.9,1-1.1,1.7v6.8h-1.1v-9.9h1.1l0,1.7c0.4-0.6,0.8-1,1.4-1.4s1.2-0.5,1.9-0.5
				C25.4,54.5,26.2,54.8,26.7,55.4z"/>
			<path fill="#FFFFFF" d="M33.9,51.3c0.1,0.1,0.2,0.3,0.2,0.5c0,0.2-0.1,0.4-0.2,0.5c-0.1,0.1-0.3,0.2-0.6,0.2
				c-0.2,0-0.4-0.1-0.5-0.2c-0.1-0.1-0.2-0.3-0.2-0.5c0-0.2,0.1-0.4,0.2-0.5c0.1-0.1,0.3-0.2,0.5-0.2C33.5,51.1,33.7,51.2,33.9,51.3
				z M32.8,64.6v-9.9h1.1v9.9H32.8z"/>
			<path fill="#FFFFFF" d="M46.3,54.7l-3.7,9.9h-0.8h-0.1L38,54.7h1.1l3,8.4l3-8.4H46.3z"/>
			<path fill="#FFFFFF" d="M50.8,59.7v0.2c0,0.7,0.1,1.4,0.4,2c0.3,0.6,0.7,1.1,1.2,1.4s1.1,0.5,1.8,0.5c0.6,0,1.1-0.1,1.6-0.3
				c0.5-0.2,0.9-0.6,1.2-1l0.7,0.5c-0.4,0.5-0.8,1-1.4,1.3c-0.6,0.3-1.3,0.5-2.1,0.5c-0.8,0-1.6-0.2-2.3-0.6c-0.7-0.4-1.2-1-1.6-1.7
				c-0.4-0.7-0.6-1.6-0.6-2.5v-0.4c0-1,0.2-1.9,0.6-2.6c0.4-0.8,0.9-1.4,1.6-1.8c0.7-0.4,1.4-0.6,2.1-0.6c0.8,0,1.5,0.2,2.1,0.6
				c0.6,0.4,1,0.9,1.3,1.6c0.3,0.7,0.5,1.5,0.5,2.4v0.7H50.8z M52.5,55.9c-0.4,0.3-0.8,0.7-1.1,1.2c-0.3,0.5-0.5,1.1-0.5,1.8h5.9
				v-0.1c0-0.6-0.1-1.1-0.3-1.6c-0.2-0.5-0.5-0.9-1-1.2s-0.9-0.4-1.5-0.4C53.4,55.5,52.9,55.6,52.5,55.9z"/>
			<path fill="#FFFFFF" d="M66.8,55.6c-0.3,0-0.5-0.1-0.7-0.1c-0.7,0-1.3,0.2-1.8,0.6c-0.5,0.4-0.8,0.9-1,1.6v6.8h-1.1v-9.9h1.1
				l0,1.6c0.3-0.5,0.6-1,1.1-1.3c0.5-0.3,1-0.5,1.7-0.5c0.1,0,0.3,0,0.4,0c0.1,0,0.3,0,0.3,0.1L66.8,55.6z"/>
			<path fill="#FFFFFF" d="M72.2,59.4c-0.5-0.2-0.9-0.5-1.1-0.9c-0.3-0.4-0.4-0.8-0.4-1.3c0-0.5,0.1-0.9,0.4-1.4
				c0.3-0.4,0.7-0.7,1.2-1c0.5-0.2,1.1-0.4,1.8-0.4c0.8,0,1.4,0.1,2,0.4c0.6,0.3,1,0.6,1.3,1.1c0.3,0.4,0.4,1,0.4,1.5h-1.1
				c0-0.3-0.1-0.7-0.3-1c-0.2-0.3-0.5-0.6-0.9-0.8c-0.4-0.2-0.8-0.3-1.4-0.3c-0.5,0-1,0.1-1.4,0.2c-0.4,0.2-0.6,0.4-0.8,0.6
				c-0.2,0.3-0.3,0.5-0.3,0.8c0,0.3,0.1,0.6,0.2,0.8c0.1,0.2,0.4,0.4,0.8,0.6c0.4,0.2,0.9,0.4,1.7,0.5c0.8,0.2,1.5,0.4,2,0.7
				c0.5,0.3,0.9,0.6,1.1,0.9c0.2,0.4,0.4,0.8,0.4,1.3c0,0.5-0.2,1-0.5,1.4c-0.3,0.4-0.7,0.7-1.3,1c-0.6,0.2-1.2,0.3-1.9,0.3
				c-0.8,0-1.5-0.1-2.1-0.4c-0.6-0.3-1-0.6-1.3-1.1c-0.3-0.5-0.5-0.9-0.5-1.5h1.1c0,0.7,0.3,1.2,0.9,1.6c0.5,0.3,1.2,0.5,1.9,0.5
				c0.5,0,1-0.1,1.4-0.2c0.4-0.2,0.7-0.4,0.9-0.6c0.2-0.3,0.3-0.6,0.3-0.9c0-0.5-0.2-0.9-0.6-1.2c-0.4-0.4-1.1-0.6-2.1-0.9
				C73.3,59.8,72.7,59.6,72.2,59.4z"/>
			<path fill="#FFFFFF" d="M83.8,51.3c0.1,0.1,0.2,0.3,0.2,0.5c0,0.2-0.1,0.4-0.2,0.5c-0.1,0.1-0.3,0.2-0.6,0.2
				c-0.2,0-0.4-0.1-0.5-0.2c-0.1-0.1-0.2-0.3-0.2-0.5c0-0.2,0.1-0.4,0.2-0.5c0.1-0.1,0.3-0.2,0.5-0.2C83.5,51.1,83.7,51.2,83.8,51.3
				z M82.7,64.6v-9.9h1.1v9.9H82.7z"/>
			<path fill="#FFFFFF" d="M93,64.6c-0.1,0-0.3,0.1-0.5,0.1c-0.2,0-0.4,0-0.7,0c-0.7,0-1.2-0.2-1.6-0.6c-0.4-0.4-0.6-1.1-0.6-2v-6.6
				h-1.8v-0.9h1.8v-2.5h1.1v2.5h2v0.9h-2v6.6c0,0.6,0.1,1.1,0.3,1.3c0.2,0.2,0.5,0.3,0.9,0.3c0.2,0,0.5,0,0.9-0.1L93,64.6z"/>
			<path fill="#FFFFFF" d="M98.5,51.3c0.1,0.1,0.2,0.3,0.2,0.5c0,0.2-0.1,0.4-0.2,0.5c-0.1,0.1-0.3,0.2-0.6,0.2
				c-0.2,0-0.4-0.1-0.5-0.2c-0.1-0.1-0.2-0.3-0.2-0.5c0-0.2,0.1-0.4,0.2-0.5c0.1-0.1,0.3-0.2,0.5-0.2C98.2,51.1,98.4,51.2,98.5,51.3
				z M97.4,64.6v-9.9h1.1v9.9H97.4z"/>
			<path fill="#FFFFFF" d="M104.3,59.7v0.2c0,0.7,0.1,1.4,0.4,2c0.3,0.6,0.7,1.1,1.2,1.4s1.1,0.5,1.8,0.5c0.6,0,1.1-0.1,1.6-0.3
				c0.5-0.2,0.9-0.6,1.2-1l0.7,0.5c-0.4,0.5-0.8,1-1.4,1.3c-0.6,0.3-1.3,0.5-2.1,0.5c-0.8,0-1.6-0.2-2.3-0.6c-0.7-0.4-1.2-1-1.6-1.7
				c-0.4-0.7-0.6-1.6-0.6-2.5v-0.4c0-1,0.2-1.9,0.6-2.6c0.4-0.8,0.9-1.4,1.6-1.8c0.7-0.4,1.4-0.6,2.1-0.6c0.8,0,1.5,0.2,2.1,0.6
				c0.6,0.4,1,0.9,1.3,1.6c0.3,0.7,0.5,1.5,0.5,2.4v0.7H104.3z M105.9,55.9c-0.4,0.3-0.8,0.7-1.1,1.2c-0.3,0.5-0.5,1.1-0.5,1.8h5.9
				v-0.1c0-0.6-0.1-1.1-0.3-1.6c-0.2-0.5-0.5-0.9-1-1.2c-0.4-0.3-0.9-0.4-1.5-0.4C106.9,55.5,106.4,55.6,105.9,55.9z"/>
			<path fill="#FFFFFF" d="M117.1,59.4c-0.5-0.2-0.9-0.5-1.1-0.9c-0.3-0.4-0.4-0.8-0.4-1.3c0-0.5,0.1-0.9,0.4-1.4
				c0.3-0.4,0.7-0.7,1.2-1c0.5-0.2,1.1-0.4,1.8-0.4c0.8,0,1.4,0.1,2,0.4c0.6,0.3,1,0.6,1.3,1.1c0.3,0.4,0.4,1,0.4,1.5h-1.1
				c0-0.3-0.1-0.7-0.3-1s-0.5-0.6-0.9-0.8c-0.4-0.2-0.8-0.3-1.4-0.3c-0.5,0-1,0.1-1.4,0.2c-0.4,0.2-0.6,0.4-0.8,0.6
				c-0.2,0.3-0.3,0.5-0.3,0.8c0,0.3,0.1,0.6,0.2,0.8c0.1,0.2,0.4,0.4,0.8,0.6c0.4,0.2,0.9,0.4,1.7,0.5c0.8,0.2,1.5,0.4,2,0.7
				c0.5,0.3,0.9,0.6,1.1,0.9c0.2,0.4,0.4,0.8,0.4,1.3c0,0.5-0.2,1-0.5,1.4c-0.3,0.4-0.7,0.7-1.3,1c-0.6,0.2-1.2,0.3-1.9,0.3
				c-0.8,0-1.5-0.1-2.1-0.4c-0.6-0.3-1-0.6-1.3-1.1c-0.3-0.5-0.5-0.9-0.5-1.5h1.1c0,0.7,0.3,1.2,0.9,1.6c0.5,0.3,1.2,0.5,1.9,0.5
				c0.5,0,1-0.1,1.4-0.2c0.4-0.2,0.7-0.4,0.9-0.6c0.2-0.3,0.3-0.6,0.3-0.9c0-0.5-0.2-0.9-0.6-1.2c-0.4-0.4-1.1-0.6-2.1-0.9
				C118.2,59.8,117.6,59.6,117.1,59.4z"/>
			<path fill="#FFFFFF" d="M126.5,59.2v-0.9h4.4v0.9H126.5z"/>
			<path fill="#FFFFFF" d="M142.5,61.5c0,0.6-0.2,1.2-0.6,1.7c-0.3,0.5-0.8,0.9-1.4,1.2c-0.6,0.3-1.2,0.4-1.9,0.4
				c-0.9,0-1.7-0.2-2.3-0.6c-0.6-0.4-1.1-1-1.4-1.8c-0.3-0.7-0.5-1.6-0.5-2.5v-0.4c0-0.9,0.2-1.8,0.5-2.5c0.3-0.7,0.8-1.3,1.4-1.8
				c0.6-0.4,1.4-0.6,2.3-0.6c0.7,0,1.3,0.1,1.9,0.4c0.6,0.3,1,0.7,1.4,1.2c0.3,0.5,0.5,1.2,0.5,1.9h-1c0-0.5-0.2-1-0.4-1.4
				c-0.2-0.4-0.6-0.7-1-0.9c-0.4-0.2-0.9-0.3-1.4-0.3c-0.7,0-1.3,0.2-1.8,0.5c-0.5,0.4-0.8,0.8-1,1.5c-0.2,0.6-0.3,1.3-0.3,2v0.4
				c0,0.7,0.1,1.4,0.3,2c0.2,0.6,0.6,1.1,1,1.4s1.1,0.5,1.8,0.5c0.5,0,0.9-0.1,1.3-0.3c0.4-0.2,0.7-0.4,1-0.8
				c0.3-0.3,0.4-0.8,0.4-1.3H142.5z"/>
			<path fill="#FFFFFF" d="M146.9,56.9c0.4-0.8,0.9-1.3,1.6-1.8c0.7-0.4,1.4-0.6,2.3-0.6c0.9,0,1.7,0.2,2.3,0.6
				c0.7,0.4,1.2,1,1.6,1.8c0.4,0.8,0.5,1.6,0.5,2.6v0.3c0,1-0.2,1.8-0.5,2.6c-0.4,0.8-0.9,1.3-1.5,1.8c-0.7,0.4-1.4,0.6-2.3,0.6
				c-0.9,0-1.7-0.2-2.3-0.6c-0.7-0.4-1.2-1-1.6-1.8c-0.4-0.8-0.5-1.6-0.5-2.6v-0.3C146.4,58.6,146.5,57.7,146.9,56.9z M147.8,61.8
				c0.3,0.6,0.6,1.1,1.1,1.5c0.5,0.4,1.1,0.5,1.8,0.5c0.7,0,1.3-0.2,1.8-0.5c0.5-0.4,0.9-0.9,1.1-1.5c0.3-0.6,0.4-1.3,0.4-2v-0.3
				c0-0.7-0.1-1.4-0.4-2c-0.3-0.6-0.6-1.1-1.1-1.5c-0.5-0.4-1.1-0.6-1.8-0.6s-1.3,0.2-1.8,0.6c-0.5,0.4-0.9,0.9-1.1,1.5
				c-0.3,0.6-0.4,1.3-0.4,2v0.3C147.5,60.5,147.6,61.2,147.8,61.8z"/>
			<path fill="#FFFFFF" d="M159.8,64.6V50.6h1.1v14.1H159.8z"/>
			<path fill="#FFFFFF" d="M166.3,64.6V50.6h1.1v14.1H166.3z"/>
			<path fill="#FFFFFF" d="M173.1,59.7v0.2c0,0.7,0.1,1.4,0.4,2c0.3,0.6,0.7,1.1,1.2,1.4c0.5,0.3,1.1,0.5,1.8,0.5
				c0.6,0,1.1-0.1,1.6-0.3c0.5-0.2,0.9-0.6,1.2-1L180,63c-0.4,0.5-0.8,1-1.4,1.3c-0.6,0.3-1.3,0.5-2.1,0.5c-0.8,0-1.6-0.2-2.3-0.6
				c-0.7-0.4-1.2-1-1.6-1.7c-0.4-0.7-0.6-1.6-0.6-2.5v-0.4c0-1,0.2-1.9,0.6-2.6c0.4-0.8,0.9-1.4,1.6-1.8c0.7-0.4,1.4-0.6,2.1-0.6
				c0.8,0,1.5,0.2,2.1,0.6c0.6,0.4,1,0.9,1.3,1.6c0.3,0.7,0.5,1.5,0.5,2.4v0.7H173.1z M174.8,55.9c-0.4,0.3-0.8,0.7-1.1,1.2
				c-0.3,0.5-0.5,1.1-0.5,1.8h5.9v-0.1c0-0.6-0.1-1.1-0.3-1.6c-0.2-0.5-0.5-0.9-1-1.2s-0.9-0.4-1.5-0.4
				C175.7,55.5,175.2,55.6,174.8,55.9z"/>
			<path fill="#FFFFFF" d="M192.1,54.7v9.7c0,0.8-0.2,1.6-0.5,2.2c-0.3,0.6-0.8,1.1-1.4,1.4c-0.6,0.3-1.3,0.5-2.1,0.5
				c-0.7,0-1.3-0.1-1.9-0.4c-0.6-0.3-1.1-0.7-1.5-1.3l0.6-0.7c0.4,0.5,0.8,0.8,1.3,1.1c0.5,0.2,1,0.3,1.5,0.3c0.9,0,1.7-0.3,2.2-0.8
				c0.5-0.6,0.8-1.3,0.8-2.3v-1.2c-0.3,0.5-0.8,0.8-1.3,1.1c-0.5,0.3-1.1,0.4-1.8,0.4c-0.8,0-1.4-0.2-2-0.6c-0.6-0.4-1-1-1.3-1.8
				c-0.3-0.8-0.5-1.6-0.5-2.6v-0.2c0-1,0.2-1.9,0.5-2.7c0.3-0.8,0.7-1.3,1.3-1.8c0.6-0.4,1.3-0.6,2-0.6c0.7,0,1.3,0.1,1.8,0.4
				c0.5,0.3,0.9,0.7,1.3,1.2l0-1.4H192.1z M189.9,63.4c0.5-0.3,0.8-0.8,1.1-1.3v-4.6c-0.2-0.6-0.6-1.1-1-1.4
				c-0.5-0.4-1.1-0.5-1.8-0.5c-0.6,0-1.2,0.2-1.6,0.5c-0.4,0.4-0.8,0.8-1,1.5c-0.2,0.6-0.3,1.3-0.3,2.1v0.2c0,0.8,0.1,1.5,0.3,2.1
				s0.5,1.1,1,1.5s1,0.5,1.6,0.5C188.8,63.8,189.4,63.7,189.9,63.4z"/>
			<path fill="#FFFFFF" d="M197.7,59.7v0.2c0,0.7,0.1,1.4,0.4,2c0.3,0.6,0.7,1.1,1.2,1.4c0.5,0.3,1.1,0.5,1.8,0.5
				c0.6,0,1.1-0.1,1.6-0.3c0.5-0.2,0.9-0.6,1.2-1l0.7,0.5c-0.4,0.5-0.8,1-1.4,1.3c-0.6,0.3-1.3,0.5-2.1,0.5c-0.8,0-1.6-0.2-2.3-0.6
				c-0.7-0.4-1.2-1-1.6-1.7c-0.4-0.7-0.6-1.6-0.6-2.5v-0.4c0-1,0.2-1.9,0.6-2.6c0.4-0.8,0.9-1.4,1.6-1.8c0.7-0.4,1.4-0.6,2.1-0.6
				c0.8,0,1.5,0.2,2.1,0.6c0.6,0.4,1,0.9,1.3,1.6c0.3,0.7,0.5,1.5,0.5,2.4v0.7H197.7z M199.4,55.9c-0.4,0.3-0.8,0.7-1.1,1.2
				c-0.3,0.5-0.5,1.1-0.5,1.8h5.9v-0.1c0-0.6-0.1-1.1-0.3-1.6c-0.2-0.5-0.5-0.9-1-1.2c-0.4-0.3-0.9-0.4-1.5-0.4
				C200.3,55.5,199.8,55.6,199.4,55.9z"/>
			<path fill="#FFFFFF" d="M210.5,59.4c-0.5-0.2-0.9-0.5-1.1-0.9c-0.3-0.4-0.4-0.8-0.4-1.3c0-0.5,0.1-0.9,0.4-1.4
				c0.3-0.4,0.7-0.7,1.2-1c0.5-0.2,1.1-0.4,1.8-0.4c0.8,0,1.4,0.1,2,0.4c0.6,0.3,1,0.6,1.3,1.1c0.3,0.4,0.4,1,0.4,1.5H215
				c0-0.3-0.1-0.7-0.3-1c-0.2-0.3-0.5-0.6-0.9-0.8c-0.4-0.2-0.8-0.3-1.4-0.3c-0.5,0-1,0.1-1.3,0.2c-0.4,0.2-0.6,0.4-0.8,0.6
				c-0.2,0.3-0.3,0.5-0.3,0.8c0,0.3,0.1,0.6,0.2,0.8c0.1,0.2,0.4,0.4,0.8,0.6c0.4,0.2,0.9,0.4,1.7,0.5c0.8,0.2,1.5,0.4,2,0.7
				c0.5,0.3,0.9,0.6,1.1,0.9c0.2,0.4,0.4,0.8,0.4,1.3c0,0.5-0.2,1-0.5,1.4c-0.3,0.4-0.7,0.7-1.3,1c-0.6,0.2-1.2,0.3-1.9,0.3
				c-0.8,0-1.5-0.1-2.1-0.4c-0.6-0.3-1-0.6-1.3-1.1c-0.3-0.5-0.5-0.9-0.5-1.5h1.1c0,0.7,0.3,1.2,0.9,1.6c0.5,0.3,1.2,0.5,1.9,0.5
				c0.5,0,1-0.1,1.4-0.2s0.7-0.4,0.9-0.6c0.2-0.3,0.3-0.6,0.3-0.9c0-0.5-0.2-0.9-0.6-1.2c-0.4-0.4-1.1-0.6-2.1-0.9
				C211.6,59.8,211,59.6,210.5,59.4z"/>
			<path fill="#FFFFFF" d="M222.1,63.4c0.1,0.1,0.2,0.3,0.2,0.5c0,0.2-0.1,0.4-0.2,0.5c-0.1,0.1-0.3,0.2-0.6,0.2
				c-0.2,0-0.4-0.1-0.6-0.2c-0.1-0.1-0.2-0.3-0.2-0.5c0-0.2,0.1-0.4,0.2-0.5c0.1-0.1,0.3-0.2,0.6-0.2
				C221.8,63.2,222,63.3,222.1,63.4z"/>
			<path fill="#FFFFFF" d="M227.6,56.9c0.4-0.8,0.9-1.3,1.6-1.8c0.7-0.4,1.4-0.6,2.3-0.6c0.9,0,1.7,0.2,2.3,0.6
				c0.7,0.4,1.2,1,1.6,1.8c0.4,0.8,0.5,1.6,0.5,2.6v0.3c0,1-0.2,1.8-0.5,2.6c-0.4,0.8-0.9,1.3-1.5,1.8c-0.7,0.4-1.4,0.6-2.3,0.6
				s-1.7-0.2-2.3-0.6c-0.7-0.4-1.2-1-1.6-1.8c-0.4-0.8-0.5-1.6-0.5-2.6v-0.3C227,58.6,227.2,57.7,227.6,56.9z M228.5,61.8
				c0.3,0.6,0.6,1.1,1.1,1.5c0.5,0.4,1.1,0.5,1.8,0.5c0.7,0,1.3-0.2,1.8-0.5c0.5-0.4,0.9-0.9,1.1-1.5c0.3-0.6,0.4-1.3,0.4-2v-0.3
				c0-0.7-0.1-1.4-0.4-2s-0.6-1.1-1.1-1.5c-0.5-0.4-1.1-0.6-1.8-0.6s-1.3,0.2-1.8,0.6c-0.5,0.4-0.9,0.9-1.1,1.5
				c-0.3,0.6-0.4,1.3-0.4,2v0.3C228.1,60.5,228.2,61.2,228.5,61.8z"/>
			<path fill="#FFFFFF" d="M244.9,55.6c-0.3,0-0.5-0.1-0.7-0.1c-0.7,0-1.3,0.2-1.8,0.6c-0.5,0.4-0.8,0.9-1,1.6v6.8h-1.1v-9.9h1.1
				l0,1.6c0.3-0.5,0.6-1,1.1-1.3c0.5-0.3,1-0.5,1.7-0.5c0.1,0,0.3,0,0.4,0c0.1,0,0.3,0,0.3,0.1L244.9,55.6z"/>
			<path fill="#FFFFFF" d="M256.4,54.7v9.7c0,0.8-0.2,1.6-0.5,2.2c-0.3,0.6-0.8,1.1-1.4,1.4s-1.3,0.5-2.1,0.5
				c-0.7,0-1.3-0.1-1.9-0.4c-0.6-0.3-1.1-0.7-1.5-1.3l0.6-0.7c0.4,0.5,0.8,0.8,1.3,1.1c0.5,0.2,1,0.3,1.5,0.3c0.9,0,1.7-0.3,2.2-0.8
				c0.5-0.6,0.8-1.3,0.8-2.3v-1.2c-0.3,0.5-0.8,0.8-1.3,1.1c-0.5,0.3-1.1,0.4-1.8,0.4c-0.8,0-1.4-0.2-2-0.6c-0.6-0.4-1-1-1.3-1.8
				c-0.3-0.8-0.5-1.6-0.5-2.6v-0.2c0-1,0.2-1.9,0.5-2.7c0.3-0.8,0.7-1.3,1.3-1.8c0.6-0.4,1.3-0.6,2-0.6c0.7,0,1.3,0.1,1.8,0.4
				c0.5,0.3,0.9,0.7,1.3,1.2l0-1.4H256.4z M254.3,63.4c0.5-0.3,0.8-0.8,1.1-1.3v-4.6c-0.2-0.6-0.6-1.1-1-1.4
				c-0.5-0.4-1.1-0.5-1.8-0.5c-0.6,0-1.2,0.2-1.6,0.5c-0.4,0.4-0.8,0.8-1,1.5c-0.2,0.6-0.3,1.3-0.3,2.1v0.2c0,0.8,0.1,1.5,0.3,2.1
				c0.2,0.6,0.5,1.1,1,1.5s1,0.5,1.6,0.5C253.2,63.8,253.8,63.7,254.3,63.4z"/>
			<path fill="#FFFFFF" d="M262.8,63.4c0.1,0.1,0.2,0.3,0.2,0.5c0,0.2-0.1,0.4-0.2,0.5c-0.1,0.1-0.3,0.2-0.6,0.2
				c-0.2,0-0.4-0.1-0.6-0.2c-0.1-0.1-0.2-0.3-0.2-0.5c0-0.2,0.1-0.4,0.2-0.5c0.1-0.1,0.3-0.2,0.6-0.2
				C262.5,63.2,262.7,63.3,262.8,63.4z"/>
			<path fill="#FFFFFF" d="M269.5,51.3c0.1,0.1,0.2,0.3,0.2,0.5c0,0.2-0.1,0.4-0.2,0.5c-0.1,0.1-0.3,0.2-0.6,0.2
				c-0.2,0-0.4-0.1-0.5-0.2c-0.1-0.1-0.2-0.3-0.2-0.5c0-0.2,0.1-0.4,0.2-0.5c0.1-0.1,0.3-0.2,0.5-0.2
				C269.2,51.1,269.4,51.2,269.5,51.3z M268.4,64.6v-9.9h1.1v9.9H268.4z"/>
			<path fill="#FFFFFF" d="M274.9,64.6V50.6h1.1v14.1H274.9z"/>
		</g>
	</g>
</g>
</svg>
