<?xml version="1.0" encoding="utf-8"?>
<!-- Generator: Adobe Illustrator 18.1.0, SVG Export Plug-In . SVG Version: 6.00 Build 0)  -->
<svg version="1.1" id="Layer_1" xmlns="http://www.w3.org/2000/svg" xmlns:xlink="http://www.w3.org/1999/xlink" x="0px" y="0px"
	 width="49px" height="49px" viewBox="0 0 49 49" enable-background="new 0 0 49 49" xml:space="preserve">
<g id="XMLID_916_">
	<g>
		<g>
			<path fill="#2D79B4" d="M22.3,28.4L22.3,28.4c-0.5,0.5-0.5,1.1-0.1,1.5c0.2,0.2,0.5,0.3,0.7,0.3c0.3,0,0.5-0.1,0.7-0.3l0.1-0.1
				c0.4-0.4,0.4-1,0-1.4C23.4,28,22.7,28,22.3,28.4z"/>
			<path fill="#2D79B4" d="M28.5,15.5c-0.4-0.4-1-0.4-1.4,0L15.5,27.1c-0.4,0.4-0.4,1,0,1.4c0.2,0.2,0.5,0.3,0.7,0.3
				s0.5-0.1,0.7-0.3L28.5,17C28.9,16.6,28.9,15.9,28.5,15.5z"/>
			<path fill="#2D79B4" d="M19.4,6.3C15.2,7,11.5,9.3,9,12.8s-3.4,7.7-2.7,11.9s3,7.9,6.5,10.3c2.7,1.9,5.9,3,9.2,3
				c0.9,0,1.8-0.1,2.7-0.2c2.3-0.4,4.4-1.2,6.3-2.6c0.5-0.3,0.6-0.9,0.3-1.4c-0.3-0.5-0.9-0.6-1.4-0.3c-1.7,1.1-3.5,1.9-5.5,2.2
				c-3.7,0.6-7.4-0.2-10.4-2.4c-3-2.2-5-5.4-5.7-9c-0.6-3.7,0.2-7.4,2.4-10.4c2.2-3,5.4-5,9-5.7c4.3-0.7,8.6,0.5,11.8,3.5
				c0.4,0.4,1.1,0.4,1.4-0.1c0.4-0.4,0.4-1.1-0.1-1.4C29.2,6.9,24.3,5.5,19.4,6.3z"/>
			<path fill="#2D79B4" d="M18.9,18.4c0.4-0.4,0.4-1,0-1.4c-0.4-0.4-1-0.4-1.4,0l-3.4,3.4c-0.4,0.4-0.4,1,0,1.4
				c0.2,0.2,0.5,0.3,0.7,0.3c0.3,0,0.5-0.1,0.7-0.3L18.9,18.4z"/>
			<path fill="#2D79B4" d="M35.2,4.7C31.4,1.8,26.8,0.2,22,0.2c-5.8,0-11.3,2.3-15.4,6.4S0.2,16.2,0.2,22s2.3,11.3,6.4,15.4
				c3.9,3.9,8.9,6.1,14.4,6.3v3.1h-7.6c-0.6,0-1,0.5-1,1c0,0.6,0.5,1,1,1h17.2c0.6,0,1-0.5,1-1c0-0.6-0.5-1-1-1H23v-3.1
				c3.2-0.1,6.3-1,9.1-2.4c0.5-0.3,0.7-0.9,0.4-1.4c-0.3-0.5-0.9-0.7-1.4-0.4c-2.8,1.5-6,2.2-9.1,2.2C11.1,41.7,2.3,32.8,2.3,22
				S11.1,2.3,22,2.3c4.4,0,8.5,1.4,12,4.1c0.4,0.3,1.1,0.3,1.4-0.2C35.7,5.7,35.7,5.1,35.2,4.7z"/>
			<path fill="#2D79B4" d="M47.7,21.7v-2.3c0-0.7-0.4-1.4-1-1.8V7c0-0.7-0.2-1.4-0.7-1.9l-3-3.7c-0.6-0.7-1.5-1.1-2.4-1.1
				c-1.7,0-3.1,1.4-3.1,3.1v14.4c-0.6,0.4-1,1-1,1.8v2.3c-0.6,0.4-1,1-1,1.8v22.2c0,1.7,1.4,3,3,3h7.1c1.7,0,3-1.4,3-3V23.5
				C48.8,22.7,48.4,22.1,47.7,21.7z M39.7,3.3c0-0.6,0.5-1,1-1c0.3,0,0.6,0.1,0.8,0.4l3,3.7c0.1,0.2,0.2,0.4,0.2,0.6v10.4h-5.1V3.3z
				 M38.7,19.4h7.1v2h-7.1V19.4z M46.7,45.7c0,0.6-0.5,1-1,1h-7.1c-0.6,0-1-0.5-1-1V23.5h9.1V45.7z"/>
			<path fill="#2D79B4" d="M21.5,15.8l0.2-0.2c0.4-0.4,0.4-1,0-1.4c-0.4-0.4-1-0.4-1.4,0L20,14.4c-0.4,0.4-0.4,1,0,1.4
				c0.2,0.2,0.5,0.3,0.7,0.3S21.3,16,21.5,15.8z"/>
			<path fill="#2D79B4" d="M25.9,27.3c0.3,0,0.5-0.1,0.7-0.3l3.2-3.2c0.4-0.4,0.4-1,0-1.4c-0.4-0.4-1-0.4-1.4,0l-3.2,3.2
				c-0.4,0.4-0.4,1,0,1.4C25.4,27.2,25.6,27.3,25.9,27.3z"/>
		</g>
	</g>
</g>
</svg>
