<?xml version="1.0" encoding="utf-8"?>
<!-- Generator: Adobe Illustrator 18.1.0, SVG Export Plug-In . SVG Version: 6.00 Build 0)  -->
<svg version="1.1" id="Layer_1" xmlns="http://www.w3.org/2000/svg" xmlns:xlink="http://www.w3.org/1999/xlink" x="0px" y="0px"
	 width="49px" height="49px" viewBox="0 0 49 49" enable-background="new 0 0 49 49" xml:space="preserve">
<g>
	<g>
		<path fill="#2D79B4" d="M48.8,24.5c0-3.6-3.5-6.8-9-8.8c0.1-0.6,0.2-1.2,0.2-1.7c0.5-5.2-0.7-8.9-3.4-10.4
			c-0.9-0.5-1.9-0.8-3.1-0.8c-2.7,0-5.9,1.5-9,4.1c-2.6-2.1-5.2-3.5-7.5-4c-0.4-0.1-0.9,0.2-0.9,0.6C16,4,16.3,4.4,16.7,4.5
			c2,0.4,4.3,1.6,6.6,3.5c-1.7,1.6-3.4,3.5-5.1,5.6c-2.7,0.3-5.2,0.9-7.4,1.6c-0.4-2.6-0.4-5,0.1-6.9c0.2,0,0.4,0.1,0.7,0.1
			c1.8,0,3.2-1.5,3.2-3.2c0-1.8-1.5-3.2-3.2-3.2S8.3,3.3,8.3,5.1c0,1,0.4,1.8,1.1,2.4c-0.7,2.2-0.8,5-0.2,8.2
			c-5.5,2.1-8.9,5.2-8.9,8.8c0,3.5,3.3,6.7,8.9,8.8c-1,5.8,0,10.4,3.2,12.2c0.9,0.5,1.9,0.8,3.1,0.8c2.7,0,5.9-1.5,9.1-4.1
			c2.6,2.1,5.2,3.5,7.5,4c0.1,0,0.1,0,0.2,0c0.4,0,0.7-0.3,0.8-0.7c0.1-0.4-0.2-0.9-0.6-0.9c-2-0.4-4.2-1.6-6.6-3.5
			c1.7-1.6,3.4-3.5,5.1-5.6c2.7-0.3,5.2-0.9,7.5-1.6c0.4,2.6,0.4,5-0.1,6.9c-0.2,0-0.4-0.1-0.7-0.1c-1.8,0-3.2,1.5-3.2,3.2
			c0,1.8,1.5,3.2,3.2,3.2s3.2-1.5,3.2-3.2c0-1-0.4-1.8-1.1-2.4c0.7-2.2,0.8-5,0.2-8.2C45.3,31.3,48.8,28.1,48.8,24.5z M33.6,4.3
			c0.8,0,1.6,0.2,2.3,0.6c2.1,1.2,3.1,4.5,2.6,8.9c0,0.4-0.1,0.9-0.2,1.3c-2.2-0.7-4.7-1.2-7.4-1.6c-1.6-2.1-3.3-4-5-5.6
			C28.6,5.7,31.3,4.3,33.6,4.3z M37.9,16.7c-0.4,1.8-1,3.8-1.7,5.7c-0.6-1.2-1.2-2.4-1.9-3.6c-0.7-1.2-1.4-2.4-2.2-3.5
			C34.2,15.7,36.2,16.2,37.9,16.7z M24.5,9c1.4,1.2,2.7,2.7,4.1,4.3c-1.3-0.1-2.7-0.2-4.1-0.2c-1.4,0-2.7,0.1-4.1,0.2
			C21.8,11.7,23.1,10.2,24.5,9z M16.9,15.4c-0.8,1.1-1.5,2.3-2.2,3.5c-0.7,1.2-1.3,2.4-1.9,3.6c-0.8-2-1.3-3.9-1.7-5.7
			C12.8,16.2,14.8,15.7,16.9,15.4z M11.6,3.5c0.9,0,1.6,0.7,1.6,1.6c0,0.9-0.7,1.6-1.6,1.6c-0.9,0-1.6-0.7-1.6-1.6
			C9.9,4.2,10.7,3.5,11.6,3.5z M1.9,24.5c0-2.8,3-5.4,7.7-7.2c0.5,2.3,1.3,4.7,2.4,7.2c-1.1,2.5-1.9,4.9-2.4,7.2
			C4.7,29.9,1.9,27.2,1.9,24.5z M24.5,40c-1.3-1.2-2.6-2.5-3.8-4c0.1-0.1,0.1-0.2,0.2-0.3c1.2,0.1,2.4,0.1,3.6,0.1
			c1.4,0,2.7-0.1,4.1-0.2C27.2,37.3,25.9,38.8,24.5,40z M29.9,33.9c-1.7,0.2-3.6,0.3-5.4,0.3c-1.1,0-2.2,0-3.2-0.1
			C21.2,32.4,19.8,31,18,31c-1.8,0-3.2,1.5-3.2,3.2c0,1.8,1.5,3.2,3.2,3.2c0.5,0,1-0.1,1.5-0.4c1.2,1.5,2.5,2.8,3.8,4
			c-2.8,2.3-5.6,3.6-7.8,3.6c-0.8,0-1.6-0.2-2.3-0.6c-2.4-1.4-3.2-5.3-2.4-10.2c0.4,0.1,0.9,0.3,1.4,0.4c0.4,0.1,0.9-0.1,1-0.6
			c0.1-0.4-0.1-0.9-0.6-1c-0.5-0.1-1-0.3-1.5-0.4c0.4-1.8,1-3.7,1.7-5.7c0.5,1.1,1.1,2.2,1.8,3.4c0.1,0.3,0.4,0.4,0.7,0.4
			c0.1,0,0.3,0,0.4-0.1c0.4-0.2,0.5-0.7,0.3-1.1c-0.9-1.5-1.6-3.1-2.3-4.6c0.7-1.6,1.5-3.2,2.5-4.9c0.9-1.6,1.9-3.1,3-4.6
			c1.7-0.2,3.6-0.3,5.4-0.3c1.9,0,3.7,0.1,5.4,0.3c1,1.4,2,2.9,3,4.6c0.9,1.6,1.7,3.2,2.5,4.8c-0.7,1.6-1.5,3.2-2.5,4.9
			C32,31,31,32.5,29.9,33.9z M19.6,34.2c0,0.5-0.2,0.9-0.5,1.2c0,0,0,0,0,0c0,0,0,0,0,0c-0.3,0.3-0.7,0.4-1.1,0.4
			c-0.9,0-1.6-0.7-1.6-1.6c0-0.9,0.7-1.6,1.6-1.6C18.9,32.6,19.6,33.3,19.6,34.2z M32.1,33.6c0.8-1.1,1.5-2.3,2.2-3.5
			c0.7-1.2,1.3-2.4,1.9-3.6c0.8,2,1.3,3.9,1.7,5.7C36.2,32.8,34.2,33.3,32.1,33.6z M37.4,45.5c-0.9,0-1.6-0.7-1.6-1.6
			c0-0.9,0.7-1.6,1.6-1.6c0.9,0,1.6,0.7,1.6,1.6C39.1,44.8,38.3,45.5,37.4,45.5z M39.5,31.7c-0.5-2.3-1.3-4.7-2.4-7.2
			c1-2.5,1.8-4.9,2.3-7.2c4.7,1.8,7.7,4.4,7.7,7.2C47.1,27.3,44.2,29.9,39.5,31.7z"/>
	</g>
</g>
</svg>
