<?xml version="1.0" encoding="utf-8"?>
<!-- Generator: Adobe Illustrator 18.1.0, SVG Export Plug-In . SVG Version: 6.00 Build 0)  -->
<svg version="1.1" id="Layer_1" xmlns="http://www.w3.org/2000/svg" xmlns:xlink="http://www.w3.org/1999/xlink" x="0px" y="0px"
	 width="49px" height="49px" viewBox="0 0 49 49" enable-background="new 0 0 49 49" xml:space="preserve">
<g>
	<g>
		<g>
			<path fill="#2D79B4" d="M31.5,39.1h1.9c0.4,0,0.8-0.4,0.8-0.8c0-0.4-0.4-0.8-0.8-0.8H15.6c-0.4,0-0.8,0.4-0.8,0.8
				c0,0.4,0.4,0.8,0.8,0.8h1.9l-4.3,8.5c-0.2,0.4,0,0.9,0.4,1.1c0.1,0.1,0.2,0.1,0.4,0.1c0.3,0,0.6-0.2,0.7-0.4l4.6-9.3h4.4V48
				c0,0.4,0.4,0.8,0.8,0.8c0.4,0,0.8-0.4,0.8-0.8v-8.9h4.4l4.6,9.3c0.1,0.3,0.4,0.4,0.7,0.4c0.1,0,0.2,0,0.4-0.1
				c0.4-0.2,0.6-0.7,0.4-1.1L31.5,39.1z"/>
			<path fill="#2D79B4" d="M18.8,5.1h11.3c0.4,0,0.8-0.4,0.8-0.8s-0.4-0.8-0.8-0.8h-4.9V1c0-0.4-0.4-0.8-0.8-0.8S23.7,0.6,23.7,1
				v2.4h-4.9c-0.4,0-0.8,0.4-0.8,0.8C18,4.7,18.4,5.1,18.8,5.1z"/>
			<path fill="#2D79B4" d="M39.9,6.7H9.1c-2.2,0-4,1.8-4,4v17c0,0.4,0.4,0.8,0.8,0.8s0.8-0.4,0.8-0.8v-17c0-1.3,1.1-2.4,2.4-2.4
				h30.7c1.3,0,2.4,1.1,2.4,2.4v21c0,1.3-1.1,2.4-2.4,2.4H9.1c-1.2,0-2.2-0.9-2.4-2.1c5.3-4.8,15-1.2,15.1-1.2
				c0.3,0.1,0.7,0,0.9-0.3c0,0,2.2-2.9,7.4-2.9c5.3,0,9.2,3,9.2,3.1c0.3,0.3,0.9,0.2,1.1-0.1c0.3-0.3,0.2-0.9-0.1-1.1
				c-0.2-0.1-4-3.1-9.4-3.4v-1.7c1.4-0.3,2.4-1.5,2.4-3.1c0-1.9-0.2-8.1-3.2-8.1c-3.1,0-3.2,6.7-3.2,8.1c0,1.6,1,2.8,2.4,3.1v1.7
				c-4.2,0.2-6.6,2.2-7.5,3.1c-2.3-0.8-11.2-3.3-16.5,2c-0.2,0.2-0.2,0.4-0.2,0.6c0,2.2,1.8,4,4,4h30.7c2.2,0,4-1.8,4-4v-21
				C43.9,8.5,42.1,6.7,39.9,6.7z M28.5,21.3c0-4,0.9-6.5,1.6-6.5c0.7,0,1.6,2.3,1.6,6.5c0,1-0.6,1.6-1.6,1.6
				C29.2,22.9,28.5,22.2,28.5,21.3z"/>
			<path fill="#2D79B4" d="M12.4,14.8c-0.4,0-0.8,0.4-0.8,0.8s0.4,0.8,0.8,0.8h1c0,0.1,0.1,0.2,0.1,0.2l-0.7,0.7
				c-0.3,0.3-0.3,0.8,0,1.1c0.2,0.2,0.4,0.2,0.6,0.2c0.2,0,0.4-0.1,0.6-0.2l0.7-0.7c0.1,0,0.2,0.1,0.2,0.1l0,1
				c0,0.4,0.4,0.8,0.8,0.8c0.4,0,0.8-0.4,0.8-0.8l0-1c0.1,0,0.2-0.1,0.2-0.1l0.7,0.7c0.2,0.2,0.4,0.2,0.6,0.2c0.2,0,0.4-0.1,0.6-0.2
				c0.3-0.3,0.3-0.8,0-1.1l-0.7-0.7c0-0.1,0.1-0.2,0.1-0.2l1,0h0c0.4,0,0.8-0.4,0.8-0.8c0-0.4-0.4-0.8-0.8-0.8l-1,0
				c0-0.1-0.1-0.2-0.1-0.2l0.7-0.7c0.3-0.3,0.3-0.8,0-1.1c-0.3-0.3-0.8-0.3-1.1,0l-0.7,0.7c-0.1,0-0.2-0.1-0.2-0.1l0-1
				c0-0.4-0.4-0.8-0.8-0.8h0c-0.4,0-0.8,0.4-0.8,0.8l0,1c-0.1,0-0.2,0.1-0.2,0.1l-0.7-0.7c-0.3-0.3-0.8-0.3-1.1,0
				c-0.3,0.3-0.3,0.8,0,1.1l0.7,0.7c0,0.1-0.1,0.2-0.1,0.2L12.4,14.8L12.4,14.8z M15.6,14.8c0.4,0,0.8,0.4,0.8,0.8
				c0,0.4-0.4,0.8-0.8,0.8s-0.8-0.4-0.8-0.8C14.8,15.2,15.2,14.8,15.6,14.8z"/>
		</g>
	</g>
</g>
</svg>
