<?xml version="1.0" encoding="utf-8"?>
<!-- Generator: Adobe Illustrator 18.1.0, SVG Export Plug-In . SVG Version: 6.00 Build 0)  -->
<svg version="1.1" id="Layer_1" xmlns="http://www.w3.org/2000/svg" xmlns:xlink="http://www.w3.org/1999/xlink" x="0px" y="0px"
	 width="49px" height="49px" viewBox="0 0 49 49" enable-background="new 0 0 49 49" xml:space="preserve">
<g>
	<g>
		<g>
			<path fill="#2D79B4" d="M35.8,30.2c0-0.4-0.4-0.8-0.8-0.8h-4.9c-0.4,0-0.8,0.4-0.8,0.8c0,0.4,0.4,0.8,0.8,0.8H35
				C35.5,31,35.8,30.6,35.8,30.2z"/>
			<path fill="#2D79B4" d="M32.6,9.1v-4c0-0.4-0.4-0.8-0.8-0.8c-0.4,0-0.8,0.4-0.8,0.8v4c0,2.2,1.8,4,4,4h7.3v15.4
				c0,0.4,0.4,0.8,0.8,0.8s0.8-0.4,0.8-0.8V12.4c0-0.4-0.4-0.8-0.8-0.8H35C33.7,11.6,32.6,10.5,32.6,9.1z"/>
			<path fill="#2D79B4" d="M35,19.6h-6.5c-0.4,0-0.8,0.4-0.8,0.8c0,0.4,0.4,0.8,0.8,0.8H35c0.4,0,0.8-0.4,0.8-0.8
				C35.8,20,35.5,19.6,35,19.6z"/>
			<path fill="#2D79B4" d="M26.1,20.5c0-0.4-0.4-0.8-0.8-0.8h-4.9c-0.4,0-0.8,0.4-0.8,0.8c0,0.4,0.4,0.8,0.8,0.8h4.9
				C25.8,21.3,26.1,20.9,26.1,20.5z"/>
			<path fill="#2D79B4" d="M20.5,24.5c-0.4,0-0.8,0.4-0.8,0.8c0,0.4,0.4,0.8,0.8,0.8h1.6c0.4,0,0.8-0.4,0.8-0.8
				c0-0.4-0.4-0.8-0.8-0.8L20.5,24.5L20.5,24.5z"/>
			<path fill="#2D79B4" d="M20.5,16.4h8.1c0.4,0,0.8-0.4,0.8-0.8s-0.4-0.8-0.8-0.8h-8.1c-0.4,0-0.8,0.4-0.8,0.8
				C19.6,16.1,20,16.4,20.5,16.4z"/>
			<path fill="#2D79B4" d="M25.3,26.1h8.1c0.4,0,0.8-0.4,0.8-0.8c0-0.4-0.4-0.8-0.8-0.8h-8.1c-0.4,0-0.8,0.4-0.8,0.8
				C24.5,25.8,24.9,26.1,25.3,26.1z"/>
			<path fill="#2D79B4" d="M30.2,34.2c-0.4,0-0.8,0.4-0.8,0.8c0,0.4,0.4,0.8,0.8,0.8h1.6c0.4,0,0.8-0.4,0.8-0.8
				c0-0.4-0.4-0.8-0.8-0.8H30.2z"/>
			<path fill="#2D79B4" d="M26.9,29.4h-6.5c-0.4,0-0.8,0.4-0.8,0.8c0,0.4,0.4,0.8,0.8,0.8h6.5c0.4,0,0.8-0.4,0.8-0.8
				C27.7,29.7,27.4,29.4,26.9,29.4z"/>
			<path fill="#2D79B4" d="M26.9,34.2h-6.5c-0.4,0-0.8,0.4-0.8,0.8c0,0.4,0.4,0.8,0.8,0.8h6.5c0.4,0,0.8-0.4,0.8-0.8
				C27.7,34.6,27.4,34.2,26.9,34.2z"/>
			<path fill="#2D79B4" d="M46.2,33.5l-1.6-1.6c-1.2-1.2-3.1-1.2-4.4,0L29.6,42.5c-0.2,0.2-0.2,0.4-0.2,0.6V48
				c0,0.4,0.4,0.8,0.8,0.8H35c0.2,0,0.4-0.1,0.6-0.2l10.6-10.6C47.5,36.6,47.5,34.8,46.2,33.5z M39.1,35.3l1.3,1.3l-7,7l-1.3-1.3
				L39.1,35.3z M31,47.1v-3.7l3.7,3.7H31z M35.8,46l-1.3-1.3l7-7l1.3,1.3L35.8,46z M45,36.8l-1,1l-3.7-3.7l1-1
				c0.6-0.6,1.4-0.6,2.1,0l1.6,1.6C45.7,35.3,45.7,36.1,45,36.8z"/>
			<path fill="#2D79B4" d="M26.9,47.1h-21c-1.3,0-2.4-1.1-2.4-2.4V4.3c0-1.3,1.1-2.4,2.4-2.4h25.5l7.8,7.8c0.3,0.3,0.8,0.3,1.1,0
				c0.3-0.3,0.3-0.8,0-1.1l-8.1-8.1c-0.2-0.2-0.4-0.2-0.6-0.2H5.9c-2.2,0-4,1.8-4,4v40.4c0,2.2,1.8,4,4,4h21c0.4,0,0.8-0.4,0.8-0.8
				C27.7,47.5,27.4,47.1,26.9,47.1z"/>
			<path fill="#2D79B4" d="M26.9,39.1h-6.5c-0.4,0-0.8,0.4-0.8,0.8c0,0.4,0.4,0.8,0.8,0.8h6.5c0.4,0,0.8-0.4,0.8-0.8
				C27.7,39.4,27.4,39.1,26.9,39.1z"/>
			<path fill="#2D79B4" d="M16.4,15.6c0-0.4-0.4-0.8-0.8-0.8h-4.9c-0.4,0-0.8,0.4-0.8,0.8v4.9c0,0.4,0.4,0.8,0.8,0.8h4.9
				c0.4,0,0.8-0.4,0.8-0.8V15.6z M14.8,19.6h-3.2v-3.2h3.2V19.6z"/>
			<path fill="#2D79B4" d="M10.8,40.7h4.9c0.4,0,0.8-0.4,0.8-0.8V35c0-0.4-0.4-0.8-0.8-0.8h-4.9c-0.4,0-0.8,0.4-0.8,0.8v4.9
				C9.9,40.3,10.3,40.7,10.8,40.7z M11.6,35.8h3.2v3.2h-3.2V35.8L11.6,35.8z"/>
			<path fill="#2D79B4" d="M11.8,30.7c0.2,0.2,0.4,0.2,0.6,0.2c0,0,0.1,0,0.1,0c0.2,0,0.5-0.2,0.6-0.4l3.2-4.9
				c0.2-0.4,0.1-0.9-0.2-1.1c-0.4-0.2-0.9-0.1-1.1,0.2l-2.7,4L11.3,28c-0.3-0.3-0.8-0.3-1.1,0c-0.3,0.3-0.3,0.8,0,1.1L11.8,30.7z"/>
		</g>
	</g>
</g>
</svg>
