<?xml version="1.0" encoding="utf-8"?>
<!-- Generator: Adobe Illustrator 18.1.0, SVG Export Plug-In . SVG Version: 6.00 Build 0)  -->
<svg version="1.1" id="Layer_1" xmlns="http://www.w3.org/2000/svg" xmlns:xlink="http://www.w3.org/1999/xlink" x="0px" y="0px"
	 width="49px" height="49px" viewBox="0 0 49 49" enable-background="new 0 0 49 49" xml:space="preserve">
<g>
	<g>
		<g>
			<path fill="#2D79B4" d="M47,22.2c-1-9.5-8.1-17.6-17.4-19.7c-0.4-0.1-0.9,0.2-1,0.6c-0.1,0.4,0.2,0.9,0.6,1
				c5.1,1.2,9.5,4.2,12.4,8.4h-3c-0.4,0-0.8,0.4-0.8,0.8s0.4,0.8,0.8,0.8h4c1.5,2.5,2.4,5.3,2.7,8.3c-0.6,0.3-1.1,0.8-1.3,1.4h-5
				c-0.4,0-0.8,0.4-0.8,0.8c0,0.4,0.4,0.8,0.8,0.8h5c0.3,0.9,1.2,1.6,2.3,1.6c1.3,0,2.4-1.1,2.4-2.4C48.8,23.4,48,22.5,47,22.2z
				 M46.3,25.3c-0.4,0-0.8-0.4-0.8-0.8c0-0.4,0.3-0.8,0.8-0.8c0,0,0,0,0,0c0,0,0,0,0,0c0.4,0,0.8,0.4,0.8,0.8
				C47.1,24.9,46.8,25.3,46.3,25.3z"/>
			<path fill="#2D79B4" d="M3,20.8c0.1,0,0.1,0,0.2,0c0.4,0,0.7-0.3,0.8-0.6c0.3-1.6,0.9-3.2,1.6-4.6c0.1,0,0.3,0,0.4,0
				c1.3,0,2.4-1.1,2.4-2.4s-1.1-2.4-2.4-2.4s-2.4,1.1-2.4,2.4c0,0.6,0.2,1.2,0.6,1.6c-0.8,1.6-1.4,3.3-1.7,5.1
				C2.2,20.3,2.5,20.7,3,20.8z M5.9,12.4c0.4,0,0.8,0.4,0.8,0.8c0,0.4-0.4,0.8-0.8,0.8s-0.8-0.4-0.8-0.8C5.1,12.7,5.5,12.4,5.9,12.4
				z"/>
			<path fill="#2D79B4" d="M19.8,45c-8.7-2-15.2-9.4-16.2-18.3c0.9-0.4,1.5-1.2,1.5-2.2c0-1.3-1.1-2.4-2.4-2.4s-2.4,1.1-2.4,2.4
				c0,1.1,0.7,2,1.8,2.3c1,9.5,8.1,17.6,17.4,19.7c0.1,0,0.1,0,0.2,0c0.4,0,0.7-0.3,0.8-0.6C20.5,45.5,20.2,45.1,19.8,45z M2.7,25.3
				C2.7,25.3,2.7,25.3,2.7,25.3C2.7,25.3,2.7,25.3,2.7,25.3c-0.5,0-0.8-0.4-0.8-0.8c0-0.4,0.4-0.8,0.8-0.8s0.8,0.4,0.8,0.8
				C3.5,24.9,3.1,25.3,2.7,25.3z"/>
			<path fill="#2D79B4" d="M46,28.2c-0.4-0.1-0.9,0.2-1,0.6c-0.5,2.2-1.3,4.3-2.4,6.2h-4c-0.4,0-0.8,0.4-0.8,0.8
				c0,0.4,0.4,0.8,0.8,0.8h3c-3.3,4.6-8.4,7.9-14.2,8.7c1.8-1.4,4.2-3.7,6.3-7.1c0.2,0,0.3,0.1,0.5,0.1c1.3,0,2.4-1.1,2.4-2.4
				c0-0.7-0.3-1.4-0.9-1.8c1.1-3,1.7-6.1,1.7-9.5c0-3.4-0.5-6.6-1.6-9.6c0.5-0.4,0.8-1.1,0.8-1.8c0-1.3-1.1-2.4-2.4-2.4
				c-0.1,0-0.2,0-0.3,0c-2.3-3.9-5.2-6.4-7-7.6c0-0.2,0.1-0.3,0.1-0.5c0-1.3-1.1-2.4-2.4-2.4c-1.1,0-2,0.7-2.3,1.7
				C16.7,2.5,11.6,5.1,7.8,9.2c-0.3,0.3-0.3,0.8,0,1.1c0.2,0.1,0.4,0.2,0.5,0.2c0.2,0,0.4-0.1,0.6-0.3c3.3-3.6,7.7-5.9,12.6-6.6
				c-2.1,1.6-5,4.5-7.2,8.7h-4.1c-0.4,0-0.8,0.4-0.8,0.8S9.9,14,10.3,14h3.3c-1.2,2.7-2,5.9-2.1,9.7H7.5c-0.4,0-0.8,0.4-0.8,0.8
				c0,0.4,0.4,0.8,0.8,0.8h4.1c0.1,3.8,0.8,7,1.9,9.7h-3.2c-0.4,0-0.8,0.4-0.8,0.8s0.4,0.8,0.8,0.8h3.9c2.4,4.8,5.7,7.7,7.9,9.2
				c0,0.2-0.1,0.3-0.1,0.5c0,1.3,1.1,2.4,2.4,2.4c1.1,0,2-0.7,2.3-1.8c9.7-1,17.8-8.2,19.8-17.9C46.8,28.7,46.5,28.3,46,28.2z
				 M34.2,36.6c-0.4,0-0.8-0.4-0.8-0.8s0.4-0.8,0.8-0.8c0.4,0,0.8,0.4,0.8,0.8S34.6,36.6,34.2,36.6z M34.2,12.4
				c0.4,0,0.8,0.4,0.8,0.8c0,0.4-0.4,0.8-0.8,0.8c-0.4,0-0.8-0.4-0.8-0.8C33.4,12.7,33.8,12.4,34.2,12.4z M24.5,1.9
				c0.4,0,0.8,0.4,0.8,0.8s-0.4,0.8-0.8,0.8c-0.4,0-0.8-0.4-0.8-0.8c0,0,0,0,0,0c0,0,0,0,0,0C23.7,2.2,24.1,1.9,24.5,1.9z
				 M25.3,24.5c0,0.4-0.4,0.8-0.8,0.8s-0.8-0.4-0.8-0.8c0-0.4,0.4-0.8,0.8-0.8S25.3,24.1,25.3,24.5z M15.7,35.9c0,0,0-0.1,0-0.1
				c0-0.3-0.2-0.5-0.4-0.7c-1.3-2.9-2.2-6.4-2.2-10.7c0-4.4,1-8,2.5-11c0,0,0,0,0,0C17.9,9,21,6.1,23,4.6c0.2,0.1,0.4,0.3,0.6,0.3
				v7.4H18c-0.4,0-0.8,0.4-0.8,0.8S17.6,14,18,14h5.7v8.2c-0.7,0.2-1.2,0.8-1.5,1.5h-6.6c-0.4,0-0.8,0.4-0.8,0.8
				c0,0.4,0.4,0.8,0.8,0.8h6.6c0.2,0.7,0.8,1.2,1.5,1.5V35H18c-0.4,0-0.8,0.4-0.8,0.8c0,0.4,0.4,0.8,0.8,0.8h5.7v7.4
				c-0.3,0.1-0.5,0.2-0.7,0.4C21,43.1,17.9,40.4,15.7,35.9z M24.5,47.1c-0.4,0-0.8-0.4-0.8-0.8s0.4-0.8,0.8-0.8
				c0.4,0,0.8,0.4,0.8,0.8c0,0,0,0,0,0c0,0,0,0,0,0C25.3,46.8,24.9,47.1,24.5,47.1z M26,44.4c-0.2-0.1-0.4-0.3-0.6-0.3V26.8
				c0.9-0.3,1.6-1.2,1.6-2.3s-0.7-1.9-1.6-2.3V4.9c0.3-0.1,0.5-0.2,0.7-0.4c1.7,1.2,4.3,3.4,6.4,7c-0.2,0.2-0.4,0.5-0.5,0.9h-4.6
				c-0.4,0-0.8,0.4-0.8,0.8s0.4,0.8,0.8,0.8h4.6c0.3,0.9,1.2,1.6,2.3,1.6c0.1,0,0.1,0,0.2,0c0.9,2.5,1.4,5.2,1.4,8.1h-6.5
				c-0.4,0-0.8,0.4-0.8,0.8c0,0.4,0.4,0.8,0.8,0.8h6.5c-0.1,2.8-0.6,5.6-1.6,8.1c0,0,0,0,0,0c-1.1,0-1.9,0.7-2.3,1.6h-4.6
				c-0.4,0-0.8,0.4-0.8,0.8s0.4,0.8,0.8,0.8h4.6c0.1,0.3,0.2,0.5,0.4,0.7C30.2,40.8,27.6,43.1,26,44.4z"/>
		</g>
	</g>
</g>
</svg>
