<?xml version="1.0" encoding="utf-8"?>
<!-- Generator: Adobe Illustrator 18.1.0, SVG Export Plug-In . SVG Version: 6.00 Build 0)  -->
<svg version="1.1" id="Layer_1" xmlns="http://www.w3.org/2000/svg" xmlns:xlink="http://www.w3.org/1999/xlink" x="0px" y="0px"
	 width="49px" height="49px" viewBox="0 0 49 49" enable-background="new 0 0 49 49" xml:space="preserve">
<g>
	<path fill="#2D79B4" d="M48.8,33.8C48.8,33.7,48.8,33.7,48.8,33.8C48.8,33.7,48.8,33.7,48.8,33.8C48.8,33.7,48.8,33.7,48.8,33.8
		c0-0.1,0-0.1,0-0.1c0,0,0,0,0,0c0,0,0,0,0,0c0,0,0,0,0,0c0,0,0,0,0,0c0,0,0,0,0,0c0,0,0,0,0,0c0,0,0,0,0,0l-8.3-18.3v-2.4h0.1
		c0.9,0,1.6-0.7,1.6-1.6V11c0-0.8-0.6-1.5-1.4-1.6L27,7.1V5.7c0.5-0.6,0.8-1.4,0.8-2.2c0-1.8-1.5-3.3-3.3-3.3
		c-1.8,0-3.3,1.5-3.3,3.3c0,0.8,0.3,1.6,0.8,2.2v1.3L8.3,9.4C7.5,9.5,6.9,10.2,6.9,11v0.1c0,0.9,0.7,1.6,1.6,1.6h0.1v2.4L0.3,33.4
		c0,0,0,0,0,0c0,0,0,0,0,0c0,0,0,0,0,0c0,0,0,0,0,0c0,0,0,0,0,0c0,0,0,0,0,0c0,0,0,0,0,0c0,0,0,0,0,0c0,0,0,0,0,0.1c0,0,0,0,0,0
		c0,0,0,0,0,0c0,0,0,0,0,0c0,3.2,4.1,5.8,9.2,5.8s9.1-2.5,9.2-5.8c0,0,0,0,0,0c0,0,0,0,0,0c0,0,0,0,0,0c0,0,0,0,0-0.1c0,0,0,0,0,0
		c0,0,0,0,0,0c0,0,0,0,0,0c0,0,0,0,0,0c0,0,0,0,0,0c0,0,0,0,0,0c0,0,0,0,0,0c0,0,0,0,0,0l-8.3-18.3v-2.4H22v17.1
		c-0.5,0.3-0.8,0.8-0.8,1.4v11.6l-5,1.6c-1,0.3-1.7,1.3-1.7,2.4V48c0,0.4,0.4,0.8,0.8,0.8h18.4c0.4,0,0.8-0.4,0.8-0.8v-1.3
		c0-1.1-0.7-2-1.7-2.4l-5-1.6V31.2c0-0.6-0.3-1.1-0.8-1.4V12.7h11.8v2.4l-8.3,18.3c0,0,0,0,0,0c0,0,0,0,0,0c0,0,0,0,0,0c0,0,0,0,0,0
		c0,0,0,0,0,0c0,0,0,0,0,0c0,0,0,0,0,0c0,0,0,0,0,0c0,0,0,0,0,0.1c0,0,0,0,0,0c0,0,0,0,0,0c0,0,0,0,0,0c0,3.2,4.1,5.8,9.2,5.8
		S48.7,37,48.8,33.8C48.8,33.8,48.8,33.8,48.8,33.8z M9.4,17.2l7.2,15.8H2.2L9.4,17.2z M9.4,38c-3.6,0-6.8-1.5-7.5-3.5h14.9
		C16.2,36.4,13,38,9.4,38z M26.2,31.2v11.4h-3.5V31.2c0,0,0-0.1,0.1-0.1L26.2,31.2C26.2,31.2,26.2,31.2,26.2,31.2z M23.6,29.6V6.7
		c0.3,0.1,0.6,0.1,0.9,0.1s0.6,0,0.9-0.1v22.9H23.6z M24.5,1.8c1,0,1.7,0.8,1.7,1.7s-0.8,1.7-1.7,1.7s-1.7-0.8-1.7-1.7
		S23.5,1.8,24.5,1.8z M8.6,11.1C8.5,11.1,8.5,11.1,8.6,11.1L8.5,11c0,0,0,0,0-0.1L22,8.7v2.5H8.6z M32.9,46.7v0.5H16.1v-0.5
		c0-0.4,0.3-0.7,0.6-0.9l5.4-1.7h4.8l5.4,1.7C32.7,46,32.9,46.3,32.9,46.7z M27,8.7l13.5,2.2c0,0,0,0,0,0.1v0.1c0,0,0,0.1-0.1,0.1
		H27V8.7z M39.6,17.2l7.2,15.8H32.4L39.6,17.2z M39.6,38c-3.6,0-6.8-1.5-7.5-3.5h14.9C46.4,36.4,43.2,38,39.6,38z"/>
</g>
</svg>
