<?xml version="1.0" encoding="utf-8"?>
<!-- Generator: Adobe Illustrator 18.1.0, SVG Export Plug-In . SVG Version: 6.00 Build 0)  -->
<svg version="1.1" id="Layer_1" xmlns="http://www.w3.org/2000/svg" xmlns:xlink="http://www.w3.org/1999/xlink" x="0px" y="0px"
	 width="49px" height="49px" viewBox="0 0 49 49" enable-background="new 0 0 49 49" xml:space="preserve">
<g>
	<g>
		<g>
			<path fill="#2D79B4" d="M24.5,21.3c1,0,1.9-0.4,2.4-0.7c0.5,0.3,1.4,0.7,2.4,0.7c1.5,0,3.2-0.9,3.9-2c0.1-0.1,1.8-2.7,1.8-6.9
				c0-3.1-2.5-5.7-5.7-5.7c-0.9,0-1.7,0.3-2.4,0.7c-0.7-0.4-1.5-0.7-2.4-0.7c-3.1,0-5.7,2.5-5.7,5.7c0,4.8,1.5,6.7,1.8,7
				C21.4,20.3,22.9,21.3,24.5,21.3z M24.5,8.3c0.7,0,1.5,0.4,2,0.7c0.3,0.1,0.6,0.1,0.8,0c0.6-0.3,1.3-0.7,2-0.7c2.2,0,4,1.8,4,4
				c0,3.7-1.5,6-1.5,6c-0.4,0.6-1.5,1.2-2.6,1.2c-1,0-1.9-0.6-1.9-0.6c-0.1-0.1-0.3-0.2-0.5-0.2s-0.3,0.1-0.5,0.2
				c0,0-0.9,0.6-1.9,0.6c-1,0-2.1-0.7-2.6-1.3c0,0,0-0.1-0.1-0.1c0,0-1.4-1.5-1.4-5.9C20.5,10.1,22.3,8.3,24.5,8.3z"/>
			<path fill="#2D79B4" d="M26.2,5.5c0.2,0.3,0.4,0.4,0.7,0.4c0.1,0,0.3,0,0.4-0.1c0.4-0.2,0.5-0.7,0.3-1.1l-2.4-4
				c-0.2-0.4-0.7-0.5-1.1-0.3c-0.4,0.2-0.5,0.7-0.3,1.1L26.2,5.5z"/>
			<path fill="#2D79B4" d="M28.8,5.4c0.1,0,0.6,0.2,1.3,0.2h0c1,0,1.8-0.3,2.4-1c1.5-1.5,0.8-3.6,0.8-3.7c-0.1-0.2-0.3-0.4-0.5-0.5
				c-0.1,0-0.6-0.2-1.3-0.2c-1,0-1.8,0.3-2.4,1c-1.5,1.5-0.8,3.6-0.8,3.7C28.3,5.1,28.5,5.3,28.8,5.4z M30.2,2.3
				c0.3-0.3,0.7-0.5,1.3-0.5c0.1,0,0.2,0,0.3,0c0,0.4,0,1.1-0.5,1.6C31,3.8,30.5,4,30,4c-0.1,0-0.2,0-0.3,0
				C29.6,3.5,29.7,2.8,30.2,2.3z"/>
			<path fill="#2D79B4" d="M46.3,22.9H7.5c-1.3,0-2.4,1.1-2.4,2.4v3.2c0,0.4,0.4,0.8,0.8,0.8c0.4,0,0.8-0.4,0.8-0.8v-3.2
				c0-0.4,0.4-0.8,0.8-0.8h2.4v4c0,0.4,0.4,0.8,0.8,0.8s0.8-0.4,0.8-0.8v-4h21v4c0,0.4,0.4,0.8,0.8,0.8s0.8-0.4,0.8-0.8v-4h8.1v4
				c0,0.4,0.4,0.8,0.8,0.8c0.4,0,0.8-0.4,0.8-0.8v-4h2.4c0.4,0,0.8,0.4,0.8,0.8V31h-2.4c-0.4,0-0.8,0.4-0.8,0.8v7.3h-0.8
				c-0.4,0-0.8,0.4-0.8,0.8s0.4,0.8,0.8,0.8h2.4v5.7c0,0.4-0.4,0.8-0.8,0.8H19.6v-4c0-0.4-0.4-0.8-0.8-0.8S18,42.7,18,43.1v4h-1.6
				v-4c0-0.4-0.4-0.8-0.8-0.8c-0.4,0-0.8,0.4-0.8,0.8v4h-1.6v-4c0-0.4-0.4-0.8-0.8-0.8s-0.8,0.4-0.8,0.8v4H4.3
				c-0.4,0-0.8-0.4-0.8-0.8v-3.2c0-0.4-0.4-0.8-0.8-0.8s-0.8,0.4-0.8,0.8v3.2c0,1.3,1.1,2.4,2.4,2.4h40.4c1.3,0,2.4-1.1,2.4-2.4
				v-5.7c0-1.1-0.8-1.6-1.6-1.6v-6.5h1.6c0.8,0,1.6-0.6,1.6-1.6v-5.7C48.8,24,47.7,22.9,46.3,22.9z"/>
			<path fill="#2D79B4" d="M31.8,40.7c0.4,0,0.8-0.4,0.8-0.8s-0.4-0.8-0.8-0.8h-8.9v-6.5h11.3v12.1c0,0.3,0.2,0.6,0.4,0.7
				c0.3,0.1,0.6,0.1,0.8,0l2-1.3l2,1.3c0.1,0.1,0.3,0.1,0.4,0.1c0.1,0,0.3,0,0.4-0.1c0.3-0.1,0.4-0.4,0.4-0.7V32.6h0.8
				c0.4,0,0.8-0.4,0.8-0.8c0-0.4-0.4-0.8-0.8-0.8H2.7c-1.4,0-2.4,1.1-2.4,2.4v4.9c0,1.3,1.1,2.4,2.4,2.4L31.8,40.7L31.8,40.7z
				 M35.8,32.6h3.2v10.6l-1.2-0.8c-0.3-0.2-0.6-0.2-0.9,0l-1.2,0.8L35.8,32.6L35.8,32.6z M9.9,32.6h11.3v6.5H9.9V32.6z M1.9,38.2
				v-4.9c0-0.5,0.3-0.8,0.8-0.8h5.7v6.5H2.7C2.2,39.1,1.9,38.7,1.9,38.2z"/>
			<path fill="#2D79B4" d="M17.2,34.2c-0.4,0-0.8,0.4-0.8,0.8v1.6c0,0.4,0.4,0.8,0.8,0.8s0.8-0.4,0.8-0.8V35
				C18,34.6,17.7,34.2,17.2,34.2z"/>
			<path fill="#2D79B4" d="M14,34.2c-0.4,0-0.8,0.4-0.8,0.8v1.6c0,0.4,0.4,0.8,0.8,0.8s0.8-0.4,0.8-0.8V35
				C14.8,34.6,14.4,34.2,14,34.2z"/>
		</g>
	</g>
</g>
</svg>
