<?xml version="1.0" encoding="utf-8"?>
<!-- Generator: Adobe Illustrator 18.1.0, SVG Export Plug-In . SVG Version: 6.00 Build 0)  -->
<svg version="1.1" id="Layer_1" xmlns="http://www.w3.org/2000/svg" xmlns:xlink="http://www.w3.org/1999/xlink" x="0px" y="0px"
	 width="49px" height="49px" viewBox="0 0 49 49" enable-background="new 0 0 49 49" xml:space="preserve">
<g>
	<g>
		<g>
			<path fill="#2D79B4" d="M9.5,32.2l-5.8,3.3c-0.4,0.2-0.5,0.7-0.3,1.1C3.6,36.9,3.9,37,4.2,37c0.1,0,0.3,0,0.4-0.1l5.8-3.3
				c0.4-0.2,0.5-0.7,0.3-1.1C10.4,32.1,9.9,32,9.5,32.2z"/>
			<path fill="#2D79B4" d="M11.6,24.5c0-0.4-0.4-0.8-0.8-0.8l-9.7,0c-0.4,0-0.8,0.4-0.8,0.8c0,0.4,0.4,0.8,0.8,0.8l9.7,0
				C11.2,25.3,11.6,24.9,11.6,24.5z"/>
			<path fill="#2D79B4" d="M14.1,8.1c0.1,0.3,0.4,0.4,0.7,0.4c0.1,0,0.3,0,0.4-0.1c0.4-0.2,0.5-0.7,0.3-1.1l-2-3.5
				c-0.2-0.4-0.7-0.5-1.1-0.3c-0.4,0.2-0.5,0.7-0.3,1.1L14.1,8.1z"/>
			<path fill="#2D79B4" d="M3.8,13.5l8.2,4.7c0.1,0.1,0.3,0.1,0.4,0.1c0.3,0,0.6-0.1,0.7-0.4c0.2-0.4,0.1-0.9-0.3-1.1l-8.2-4.7
				c-0.4-0.2-0.9-0.1-1.1,0.3C3.3,12.8,3.4,13.3,3.8,13.5z"/>
			<path fill="#2D79B4" d="M35.9,17.9c0.1,0.3,0.4,0.4,0.7,0.4c0.1,0,0.3,0,0.4-0.1l8.2-4.7c0.4-0.2,0.5-0.7,0.3-1.1
				c-0.2-0.4-0.7-0.5-1.1-0.3l-8.2,4.7C35.8,17,35.7,17.5,35.9,17.9z"/>
			<path fill="#2D79B4" d="M33.8,8.4c0.1,0.1,0.3,0.1,0.4,0.1c0.3,0,0.6-0.1,0.7-0.4l2-3.5c0.2-0.4,0.1-0.9-0.3-1.1
				c-0.4-0.2-0.9-0.1-1.1,0.3l-2,3.5C33.3,7.7,33.4,8.2,33.8,8.4z"/>
			<path fill="#2D79B4" d="M32.8,47.2c0,0-2.3-0.8-3.7-2.2c-1.5-1.5-2.2-2.9-2.2-4.3V26.1c0-0.2,0-1.6,1.2-1.6
				c0.9,0,1.2,1.7,1.2,1.7l0.8,10.5c0,0.4,0.4,0.8,0.9,0.7c0.4,0,0.8-0.4,0.7-0.9L31,26c-0.2-1.2-1-3.1-2.8-3.1
				c-2.2,0-2.8,2.1-2.8,3.2v14.6c0,1.8,0.9,3.7,2.7,5.4c1.7,1.7,4.3,2.6,4.4,2.6c0.1,0,0.2,0,0.3,0c0.3,0,0.7-0.2,0.8-0.6
				C33.5,47.8,33.3,47.3,32.8,47.2z"/>
			<path fill="#2D79B4" d="M20.9,22.9c-1.8,0-2.6,1.9-2.8,3.2l-0.8,10.5c0,0.4,0.3,0.8,0.7,0.9c0.4,0,0.8-0.3,0.9-0.7l0.8-10.4
				c0,0,0.3-1.8,1.2-1.8c1.1,0,1.2,1.4,1.2,1.6v14.6c0,1.4-0.7,2.8-2.2,4.3c-1.5,1.5-3.7,2.2-3.7,2.2c-0.4,0.1-0.7,0.6-0.5,1
				c0.1,0.3,0.4,0.6,0.8,0.6c0.1,0,0.2,0,0.3,0c0.1,0,2.6-0.9,4.4-2.6c1.8-1.8,2.7-3.6,2.7-5.4V26.1C23.7,25,23.1,22.9,20.9,22.9z"
				/>
			<path fill="#2D79B4" d="M46.8,47.3L37.1,40c-0.5-0.4-1.1-1.7-1.3-2.7l-2.4-16.2c-0.2-0.9-0.3-1.7-0.5-2.6
				c-1.4-7.4-2.3-11.8-5.1-11.8c-1.7,0-2.4,0.7-2.4,2.4c0,1.6,0.8,11.8,0.8,12.2c0,0.4,0.4,0.8,0.9,0.7c0.4,0,0.8-0.4,0.7-0.9
				c0-0.1-0.8-10.5-0.8-12.1c0-0.8,0-0.8,0.8-0.8c1.5,0,2.5,5.1,3.6,10.5c0.2,0.8,0.3,1.7,0.5,2.5l2.4,16.2c0.1,0.3,0.7,2.8,1.9,3.7
				l9.7,7.3c0.1,0.1,0.3,0.2,0.5,0.2c0.2,0,0.5-0.1,0.6-0.3C47.2,48.1,47.2,47.6,46.8,47.3z"/>
			<path fill="#2D79B4" d="M44.4,36.9c0.1,0.1,0.3,0.1,0.4,0.1c0.3,0,0.6-0.1,0.7-0.4c0.2-0.4,0.1-0.9-0.3-1.1l-5.8-3.3
				c-0.4-0.2-0.9-0.1-1.1,0.3c-0.2,0.4-0.1,0.9,0.3,1.1L44.4,36.9z"/>
			<path fill="#2D79B4" d="M48,23.7h-9.7c-0.4,0-0.8,0.4-0.8,0.8s0.4,0.8,0.8,0.8H48c0.4,0,0.8-0.4,0.8-0.8
				C48.8,24.1,48.4,23.7,48,23.7z"/>
			<path fill="#2D79B4" d="M25.3,1.1c0-0.4-0.4-0.8-0.8-0.8c-0.4,0-0.8,0.4-0.8,0.8v2.4c0,0.4,0.4,0.8,0.8,0.8s0.8-0.4,0.8-0.8V1.1z
				"/>
			<path fill="#2D79B4" d="M21.3,6.7c-2.8,0-3.7,4.5-5.1,11.8c-0.2,0.8-0.3,1.7-0.5,2.6l-2.4,16.2c-0.1,1-0.8,2.3-1.3,2.7l-9.7,7.3
				c-0.4,0.3-0.4,0.8-0.2,1.1c0.2,0.2,0.4,0.3,0.6,0.3c0.2,0,0.3-0.1,0.5-0.2l9.6-7.2c1.1-0.7,1.8-2.7,2-3.8l2.4-16.1
				c0.2-0.9,0.3-1.7,0.5-2.6c1.1-5.4,2.1-10.5,3.6-10.5c0.8,0,0.8,0,0.8,0.8c0,1.6-0.8,12-0.8,12.1c0,0.4,0.3,0.8,0.7,0.9
				c0.4,0,0.8-0.3,0.9-0.7c0-0.4,0.8-10.6,0.8-12.2C23.7,7.4,23,6.7,21.3,6.7z"/>
		</g>
	</g>
</g>
</svg>
