<?xml version="1.0" encoding="utf-8"?>
<!-- Generator: Adobe Illustrator 18.1.0, SVG Export Plug-In . SVG Version: 6.00 Build 0)  -->
<svg version="1.1" id="Layer_1" xmlns="http://www.w3.org/2000/svg" xmlns:xlink="http://www.w3.org/1999/xlink" x="0px" y="0px"
	 width="49px" height="49px" viewBox="0 0 49 49" enable-background="new 0 0 49 49" xml:space="preserve">
<g>
	<g>
		<g>
			<path fill="#2D79B4" d="M24.5,39.1c-0.4,0-0.8,0.4-0.8,0.8V42l-5.4,5.4c-0.3,0.3-0.3,0.8,0,1.1c0.2,0.2,0.4,0.2,0.6,0.2
				c0.2,0,0.4-0.1,0.6-0.2l5.7-5.7c0.2-0.2,0.2-0.4,0.2-0.6v-2.4C25.3,39.4,24.9,39.1,24.5,39.1z"/>
			<path fill="#2D79B4" d="M48,1.9H25.3V1c0-0.4-0.4-0.8-0.8-0.8S23.7,0.6,23.7,1v0.8H1c-0.4,0-0.8,0.4-0.8,0.8v3.2
				c0,0.4,0.4,0.8,0.8,0.8h42c0.4,0,0.8-0.4,0.8-0.8s-0.4-0.8-0.8-0.8H1.9V3.5h45.3v1.6h-0.8c-0.4,0-0.8,0.4-0.8,0.8v27.5
				c0,1.3-1.1,2.4-2.4,2.4H5.9c-1.3,0-2.4-1.1-2.4-2.4V9.1c0-0.4-0.4-0.8-0.8-0.8S1.9,8.7,1.9,9.1v24.3c0,2.2,1.8,4,4,4h37.2
				c2.2,0,4-1.8,4-4V6.7H48c0.4,0,0.8-0.4,0.8-0.8V2.7C48.8,2.2,48.4,1.9,48,1.9z"/>
			<path fill="#2D79B4" d="M27.5,44.1c-0.3-0.3-0.8-0.3-1.1,0c-0.3,0.3-0.3,0.8,0,1.1l3.2,3.2c0.2,0.2,0.4,0.2,0.6,0.2
				c0.2,0,0.4-0.1,0.6-0.2c0.3-0.3,0.3-0.8,0-1.1L27.5,44.1z"/>
			<path fill="#2D79B4" d="M23.7,9.9c-5.8,0-10.5,4.7-10.5,10.5S17.9,31,23.7,31c0.4,0,0.8-0.4,0.8-0.8v-8.9h8.9c0,0,0,0,0,0
				c0.4,0,0.8-0.4,0.8-0.8c0-0.1,0-0.1,0-0.2C34.1,14.6,29.4,9.9,23.7,9.9z M23.7,19.6c-0.4,0-0.8,0.4-0.8,0.8v8.9
				c-4.5-0.4-8.1-4.2-8.1-8.9c0-4.9,4-8.9,8.9-8.9c4.6,0,8.4,3.6,8.9,8.1L23.7,19.6L23.7,19.6z"/>
			<path fill="#2D79B4" d="M26.1,23.7v7.9c0,0.2,0.1,0.5,0.3,0.6c0.1,0.1,0.3,0.2,0.5,0.2c0,0,0.1,0,0.1,0c4.4-0.7,7.9-4.2,8.6-8.6
				c0-0.2,0-0.5-0.2-0.7c-0.2-0.2-0.4-0.3-0.6-0.3h-7.9C26.5,22.9,26.1,23.2,26.1,23.7z M27.7,24.5h6.1c-0.8,3-3.2,5.3-6.1,6.1V24.5
				z"/>
		</g>
	</g>
</g>
</svg>
