<?xml version="1.0" encoding="utf-8"?>
<!-- Generator: Adobe Illustrator 18.1.0, SVG Export Plug-In . SVG Version: 6.00 Build 0)  -->
<svg version="1.1" id="Layer_1" xmlns="http://www.w3.org/2000/svg" xmlns:xlink="http://www.w3.org/1999/xlink" x="0px" y="0px"
	 width="49px" height="49px" viewBox="0 0 49 49" enable-background="new 0 0 49 49" xml:space="preserve">
<g>
	<g>
		<g>
			<path fill="#2D79B4" d="M10.8,22.9h2.4c0.4,0,0.8-0.4,0.8-0.8c0-0.4-0.4-0.8-0.8-0.8h-2.4c-0.4,0-0.8,0.4-0.8,0.8
				C9.9,22.5,10.3,22.9,10.8,22.9z"/>
			<path fill="#2D79B4" d="M10.8,13.2h6.5c0.4,0,0.8-0.4,0.8-0.8s-0.4-0.8-0.8-0.8h-6.5c-0.4,0-0.8,0.4-0.8,0.8S10.3,13.2,10.8,13.2
				z"/>
			<path fill="#2D79B4" d="M25.3,21.3h-8.1c-0.4,0-0.8,0.4-0.8,0.8c0,0.4,0.4,0.8,0.8,0.8h8.1c0.4,0,0.8-0.4,0.8-0.8
				C26.1,21.6,25.8,21.3,25.3,21.3z"/>
			<path fill="#2D79B4" d="M24.5,35.8H5.9c-1.4,0-2.4-1-2.4-2.4V9.1c0-0.4-0.4-0.8-0.8-0.8S1.9,8.7,1.9,9.1v24.3c0,2.3,1.8,4,4,4
				h18.6c0.4,0,0.8-0.4,0.8-0.8C25.3,36.2,24.9,35.8,24.5,35.8z"/>
			<path fill="#2D79B4" d="M10.8,18h14.6c0.4,0,0.8-0.4,0.8-0.8c0-0.4-0.4-0.8-0.8-0.8H10.8c-0.4,0-0.8,0.4-0.8,0.8
				C9.9,17.7,10.3,18,10.8,18z"/>
			<path fill="#2D79B4" d="M32.6,26.8c-0.1-0.4-0.4-0.7-0.8-0.7h-21c-0.4,0-0.8,0.4-0.8,0.8c0,2,1.9,5.7,5.7,5.7h10.6L27.7,48
				c0,0.4,0.4,0.7,0.8,0.7c0,0,0.1,0,0.1,0c0.4,0,0.8-0.4,0.7-0.9l-1.6-16.2c0-0.4-0.4-0.7-0.8-0.7H18v-3.2h13l2.3,17.1
				c0.1,0.4,0.5,0.8,0.9,0.7c0.4-0.1,0.8-0.5,0.7-0.9L32.6,26.8z M16.4,31h-0.8c-2.3,0-3.5-1.9-3.9-3.2h4.7L16.4,31L16.4,31z"/>
			<path fill="#2D79B4" d="M23.7,13.2c0.4,0,0.8-0.4,0.8-0.8s-0.4-0.8-0.8-0.8h-3.2c-0.4,0-0.8,0.4-0.8,0.8s0.4,0.8,0.8,0.8H23.7z"
				/>
			<path fill="#2D79B4" d="M34.2,14.8h-0.8c-0.4,0-0.8,0.4-0.8,0.8s0.4,0.8,0.8,0.8h0.8c0.4,0,0.8-0.4,0.8-0.8
				C35,15.2,34.6,14.8,34.2,14.8z"/>
			<path fill="#2D79B4" d="M39.9,26.1c-0.4,0-0.8,0.3-0.9,0.7l-2.4,17.8c-0.1,0.4,0.2,0.8,0.7,0.9c0,0,0.1,0,0.1,0
				c0.4,0,0.7-0.3,0.8-0.7l2.3-17.1c2.8,0.1,4.7,0.6,5.7,1.6c0.6,0.6,0.9,1.4,0.9,2.4v12.9c0,0.4,0.4,0.8,0.8,0.8
				c0.4,0,0.8-0.4,0.8-0.8V31.8c0-1.5-0.5-2.7-1.4-3.6C46,26.8,43.6,26.1,39.9,26.1z"/>
			<path fill="#2D79B4" d="M48,1.9H25.3V1c0-0.4-0.4-0.8-0.8-0.8c-0.4,0-0.8,0.4-0.8,0.8v0.8H1c-0.4,0-0.8,0.4-0.8,0.8v3.2
				c0,0.4,0.4,0.8,0.8,0.8h42c0.4,0,0.8-0.4,0.8-0.8s-0.4-0.8-0.8-0.8H1.9V3.5h45.3v1.6h-0.8c-0.4,0-0.8,0.4-0.8,0.8v19.4
				c0,0.4,0.4,0.8,0.8,0.8c0.4,0,0.8-0.4,0.8-0.8V6.7H48c0.4,0,0.8-0.4,0.8-0.8V2.7C48.8,2.2,48.4,1.9,48,1.9z"/>
			<path fill="#2D79B4" d="M43.1,35.8c-0.4,0-0.8,0.4-0.8,0.8V48c0,0.4,0.4,0.8,0.8,0.8c0.4,0,0.8-0.4,0.8-0.8V36.6
				C43.9,36.2,43.5,35.8,43.1,35.8z"/>
			<path fill="#2D79B4" d="M37.4,27.7c0-0.9-0.7-1.6-1.6-1.6c-0.9,0-1.6,0.7-1.6,1.6c0,0.6,0.3,1.1,0.8,1.4V35
				c0,0.4,0.4,0.8,0.8,0.8s0.8-0.4,0.8-0.8v-5.9C37.1,28.8,37.4,28.3,37.4,27.7z"/>
			<path fill="#2D79B4" d="M38.2,14.8h-0.8c-0.4,0-0.8,0.4-0.8,0.8s0.4,0.8,0.8,0.8h0.8c0.4,0,0.8-0.4,0.8-0.8
				C39.1,15.2,38.7,14.8,38.2,14.8z"/>
			<path fill="#2D79B4" d="M37.4,8.3h-3.2c-2.7,0-4.9,2.2-4.9,4.9v0.2c-0.5,0.3-0.8,0.8-0.8,1.4v1.6c0,0.6,0.3,1.1,0.8,1.4
				c0.2,1.6,0.8,2.9,0.9,3c0.7,1.5,1.8,3.7,5.6,3.7s4.8-2.2,5.6-3.7c0-0.1,0.7-1.4,0.9-3c0.5-0.3,0.8-0.8,0.8-1.4v-1.6
				c0-0.6-0.3-1.1-0.8-1.4v-0.2C42.3,10.5,40.1,8.3,37.4,8.3z M41.5,16.4c-0.4,0-0.8,0.4-0.8,0.8c0,1.4-0.7,2.9-0.7,2.9
				c-0.8,1.7-1.6,2.8-4.1,2.8c-2.5,0-3.3-1.1-4.1-2.8c0,0-0.7-1.5-0.7-2.9c0-0.4-0.4-0.8-0.8-0.8v-1.6c0.4,0,0.8-0.4,0.8-0.8v-0.8
				c0-1.8,1.5-3.2,3.2-3.2h3.2c1.8,0,3.2,1.5,3.2,3.2V14c0,0.4,0.4,0.8,0.8,0.8L41.5,16.4L41.5,16.4z"/>
		</g>
	</g>
</g>
</svg>
