<?xml version="1.0" encoding="utf-8"?>
<!-- Generator: Adobe Illustrator 18.1.0, SVG Export Plug-In . SVG Version: 6.00 Build 0)  -->
<svg version="1.1" id="Layer_1" xmlns="http://www.w3.org/2000/svg" xmlns:xlink="http://www.w3.org/1999/xlink" x="0px" y="0px"
	 width="49px" height="49px" viewBox="0 0 49 49" enable-background="new 0 0 49 49" xml:space="preserve">
<g>
	<g>
		<g>
			<path fill="#2D79B4" d="M28.5,42.3h-8.1c-0.4,0-0.8,0.4-0.8,0.8s0.4,0.8,0.8,0.8h8.1c0.4,0,0.8-0.4,0.8-0.8
				C29.4,42.7,29,42.3,28.5,42.3z"/>
			<path fill="#2D79B4" d="M9.5,1.9H4.3c-2.2,0-4,1.8-4,4v35.6c0,2.2,1.8,4,4,4h4.9c0.4,0,0.8-0.4,0.8-0.8c0-0.4-0.4-0.8-0.8-0.8
				H4.3c-1.3,0-2.4-1.1-2.4-2.4V5.9c0-1.3,1.1-2.4,2.4-2.4h5.3c0.4,0,0.8-0.4,0.8-0.8C10.3,2.2,10,1.9,9.5,1.9z"/>
			<path fill="#2D79B4" d="M28.5,39.1h-8.1c-0.4,0-0.8,0.4-0.8,0.8c0,0.4,0.4,0.8,0.8,0.8h8.1c0.4,0,0.8-0.4,0.8-0.8
				C29.4,39.4,29,39.1,28.5,39.1z"/>
			<path fill="#2D79B4" d="M33.4,22.9H15.6c-0.4,0-0.8,0.4-0.8,0.8c0,0.4,0.4,0.8,0.8,0.8h17.8c0.4,0,0.8-0.4,0.8-0.8
				C34.2,23.2,33.8,22.9,33.4,22.9z"/>
			<path fill="#2D79B4" d="M25.3,20.5c0-0.4-0.4-0.8-0.8-0.8h0c-0.4,0-0.8,0.4-0.8,0.8c0,0.4,0.4,0.8,0.8,0.8
				C25,21.3,25.3,20.9,25.3,20.5z"/>
			<path fill="#2D79B4" d="M26.1,34.2c0-0.9-0.7-1.6-1.6-1.6c-0.9,0-1.6,0.7-1.6,1.6s0.7,1.6,1.6,1.6C25.4,35.8,26.1,35.1,26.1,34.2
				z"/>
			<path fill="#2D79B4" d="M9.2,6.7L9.2,6.7c-0.5,0-0.8,0.4-0.8,0.8c0,0.4,0.4,0.8,0.8,0.8C9.6,8.3,10,8,10,7.5
				C10,7.1,9.6,6.7,9.2,6.7z"/>
			<path fill="#2D79B4" d="M9.1,39.1H7.5c-0.4,0-0.8,0.4-0.8,0.8c0,0.4,0.4,0.8,0.8,0.8h1.6c0.4,0,0.8-0.4,0.8-0.8
				C9.9,39.4,9.6,39.1,9.1,39.1z"/>
			<path fill="#2D79B4" d="M9.2,13.2L9.2,13.2c-0.5,0-0.8,0.4-0.8,0.8s0.4,0.8,0.8,0.8c0.4,0,0.8-0.4,0.8-0.8S9.6,13.2,9.2,13.2z"/>
			<path fill="#2D79B4" d="M9.1,35.8H7.5c-0.4,0-0.8,0.4-0.8,0.8c0,0.4,0.4,0.8,0.8,0.8h1.6c0.4,0,0.8-0.4,0.8-0.8
				C9.9,36.2,9.6,35.8,9.1,35.8z"/>
			<path fill="#2D79B4" d="M9.1,22.9H4.3c-0.4,0-0.8,0.4-0.8,0.8c0,0.4,0.4,0.8,0.8,0.8h4.9c0.4,0,0.8-0.4,0.8-0.8
				C9.9,23.2,9.6,22.9,9.1,22.9z"/>
			<path fill="#2D79B4" d="M4.3,18h4.9c0.4,0,0.8-0.4,0.8-0.8c0-0.4-0.4-0.8-0.8-0.8H4.3c-0.4,0-0.8,0.4-0.8,0.8
				C3.5,17.7,3.8,18,4.3,18z"/>
			<path fill="#2D79B4" d="M9.2,19.6L9.2,19.6c-0.5,0-0.8,0.4-0.8,0.8c0,0.4,0.4,0.8,0.8,0.8c0.4,0,0.8-0.4,0.8-0.8
				C10,20,9.6,19.6,9.2,19.6z"/>
			<path fill="#2D79B4" d="M4.3,11.6h4.9c0.4,0,0.8-0.4,0.8-0.8c0-0.4-0.4-0.8-0.8-0.8H4.3c-0.4,0-0.8,0.4-0.8,0.8
				C3.5,11.2,3.8,11.6,4.3,11.6z"/>
			<path fill="#2D79B4" d="M33.4,0.2H15.6c-2.2,0-4,1.8-4,4v40.4c0,2.2,1.8,4,4,4h17.8c2.2,0,4-1.8,4-4V4.3
				C37.4,2.1,35.6,0.2,33.4,0.2z M35.8,44.7c0,1.3-1.1,2.4-2.4,2.4H15.6c-1.3,0-2.4-1.1-2.4-2.4V4.3c0-1.3,1.1-2.4,2.4-2.4h17.8
				c1.3,0,2.4,1.1,2.4,2.4L35.8,44.7L35.8,44.7z"/>
			<path fill="#2D79B4" d="M39.9,18h4.9c0.4,0,0.8-0.4,0.8-0.8c0-0.4-0.4-0.8-0.8-0.8h-4.9c-0.4,0-0.8,0.4-0.8,0.8
				C39.1,17.7,39.4,18,39.9,18z"/>
			<path fill="#2D79B4" d="M39.9,13.2c-0.4,0-0.8,0.4-0.8,0.8s0.4,0.8,0.8,0.8c0.4,0,0.8-0.4,0.8-0.8S40.3,13.2,39.9,13.2L39.9,13.2
				z"/>
			<path fill="#2D79B4" d="M39.9,19.6c-0.4,0-0.8,0.4-0.8,0.8c0,0.4,0.4,0.8,0.8,0.8c0.4,0,0.8-0.4,0.8-0.8
				C40.7,20,40.3,19.6,39.9,19.6L39.9,19.6z"/>
			<path fill="#2D79B4" d="M39.9,8.3c0.4,0,0.8-0.4,0.8-0.8c0-0.4-0.4-0.8-0.8-0.8h0c-0.4,0-0.8,0.4-0.8,0.8
				C39.1,8,39.4,8.3,39.9,8.3z"/>
			<path fill="#2D79B4" d="M39.9,24.5h4.9c0.4,0,0.8-0.4,0.8-0.8c0-0.4-0.4-0.8-0.8-0.8h-4.9c-0.4,0-0.8,0.4-0.8,0.8
				C39.1,24.1,39.4,24.5,39.9,24.5z"/>
			<path fill="#2D79B4" d="M39.9,40.7h1.6c0.4,0,0.8-0.4,0.8-0.8c0-0.4-0.4-0.8-0.8-0.8h-1.6c-0.4,0-0.8,0.4-0.8,0.8
				C39.1,40.3,39.4,40.7,39.9,40.7z"/>
			<path fill="#2D79B4" d="M39.9,37.4h1.6c0.4,0,0.8-0.4,0.8-0.8c0-0.4-0.4-0.8-0.8-0.8h-1.6c-0.4,0-0.8,0.4-0.8,0.8
				C39.1,37.1,39.4,37.4,39.9,37.4z"/>
			<path fill="#2D79B4" d="M44.7,1.9h-5.3c-0.4,0-0.8,0.4-0.8,0.8s0.4,0.8,0.8,0.8h5.3c1.3,0,2.4,1.1,2.4,2.4v35.6
				c0,1.3-1.1,2.4-2.4,2.4h-4.9c-0.4,0-0.8,0.4-0.8,0.8c0,0.4,0.4,0.8,0.8,0.8h4.9c2.2,0,4-1.8,4-4V5.9C48.8,3.7,46.9,1.9,44.7,1.9z
				"/>
			<path fill="#2D79B4" d="M25.3,7.5c0-0.4-0.4-0.8-0.8-0.8h0c-0.4,0-0.8,0.4-0.8,0.8c0,0.4,0.4,0.8,0.8,0.8C25,8.3,25.3,8,25.3,7.5
				z"/>
			<path fill="#2D79B4" d="M33.4,9.9H15.6c-0.4,0-0.8,0.4-0.8,0.8s0.4,0.8,0.8,0.8h17.8c0.4,0,0.8-0.4,0.8-0.8S33.8,9.9,33.4,9.9z"
				/>
			<path fill="#2D79B4" d="M25.3,14c0-0.4-0.4-0.8-0.8-0.8h0c-0.4,0-0.8,0.4-0.8,0.8s0.4,0.8,0.8,0.8C25,14.8,25.3,14.4,25.3,14z"/>
			<path fill="#2D79B4" d="M39.9,11.6h4.9c0.4,0,0.8-0.4,0.8-0.8c0-0.4-0.4-0.8-0.8-0.8h-4.9c-0.4,0-0.8,0.4-0.8,0.8
				C39.1,11.2,39.4,11.6,39.9,11.6z"/>
			<path fill="#2D79B4" d="M33.4,3.5H15.6c-0.4,0-0.8,0.4-0.8,0.8s0.4,0.8,0.8,0.8h17.8c0.4,0,0.8-0.4,0.8-0.8
				C34.2,3.8,33.8,3.5,33.4,3.5z"/>
			<path fill="#2D79B4" d="M33.4,16.4H15.6c-0.4,0-0.8,0.4-0.8,0.8c0,0.4,0.4,0.8,0.8,0.8h17.8c0.4,0,0.8-0.4,0.8-0.8
				C34.2,16.8,33.8,16.4,33.4,16.4z"/>
		</g>
	</g>
</g>
</svg>
