<?xml version="1.0" encoding="utf-8"?>
<!-- Generator: Adobe Illustrator 18.1.0, SVG Export Plug-In . SVG Version: 6.00 Build 0)  -->
<svg version="1.1" id="Layer_1" xmlns="http://www.w3.org/2000/svg" xmlns:xlink="http://www.w3.org/1999/xlink" x="0px" y="0px"
	 width="49px" height="49px" viewBox="0 0 49 49" enable-background="new 0 0 49 49" xml:space="preserve">
<g>
	<g>
		<g>
			<path fill="#2D79B4" d="M36.6,45.5c0.2,0,0.4-0.1,0.6-0.2l4.9-4.9c0.2-0.2,0.2-0.4,0.2-0.6V7.5c0-0.4-0.4-0.8-0.8-0.8h-4.9
				c-0.4,0-0.8,0.4-0.8,0.8c0,0.4,0.4,0.8,0.8,0.8h4v31.2l-4.6,4.6c-0.3,0.3-0.3,0.8,0,1.1C36.2,45.4,36.4,45.5,36.6,45.5z"/>
			<path fill="#2D79B4" d="M12.4,8.3c0.4,0,0.8-0.4,0.8-0.8c0-0.4-0.4-0.8-0.8-0.8H7.5c-0.4,0-0.8,0.4-0.8,0.8v34.8
				c0,1.8,1.5,3.2,3.2,3.2h23.5c0.4,0,0.8-0.4,0.8-0.8v-4.9c0-0.4,0.4-0.8,0.8-0.8h3.2c0.4,0,0.8-0.4,0.8-0.8s-0.4-0.8-0.8-0.8H35
				c-1.3,0-2.4,1.1-2.4,2.4v4H9.9c-0.9,0-1.6-0.7-1.6-1.6v-34L12.4,8.3L12.4,8.3z"/>
			<path fill="#2D79B4" d="M24.5,3.5c-0.9,0-1.6,0.7-1.6,1.6c0,0.9,0.7,1.6,1.6,1.6c0.9,0,1.6-0.7,1.6-1.6
				C26.1,4.2,25.4,3.5,24.5,3.5z"/>
			<path fill="#2D79B4" d="M41.5,3.5h-4.9c-0.4,0-0.8,0.4-0.8,0.8s0.4,0.8,0.8,0.8h4.9c1.2,0,2.4,1.2,2.4,2.4v37.2
				c0,1.2-1.2,2.4-2.4,2.4h-34c-1.2,0-2.4-1.2-2.4-2.4V7.5c0-1.2,1.2-2.4,2.4-2.4h4.9c0.4,0,0.8-0.4,0.8-0.8s-0.4-0.8-0.8-0.8H7.5
				c-2.1,0-4,2-4,4v37.2c0,2.1,2,4,4,4h34c2.1,0,4-2,4-4V7.5C45.5,5.4,43.6,3.5,41.5,3.5z"/>
			<path fill="#2D79B4" d="M9.9,26.9c0,0.4,0.4,0.8,0.8,0.8H14c0.3,0,0.7-0.2,0.8-0.6l2.5-7.4l5.7,17.1c0.1,0.3,0.4,0.5,0.7,0.6h0
				c0.3,0,0.6-0.2,0.8-0.5l5-12.9l1.6,3.2c0.1,0.3,0.4,0.4,0.7,0.4h2.6c0.3,0.9,1.2,1.6,2.3,1.6c1.3,0,2.4-1.1,2.4-2.4
				c0-1.3-1.1-2.4-2.4-2.4c-1.1,0-1.9,0.7-2.3,1.6h-2.1l-2.2-4.4c-0.1-0.3-0.5-0.5-0.8-0.4c-0.3,0-0.6,0.2-0.7,0.5l-4.8,12.5L18,17
				c-0.1-0.3-0.4-0.6-0.8-0.6c-0.3,0-0.7,0.2-0.8,0.6l-3.1,9.2h-2.7C10.3,26.1,9.9,26.5,9.9,26.9z M36.6,26.1c0.4,0,0.8,0.4,0.8,0.8
				c0,0.4-0.4,0.8-0.8,0.8s-0.8-0.4-0.8-0.8C35.8,26.5,36.2,26.1,36.6,26.1z"/>
			<path fill="#2D79B4" d="M15.6,9.9h17.8c0.4,0,0.8-0.4,0.8-0.8V4.3c0-0.4-0.4-0.8-0.8-0.8h-4.3c-0.7-1.9-2.5-3.2-4.6-3.2
				s-3.9,1.3-4.6,3.2h-4.3c-0.4,0-0.8,0.4-0.8,0.8v4.9C14.8,9.6,15.2,9.9,15.6,9.9z M16.4,5.1h4.1c0.4,0,0.7-0.3,0.8-0.6
				c0.3-1.5,1.6-2.6,3.2-2.6c1.5,0,2.9,1.1,3.2,2.6c0.1,0.4,0.4,0.6,0.8,0.6h4.1v3.2H16.4V5.1z"/>
		</g>
	</g>
</g>
</svg>
