<?xml version="1.0" encoding="utf-8"?>
<!-- Generator: Adobe Illustrator 18.1.0, SVG Export Plug-In . SVG Version: 6.00 Build 0)  -->
<svg version="1.1" id="Layer_1" xmlns="http://www.w3.org/2000/svg" xmlns:xlink="http://www.w3.org/1999/xlink" x="0px" y="0px"
	 width="49px" height="49px" viewBox="0 0 49 49" enable-background="new 0 0 49 49" xml:space="preserve">
<g>
	<g>
		<g>
			<path fill="#2D79B4" d="M26.9,3.5h-4.9c-2.2,0-4,1.8-4,4c0,0.4,0.4,0.8,0.8,0.8c0.4,0,0.8-0.4,0.8-0.8c0-1.3,1.1-2.4,2.4-2.4h4.9
				c1.3,0,2.4,1.1,2.4,2.4c0,0.4,0.4,0.8,0.8,0.8C30.6,8.3,31,8,31,7.5C31,5.3,29.2,3.5,26.9,3.5z"/>
			<path fill="#2D79B4" d="M15.6,8.3c0.4,0,0.8-0.4,0.8-0.8c0-2.9,2.8-5.7,5.7-5.7h4.9c3,0,5.7,2.7,5.7,5.7c0,0.4,0.4,0.8,0.8,0.8
				s0.8-0.4,0.8-0.8c0-3.9-3.4-7.3-7.3-7.3h-4.9c-3.8,0-7.3,3.5-7.3,7.3C14.8,8,15.2,8.3,15.6,8.3z"/>
			<path fill="#2D79B4" d="M48,35c-0.4,0-0.8,0.4-0.8,0.8v8.9c0,1.3-1.1,2.4-2.4,2.4H4.3c-1.3,0-2.4-1.1-2.4-2.4v-8.9
				C1.9,35.4,1.5,35,1,35s-0.8,0.4-0.8,0.8v8.9c0,2.2,1.8,4,4,4h40.4c2.2,0,4-1.8,4-4v-8.9C48.8,35.4,48.4,35,48,35z"/>
			<path fill="#2D79B4" d="M44.7,9.9H4.3c-2.2,0-4,1.8-4,4v16.2c0,2.2,1.8,4,4,4h17.8c0.4,0,0.8-0.4,0.8-0.8v-7.3h3.2v7.3
				c0,0.4,0.4,0.8,0.8,0.8h17.8c2.2,0,4-1.8,4-4V14C48.8,11.8,46.9,9.9,44.7,9.9z M47.1,30.2c0,1.3-1.1,2.4-2.4,2.4h-17v-6.5
				c0-0.9-0.7-1.6-1.6-1.6h-3.2c-0.9,0-1.6,0.7-1.6,1.6v6.5h-17c-1.3,0-2.4-1.1-2.4-2.4V14c0-1.3,1.1-2.4,2.4-2.4h4v18.6
				c0,0.4,0.4,0.8,0.8,0.8c0.4,0,0.8-0.4,0.8-0.8V11.6h29.1v18.6c0,0.4,0.4,0.8,0.8,0.8s0.8-0.4,0.8-0.8V11.6h4
				c1.3,0,2.4,1.1,2.4,2.4L47.1,30.2L47.1,30.2z"/>
			<path fill="#2D79B4" d="M25.3,37.4c0-0.4-0.4-0.8-0.8-0.8h0c-0.4,0-0.8,0.4-0.8,0.8c0,0.4,0.4,0.8,0.8,0.8
				C25,38.2,25.3,37.9,25.3,37.4z"/>
			<path fill="#2D79B4" d="M22.1,35.8c-0.4,0-0.8,0.4-0.8,0.8v2.4c0,0.9,0.7,1.6,1.6,1.6h3.2c0.9,0,1.6-0.7,1.6-1.6v-2.4
				c0-0.4-0.4-0.8-0.8-0.8s-0.8,0.4-0.8,0.8v2.4h-3.2v-2.4C22.9,36.2,22.5,35.8,22.1,35.8z"/>
		</g>
	</g>
</g>
</svg>
