<?xml version="1.0" encoding="utf-8"?>
<!-- Generator: Adobe Illustrator 18.1.0, SVG Export Plug-In . SVG Version: 6.00 Build 0)  -->
<svg version="1.1" id="Layer_1" xmlns="http://www.w3.org/2000/svg" xmlns:xlink="http://www.w3.org/1999/xlink" x="0px" y="0px"
	 width="49px" height="49px" viewBox="0 0 49 49" enable-background="new 0 0 49 49" xml:space="preserve">
<g>
	<g>
		<g>
			<path fill="#2D79B4" d="M18,30.2c0,0.4,0.4,0.8,0.8,0.8h3.2c0.4,0,0.8-0.4,0.8-0.8v-4.9c0-0.4-0.4-0.8-0.8-0.8h-3.2
				c-0.4,0-0.8,0.4-0.8,0.8L18,30.2L18,30.2z M19.6,26.1h1.6v3.2h-1.6V26.1z"/>
			<path fill="#2D79B4" d="M18.8,21.3h3.2c0.4,0,0.8-0.4,0.8-0.8v-4.9c0-0.4-0.4-0.8-0.8-0.8h-3.2c-0.4,0-0.8,0.4-0.8,0.8v4.9
				C18,20.9,18.4,21.3,18.8,21.3z M19.6,16.4h1.6v3.2h-1.6V16.4z"/>
			<path fill="#2D79B4" d="M12.8,15.5l11.7-7l11.7,7c0.1,0.1,0.3,0.1,0.4,0.1c0.3,0,0.5-0.1,0.7-0.4c0.2-0.4,0.1-0.9-0.3-1.1
				l-11.7-7V1.9h4v1.6h-2.4c-0.4,0-0.8,0.4-0.8,0.8s0.4,0.8,0.8,0.8h3.2c0.4,0,0.8-0.4,0.8-0.8V1c0-0.4-0.4-0.8-0.8-0.8h-5.7
				c-0.4,0-0.8,0.4-0.8,0.8v6l-11.7,7c-0.4,0.2-0.5,0.7-0.3,1.1C11.9,15.6,12.4,15.7,12.8,15.5z"/>
			<path fill="#2D79B4" d="M9.1,31c0.4,0,0.8-0.4,0.8-0.8v-4.9c0-0.4-0.4-0.8-0.8-0.8H5.9c-0.4,0-0.8,0.4-0.8,0.8v1.6
				c0,0.4,0.4,0.8,0.8,0.8c0.4,0,0.8-0.4,0.8-0.8v-0.8h1.6v4C8.3,30.6,8.7,31,9.1,31z"/>
			<path fill="#2D79B4" d="M14.8,41.5V18c0-0.4-0.4-0.8-0.8-0.8s-0.8,0.4-0.8,0.8v23.5c0,0.4,0.4,0.8,0.8,0.8
				C14.4,42.3,14.8,41.9,14.8,41.5z"/>
			<path fill="#2D79B4" d="M10.8,45.5h27.5c0.4,0,0.8-0.4,0.8-0.8c0-0.4-0.4-0.8-0.8-0.8H31v-8.1h0.8c0.4,0,0.8-0.4,0.8-0.8
				s-0.4-0.8-0.8-0.8H17.2c-0.4,0-0.8,0.4-0.8,0.8s0.4,0.8,0.8,0.8H18v8.1h-7.3c-0.4,0-0.8,0.4-0.8,0.8
				C9.9,45.2,10.3,45.5,10.8,45.5z M25.3,40.7c0.4,0,0.8-0.4,0.8-0.8s-0.4-0.8-0.8-0.8v-3.2h4v8.1h-4L25.3,40.7L25.3,40.7z
				 M19.6,35.8h4v3.2c-0.4,0-0.8,0.4-0.8,0.8s0.4,0.8,0.8,0.8v3.2h-4V35.8z"/>
			<path fill="#2D79B4" d="M43.1,35h-3.2c-0.4,0-0.8,0.4-0.8,0.8v4.9c0,0.4,0.4,0.8,0.8,0.8h3.2c0.4,0,0.8-0.4,0.8-0.8v-4.9
				C43.9,35.4,43.5,35,43.1,35z M42.3,39.9h-1.6v-3.2h1.6V39.9z"/>
			<path fill="#2D79B4" d="M43.1,25.3h-3.2c-0.4,0-0.8,0.4-0.8,0.8V31c0,0.4,0.4,0.8,0.8,0.8h3.2c0.4,0,0.8-0.4,0.8-0.8v-4.9
				C43.9,25.7,43.5,25.3,43.1,25.3z M42.3,30.2h-1.6v-3.2h1.6V30.2z"/>
			<path fill="#2D79B4" d="M41.5,47.1h-34c-0.4,0-0.8,0.4-0.8,0.8c0,0.4,0.4,0.8,0.8,0.8h34c0.4,0,0.8-0.4,0.8-0.8
				C42.3,47.5,41.9,47.1,41.5,47.1z"/>
			<path fill="#2D79B4" d="M48,18c-0.4,0-0.8,0.4-0.8,0.8v0.8h-8.9c-0.4,0-0.8,0.4-0.8,0.8c0,0.4,0.4,0.8,0.8,0.8h8.9V48
				c0,0.4,0.4,0.8,0.8,0.8s0.8-0.4,0.8-0.8V18.8C48.8,18.4,48.4,18,48,18z"/>
			<path fill="#2D79B4" d="M26.1,30.2c0,0.4,0.4,0.8,0.8,0.8h3.2c0.4,0,0.8-0.4,0.8-0.8v-4.9c0-0.4-0.4-0.8-0.8-0.8h-3.2
				c-0.4,0-0.8,0.4-0.8,0.8L26.1,30.2L26.1,30.2z M27.7,26.1h1.6v3.2h-1.6L27.7,26.1L27.7,26.1z"/>
			<path fill="#2D79B4" d="M8.3,39.9c0-0.1,0-10.5-4-10.5c-4,0-4,10.4-4,10.5c0,2,1.4,3.6,3.2,4V48c0,0.4,0.4,0.8,0.8,0.8
				s0.8-0.4,0.8-0.8v-4.1C6.9,43.4,8.3,41.8,8.3,39.9z M4.3,42.3c-1.3,0-2.4-1.1-2.4-2.4c0-4,1.1-8.9,2.4-8.9s2.4,4.9,2.4,8.9
				C6.7,41.2,5.6,42.3,4.3,42.3z"/>
			<path fill="#2D79B4" d="M35.8,41.5V17.2c0-0.4-0.4-0.8-0.8-0.8c-0.4,0-0.8,0.4-0.8,0.8v24.3c0,0.4,0.4,0.8,0.8,0.8
				C35.5,42.3,35.8,41.9,35.8,41.5z"/>
			<path fill="#2D79B4" d="M26.9,21.3h3.2c0.4,0,0.8-0.4,0.8-0.8v-4.9c0-0.4-0.4-0.8-0.8-0.8h-3.2c-0.4,0-0.8,0.4-0.8,0.8v4.9
				C26.1,20.9,26.5,21.3,26.9,21.3z M27.7,16.4h1.6v3.2h-1.6L27.7,16.4L27.7,16.4z"/>
			<path fill="#2D79B4" d="M1,28.5c0.4,0,0.8-0.4,0.8-0.8v-6.5h8.9c0.4,0,0.8-0.4,0.8-0.8c0-0.4-0.4-0.8-0.8-0.8H1.9v-0.8
				C1.9,18.4,1.5,18,1,18s-0.8,0.4-0.8,0.8v8.9C0.2,28.2,0.6,28.5,1,28.5z"/>
		</g>
	</g>
</g>
</svg>
