<?xml version="1.0" encoding="utf-8"?>
<!-- Generator: Adobe Illustrator 18.1.0, SVG Export Plug-In . SVG Version: 6.00 Build 0)  -->
<svg version="1.1" id="Layer_1" xmlns="http://www.w3.org/2000/svg" xmlns:xlink="http://www.w3.org/1999/xlink" x="0px" y="0px"
	 width="49px" height="49px" viewBox="0 0 49 49" enable-background="new 0 0 49 49" xml:space="preserve">
<g>
	<g>
		<g>
			<path fill="#2D79B4" d="M3.6,13.9C4,14.1,4.5,14,4.7,13.6c4-7.2,11.6-11.7,19.8-11.7c6.2,0,12.1,2.5,16.4,6.9
				c-2,0.9-3.4,2.9-3.4,5.2c0,3.1,2.5,5.7,5.7,5.7c1.6,0,3.2-0.7,4.3-2c0,0,0-0.1,0-0.1c0,0,0.1-0.1,0.1-0.1c0,0,0-0.1,0-0.1
				c0,0,0-0.1,0-0.1c0-0.1,0-0.1,0-0.2c0,0,0-0.1,0-0.1c-0.7-2.1-1.7-4.2-2.9-6c-0.2-0.4-0.8-0.5-1.1-0.2c-0.4,0.2-0.5,0.8-0.2,1.1
				c1.1,1.6,1.9,3.3,2.6,5.2c-0.7,0.7-1.7,1.1-2.7,1.1c-2.2,0-4-1.8-4-4c0-1.9,1.5-3.7,3.4-4c0.3,0,0.5-0.2,0.6-0.5
				c0.1-0.3,0-0.6-0.1-0.8c-4.6-5.4-11.3-8.4-18.4-8.4c-8.8,0-17,4.8-21.2,12.5C3,13.2,3.2,13.7,3.6,13.9z"/>
			<path fill="#2D79B4" d="M37.4,37.4c1.8,0,3.2-1.5,3.2-3.2S39.2,31,37.4,31s-3.2,1.5-3.2,3.2S35.7,37.4,37.4,37.4z M37.4,32.6
				c0.9,0,1.6,0.7,1.6,1.6c0,0.9-0.7,1.6-1.6,1.6c-0.9,0-1.6-0.7-1.6-1.6C35.8,33.3,36.5,32.6,37.4,32.6z"/>
			<path fill="#2D79B4" d="M33.4,13.2c0.4,0,0.8-0.4,0.8-0.8s-0.4-0.8-0.8-0.8h0c-0.4,0-0.8,0.4-0.8,0.8S33,13.2,33.4,13.2z"/>
			<path fill="#2D79B4" d="M40.7,24.1c0,0.7,0.5,1.2,1.2,1.2s1.2-0.5,1.2-1.2c0-0.7-0.5-1.2-1.2-1.2S40.7,23.4,40.7,24.1z"/>
			<path fill="#2D79B4" d="M31.8,39.1L31.8,39.1c-0.5,0-0.8,0.4-0.8,0.8s0.4,0.8,0.8,0.8s0.8-0.4,0.8-0.8S32.2,39.1,31.8,39.1z"/>
			<path fill="#2D79B4" d="M12.4,18L12.4,18c-0.5,0-0.8,0.4-0.8,0.8c0,0.4,0.4,0.8,0.8,0.8c0.4,0,0.8-0.4,0.8-0.8
				C13.2,18.4,12.8,18,12.4,18z"/>
			<path fill="#2D79B4" d="M5.1,30.2c0,1.3,1.1,2.4,2.4,2.4s2.4-1.1,2.4-2.4s-1.1-2.4-2.4-2.4S5.1,28.8,5.1,30.2z M8.3,30.2
				C8.3,30.6,8,31,7.5,31c-0.4,0-0.8-0.4-0.8-0.8c0-0.4,0.4-0.8,0.8-0.8C8,29.4,8.3,29.7,8.3,30.2z"/>
			<path fill="#2D79B4" d="M14.4,12.4c0.7,0,1.2-0.5,1.2-1.2c0-0.7-0.5-1.2-1.2-1.2c-0.7,0-1.2,0.5-1.2,1.2
				C13.2,11.8,13.7,12.4,14.4,12.4z"/>
			<path fill="#2D79B4" d="M48.3,20c-0.1-0.4-0.5-0.7-0.9-0.6c-0.4,0.1-0.7,0.5-0.6,0.9c0.3,1.4,0.4,2.8,0.4,4.2
				C47.1,37,37,47.1,24.5,47.1S1.9,37,1.9,24.5c0-0.6,0-1.1,0.1-1.7c0.2,0,0.5,0,0.7,0c2.2,0,4-1.8,4-4c0-2.2-1.7-4-3.9-4
				c-0.4,0-0.7,0.2-0.8,0.5c-0.5,1.2-0.9,2.5-1.2,3.7c-0.1,0.4,0.2,0.9,0.6,1c0.4,0.1,0.9-0.2,1-0.6c0.2-0.9,0.5-1.9,0.9-2.9
				c1,0.3,1.8,1.2,1.8,2.3c0,1.3-1.1,2.4-2.4,2.4c-0.5,0-0.8-0.1-1.1-0.2c-0.2-0.1-0.5-0.1-0.7,0c-0.2,0.1-0.4,0.4-0.4,0.6
				c-0.1,0.9-0.2,1.9-0.2,2.8c0,13.4,10.9,24.3,24.3,24.3s24.3-10.9,24.3-24.3C48.8,23,48.6,21.4,48.3,20z"/>
			<path fill="#2D79B4" d="M16.4,36.6c0,2.2,1.8,4,4,4c2.2,0,4-1.8,4-4c0-2.2-1.8-4-4-4S16.4,34.4,16.4,36.6z M22.9,36.6
				c0,1.3-1.1,2.4-2.4,2.4c-1.3,0-2.4-1.1-2.4-2.4c0-1.3,1.1-2.4,2.4-2.4C21.8,34.2,22.9,35.3,22.9,36.6z"/>
			<path fill="#2D79B4" d="M26.9,28.9c0,0.7,0.5,1.2,1.2,1.2s1.2-0.5,1.2-1.2s-0.5-1.2-1.2-1.2S26.9,28.3,26.9,28.9z"/>
			<path fill="#2D79B4" d="M26.1,21.3c0-1.8-1.5-3.2-3.2-3.2s-3.2,1.5-3.2,3.2s1.5,3.2,3.2,3.2S26.1,23,26.1,21.3z M22.9,22.9
				c-0.9,0-1.6-0.7-1.6-1.6c0-0.9,0.7-1.6,1.6-1.6c0.9,0,1.6,0.7,1.6,1.6S23.8,22.9,22.9,22.9z"/>
			<path fill="#2D79B4" d="M31,7.5c0-1.3-1.1-2.4-2.4-2.4c-1.3,0-2.4,1.1-2.4,2.4s1.1,2.4,2.4,2.4C29.9,9.9,31,8.9,31,7.5z
				 M28.5,8.3c-0.4,0-0.8-0.4-0.8-0.8c0-0.4,0.4-0.8,0.8-0.8c0.4,0,0.8,0.4,0.8,0.8S29,8.3,28.5,8.3z"/>
		</g>
	</g>
</g>
</svg>
