<?xml version="1.0" encoding="utf-8"?>
<!-- Generator: Adobe Illustrator 18.1.0, SVG Export Plug-In . SVG Version: 6.00 Build 0)  -->
<svg version="1.1" id="Layer_1" xmlns="http://www.w3.org/2000/svg" xmlns:xlink="http://www.w3.org/1999/xlink" x="0px" y="0px"
	 width="49px" height="49px" viewBox="0 0 49 49" enable-background="new 0 0 49 49" xml:space="preserve">
<g>
	<g>
		<g>
			<path fill="#2D79B4" d="M6.5,16.4c0.4,0.1,0.9-0.1,1-0.6c2.4-8.2,10.1-14,18.6-14c1.4,0,2.7,0.1,4.1,0.4c0,1.2,0.5,2,0.8,2.5
				c0.1,0.1,0.2,0.3,0.2,0.4c0,2.9-0.6,3.4-0.6,3.4c-1.3,0-3.5,1.2-4.3,2.7c-0.5,0.9-0.5,1.9,0.1,2.8c0.4,0.6,0.7,1.2,1.1,1.9
				c0.7,1.3,1.4,2.8,2.6,2.8c0.3,0,0.5-0.1,0.8-0.2c0.9-0.5,1.6-1.8,2.3-3.1c0.3-0.6,0.7-1.4,1-1.7c0.8,0.1,1.2,0.9,1.8,2
				c0.4,0.9,0.8,1.8,1.6,2.2c1.4,0.7,5.9,0,8.3-1.1c0.4-0.2,0.6-0.6,0.5-1c-1.7-6.3-6.3-11.5-12.3-14c-0.4-0.2-0.9,0-1.1,0.4
				c-0.2,0.4,0,0.9,0.4,1.1c5.3,2.2,9.5,6.7,11.2,12.2c-2.5,0.9-5.7,1.2-6.3,0.9c-0.3-0.2-0.6-0.8-0.9-1.4c-0.6-1.2-1.3-2.9-3.3-3
				c-1-0.1-1.6,1.1-2.3,2.6c-0.4,0.9-1.1,2.2-1.6,2.4c-0.3-0.1-0.9-1.2-1.3-1.9c-0.3-0.6-0.7-1.4-1.1-2c-0.2-0.4-0.2-0.7,0-1.1
				c0.6-1,2.2-1.8,2.8-1.8c1.5,0,2.2-1.7,2.2-5c0-0.5-0.2-0.9-0.5-1.2c-0.3-0.5-0.7-1.1-0.5-2.1c0.1-0.4-0.2-0.8-0.6-1
				c-1.7-0.4-3.4-0.6-5.2-0.6c-9.3,0-17.6,6.2-20.2,15.1C5.8,15.8,6.1,16.3,6.5,16.4z"/>
			<path fill="#2D79B4" d="M35.8,21.7c-0.2,0.1-0.6,0.2-0.6,0.2c-1.1,0-1.8,0.9-2.3,1.5c-0.2,0.2-0.6,0.7-0.8,0.7
				c-0.4-0.2-0.7-0.3-1.1-0.3c-1,0-1.8,0.6-2,1.3c-0.1,0.5,0.1,1.3,1,1.8c1.3,0.7,2.7,1.3,3.3,1.9c0.4,0.4,1.1,0.7,2,0.7
				c1.3,0,3-0.6,3.5-2.4c0.2-0.7,0.8-1.2,1.3-1.7c0.6-0.6,1.2-1.1,1.2-1.9c0-0.5-0.2-0.9-0.6-1.3c-0.6-0.6-1.3-0.9-2.3-0.9
				C37.4,21.2,36.5,21.5,35.8,21.7z M39.6,23.4c0,0.2-0.4,0.5-0.7,0.8c-0.6,0.6-1.4,1.3-1.7,2.4c-0.4,1.2-1.7,1.3-2,1.3
				c-0.5,0-0.8-0.1-0.8-0.2c-0.8-0.8-2.2-1.5-3.7-2.2c0,0,0,0,0,0c0.2-0.1,0.4-0.1,0.7,0.1c0.3,0.1,0.5,0.2,0.8,0.2
				c0.9,0,1.5-0.7,2-1.3c0.4-0.4,0.7-0.9,1.1-0.9c0.3,0,0.6-0.1,1.1-0.2c0.6-0.2,1.4-0.4,2.1-0.4c0.5,0,0.9,0.1,1.2,0.4
				C39.6,23.3,39.6,23.4,39.6,23.4z"/>
			<path fill="#2D79B4" d="M46.9,18.4c-0.1-0.4-0.5-0.8-0.9-0.7c-0.4,0.1-0.8,0.5-0.7,0.9c0.1,0.9,0.2,1.8,0.2,2.7
				c0,10.6-8.6,19.3-19.2,19.4c-2.9-1.8-5.6-4.1-4.4-6.9c2.2-5,0.1-6.9-0.7-7.7l-0.2-0.2c-0.2-0.2-0.5-0.4-0.8-0.6
				c-0.6-0.4-0.8-0.5-0.4-1.4c0.2-0.6,0.5-0.9,0.8-1.3c0.7-0.8,1.3-1.6,1.3-3.9c0-1.3-0.7-2.4-1.9-2.9c-1.3-0.6-3.1-0.4-4.1,0.5
				c-0.6,0.5-0.8,1.3-0.5,2c0.6,1.7-0.7,4.2-3.2,6.1c-0.7,0.5-0.8,0.3-1,0.1c-0.7-0.8-0.7-3.2-0.1-3.8c0.4-0.4,0.5-0.9,0.3-1.4
				C11,18,6.8,18.1,6,18.1c-0.4,0-0.7,0.3-0.8,0.7c-0.1,0.8-0.1,1.6-0.1,2.5c0,9.7,6.6,18.1,16,20.4c0.4,0.1,0.9-0.2,1-0.6
				c0.1-0.4-0.2-0.9-0.6-1C12.8,38,6.7,30.2,6.7,21.3c0-0.6,0-1.1,0.1-1.6c1.4,0,2.5,0.2,3.1,0.3c-0.9,1.4-0.8,4.3,0.3,5.6
				c0.8,0.9,2,1,3.2,0.1c3.1-2.3,4.6-5.4,3.8-7.9c0-0.1-0.1-0.2,0.1-0.3c0.4-0.4,1.5-0.5,2.3-0.2c0.6,0.3,0.9,0.7,0.9,1.4
				c0,1.8-0.4,2.2-0.9,2.8c-0.4,0.4-0.8,0.9-1.2,1.9c-0.7,2.2,0.4,2.9,1.1,3.3c0.2,0.1,0.4,0.2,0.5,0.3c0.1,0.1,0.1,0.1,0.2,0.2
				c0.7,0.7,2,1.9,0.3,5.9c-1.9,4.5,3.1,7.7,5.2,9c0.1,0.1,0.3,0.1,0.4,0.1c11.6,0,21-9.4,21-21C47.1,20.3,47.1,19.3,46.9,18.4z"/>
			<path fill="#2D79B4" d="M39.6,39.4c-3.9,2.9-8.6,4.5-13.5,4.5c-12.5,0-22.6-10.2-22.6-22.6c0-0.4-0.4-0.8-0.8-0.8
				s-0.8,0.4-0.8,0.8c0,13.1,10.4,23.8,23.5,24.2V48c0,0.4,0.4,0.8,0.8,0.8c0.4,0,0.8-0.4,0.8-0.8v-2.5c5-0.2,9.7-1.8,13.7-4.8
				c0.4-0.3,0.4-0.8,0.2-1.1C40.5,39.2,40,39.2,39.6,39.4z"/>
			<path fill="#2D79B4" d="M26.7,33c-1,0-2.2,1.2-2.6,2.2c-0.3,0.8-0.2,1.6,0.3,2.1c0.5,0.5,1.2,0.8,2,0.8s1.5-0.3,2-0.8
				c0.5-0.5,0.7-1.3,0.4-2.2c-0.2-0.6-0.6-1.2-1.1-1.7C27.4,33.1,27.1,33,26.7,33z M27.2,36.1c-0.4,0.4-1.3,0.3-1.6,0
				c0,0,0-0.2,0.2-0.6c0.3-0.5,0.7-0.8,0.9-0.9c0.2,0.3,0.4,0.6,0.5,0.9C27.2,35.9,27.3,36.1,27.2,36.1z"/>
		</g>
	</g>
</g>
</svg>
