<?xml version="1.0" encoding="utf-8"?>
<!-- Generator: Adobe Illustrator 18.1.0, SVG Export Plug-In . SVG Version: 6.00 Build 0)  -->
<svg version="1.1" id="Layer_1" xmlns="http://www.w3.org/2000/svg" xmlns:xlink="http://www.w3.org/1999/xlink" x="0px" y="0px"
	 width="216px" height="54px" viewBox="0 0 216 54" enable-background="new 0 0 216 54" xml:space="preserve">
<g>
	<g>
		<g>
			<path id="path1066_9_" fill="#FFFFFF" d="M27.5,53.2H29v-4.6l7.1-5.4v-5.3L34.7,36v4.3l-7.1,5.2V53.2L27.5,53.2z M33.2,39.6v-5.4
				l-1.4-1.7v4.3l-7.1,5.7v10.6h1.5v-8.3L33.2,39.6L33.2,39.6z M20.3,53.2h-1.4v-4.6l-7.1-5.4v-5.3l1.5-1.8v4.3l7.1,5.2L20.3,53.2
				L20.3,53.2z M14.6,39.6v-5.4l1.4-1.7v4.3l7.1,5.7v10.6h-1.5v-8.3L14.6,39.6L14.6,39.6z"/>
			<g id="path1086_10_">
				<g>
					<path fill="#FFFFFF" d="M35.9,26.4l-1,1l3.7,4.6h-5.3l1.1,1.4h7.2L35.9,26.4L35.9,26.4z M37.9,24.4l-1,1l7.7,9.4h-9l1.1,1.4
						h10.9L37.9,24.4L37.9,24.4z M32.4,15.3l1.1,1.4h8.1L23.9,34.1L6.2,16.7h8.1l1.1-1.4H2.7l21.2,20.9l21.2-20.9H32.4L32.4,15.3z
						 M23.9,11.7L14.7,23l1,1L23.9,14l8.2,10.1l1-1L23.9,11.7L23.9,11.7z M12.6,21l1,1L23.9,9.4L34.2,22l1-1L23.9,7.1L12.6,21
						L12.6,21z M6.2,33.4h7.2l1.1-1.4H9.2l3.7-4.6l-1-1L6.2,33.4L6.2,33.4z M0.2,36.2h10.9l1.1-1.4h-9l7.7-9.4l-1-1L0.2,36.2
						L0.2,36.2z"/>
				</g>
			</g>
			<path id="path1274_9_" fill="#FFFFFF" d="M215.4,33.6c0,0-1.2,2.6-2.6,5.7h-3.2l2.9-5.9c0.4-0.9,0.6-1.5,0.4-1.8
				c-0.2-0.4-0.8-0.5-1.6-0.5h-5v-3.8h2.9v1.9h3.6c1.6,0,2.5,0.8,2.9,1.8C216,31.9,215.8,32.8,215.4,33.6 M201.7,39.3
				c-0.8-1.3-3-4.2-3.8-5.2c-0.4,0.4-0.7,1.1-0.7,1.7v3.5h-2.9v-2.8c0-1.1,0.9-2.7,2.6-3.6l-3.1-3.8h3.6l3.5,4.6
				c0.7-0.3,0.7-1.5,0.7-2v-2.6h2.9v2.3c0,1.2-0.7,2.9-2.5,3.5c1,1.5,3.1,4.4,3.1,4.4L201.7,39.3L201.7,39.3z M192.1,39.3h-2.9V33
				c0-1.7-1.2-2.3-2.7-2.3c-0.9,0-1.9,0.2-2.5,0.4v-1.9c1.2-0.3,2.4-0.4,3.6-0.4c2,0,4.5,1.1,4.5,3.5L192.1,39.3L192.1,39.3
				L192.1,39.3z M178.7,36v5.5h-2.9V37c0-1.2-0.3-2.4-1-3.7c0,0-1.6-2.9-2.3-4.3h3.2c0.8,1.5,1.7,3.3,2.5,5.3c0.7-0.3,1.5-1.1,1.5-3
				v-2.3h2.9v2.6C182.6,33.5,180.9,35.7,178.7,36 M206.2,25.5v-5.6c0.8-0.2,1.9-0.3,2.9-0.5v6.1L206.2,25.5L206.2,25.5z M212.9,25.5
				v-5.8c0-1.7-1.3-2.6-3.3-2.6c-0.9,0-2.4,0.1-3.6,0.4v-2c1.4-0.4,3.2-0.3,4.6-0.3c2.3,0,5.2,1,5.2,3.6v6.8L212.9,25.5L212.9,25.5z
				 M198.9,16.7c-2.2,0-2.6,2.5-2.6,3.7c0,1.7,0.6,3.6,2.6,3.6c2,0,2.6-1.9,2.6-3.6C201.5,19.2,201.1,16.7,198.9,16.7 M198.9,25.8
				c-3.7,0-5.5-2.2-5.5-5.4s1.7-5.4,5.5-5.4c3.7,0,5.5,2.2,5.5,5.4C204.4,23.6,202.6,25.8,198.9,25.8 M188.7,15.3h2.9v10.2h-2.9
				V15.3z M181.4,25.8c-1.2,0-2-0.1-2.8-0.5v-1.9c0.6,0.4,1.4,0.5,2.5,0.5c2.4,0,3-1.4,3-3.6c0-2.2-1-3.3-3-3.3c-1,0-2,0.2-2.5,0.5
				v-1.9c1.2-0.4,1.8-0.4,2.9-0.4c3.4,0,5.6,2,5.6,5.2C187,23.8,185.2,25.8,181.4,25.8 M171.1,25.5v-1.9h2.9v-5.1
				c0-0.9-0.7-1.4-1.6-1.4c-0.4,0-0.8,0.1-1.1,0.2v-1.8c0.8-0.1,1.3-0.3,2.2-0.3c2.4,0,3.4,1.2,3.4,3.3v7.1L171.1,25.5L171.1,25.5z
				 M166.6,15.3h2.9v10.2h-2.9V15.3z M161.6,25.5v-5.9c0-1.3-0.8-2.4-2.4-2.4h-1.6v6c0,1.7-1.2,2.5-3,2.5c-0.9,0-1.8-0.2-2.2-0.4
				v-1.8c0.4,0.2,0.6,0.3,1,0.3c1,0,1.2-0.6,1.2-1.2v-4.5l0.3-0.8h-2.4v-1.9h7.4c2.9,0,4.5,1.7,4.5,4.1v6.1L161.6,25.5L161.6,25.5z
				 M135.6,25.5v-5.6c0.8-0.2,1.9-0.4,2.9-0.5v6.1L135.6,25.5L135.6,25.5z M142.3,25.5v-5.8c0-1.7-1.3-2.6-3.3-2.6
				c-0.9,0-2.4,0.1-3.6,0.4v-2c1.4-0.4,3.2-0.3,4.6-0.3c2.3,0,5.2,1,5.2,3.6v6.8L142.3,25.5L142.3,25.5z M130.8,21.4v-6.1h2.9v5.3
				C132.7,21,131.5,21.2,130.8,21.4 M119.8,25.5v-5.6c0.8-0.2,1.9-0.4,2.9-0.5v6.1L119.8,25.5L119.8,25.5z M126.5,25.5v-5.8
				c0-1.7-1.3-2.6-3.3-2.6c-0.9,0-2.4,0.1-3.6,0.4v-2c1.4-0.4,3.2-0.3,4.6-0.3c2.3,0,5.2,1,5.2,3.6v6.8L126.5,25.5L126.5,25.5z
				 M114.9,15.3h2.9v10.2h-2.9V15.3z M112,17.2v8.3h-2.9v-8.3H104v-1.9h9.5v1.9H112L112,17.2z M99.8,21.4v-6.1h2.9v5.3
				C101.7,21,100.5,21.2,99.8,21.4 M95.5,25.5v-5.9c0-1.3-0.8-2.4-2.4-2.4h-1.6v6c0,1.7-1.2,2.5-3,2.5c-0.9,0-1.8-0.2-2.2-0.4v-1.8
				c0.4,0.2,0.6,0.3,1,0.3c1,0,1.2-0.6,1.2-1.2v-4.5l0.3-0.8h-2.4v-1.9H94c2.9,0,4.5,1.7,4.5,4.1v6.1L95.5,25.5L95.5,25.5z
				 M185.5,49.1V43h2.9v5.4C187.4,48.7,186.2,49,185.5,49.1 M182.9,49.1c-0.4,2.9-3.3,4.5-6.1,4.5c-1.9,0-4.2-0.3-5.5-1.8
				c-1.1-1.3-1.3-3.1-1.5-4.9c0,0-0.3-3-0.4-4h2.9c0.1,1.7,0.3,3.6,0.5,5.3c1.3,0.1,2.3-0.6,2.4-2.2c0,0,0.2-2,0.3-3.1h2.9
				c-0.1,1.1-0.3,2.3-0.4,3.6c-0.3,2-1.8,3.1-4.3,3.1h-0.6c0.3,1.5,1.3,2,3.2,2c2.5,0,3.4-1.9,3.6-3.9c0,0,0.5-4,0.5-4.9h3
				C183.4,45,182.9,49.1,182.9,49.1 M167.7,53.3h-2.9V47c0-1.7-1.2-2.3-2.8-2.3c-1,0-1.9,0.2-2.5,0.4v-1.9c1.2-0.4,2.4-0.4,3.7-0.4
				c2.1,0,4.5,1.1,4.5,3.5L167.7,53.3L167.7,53.3L167.7,53.3z M154.9,53.3c-0.8-1.3-3-4.3-3.8-5.3c-0.4,0.4-0.7,1.2-0.7,1.7v3.6
				h-2.9v-2.9c0-1.2,0.9-2.8,2.7-3.6l-3.1-3.8h3.6l3.6,4.6c0.7-0.3,0.7-1.5,0.7-2V43h3v2.3c0,1.2-0.7,2.9-2.5,3.6
				c1,1.5,3.2,4.4,3.2,4.4L154.9,53.3L154.9,53.3z M146.2,47.5c0,0-1.3,2.6-2.7,5.8h-3.3l2.9-6c0.5-0.9,0.6-1.5,0.4-1.9
				c-0.2-0.4-0.8-0.5-1.6-0.5h-5V41h3V43h3.7c1.6,0,2.6,0.8,2.9,1.8C146.8,45.8,146.6,46.7,146.2,47.5"/>
			<g id="path1352_10_">
				<g>
					<path fill="#FFFFFF" d="M164.8,35.8v3.6h-2.5v-3.6l-3.4-6.7h2.7l1.2,2.6c0.3,0.6,0.5,1.1,0.7,1.6h0c0.2-0.6,0.5-1.2,0.8-1.8
						l1.2-2.4h2.6L164.8,35.8L164.8,35.8z M155.8,39.5c-4,0-5-2.6-5-4.9c0-3.3,1.9-5.5,5.5-5.5c0.7,0,1.5,0.1,2.2,0.3l-0.3,2.1
						c-0.6-0.2-1.3-0.3-2-0.3c-1.7,0-2.7,1.2-2.7,3c0,2,0.9,3.1,2.8,3.1c0.6,0,1.4-0.1,1.9-0.4l0.3,2.1
						C157.7,39.3,156.8,39.5,155.8,39.5 M146.2,39.3l-2.5-4.4c-0.4-0.8-0.8-1.6-1.1-2.2c0,0.8,0.1,1.8,0.1,2.8v3.9h-2.4V29.1h3.2
						l2.4,4c0.5,0.8,0.9,1.7,1.3,2.5c-0.1-0.9-0.1-2.2-0.1-3.2v-3.4h2.4v10.2L146.2,39.3L146.2,39.3z M132.4,39.3V29.1h6.1v2h-3.6v2
						h3.4v1.9h-3.4v2.3h3.6v2L132.4,39.3L132.4,39.3z M130.2,31.6c-0.8-0.3-1.8-0.5-2.9-0.5c-2,0-3.4,1.2-3.4,3.2
						c0,1.9,1.1,3.1,3.1,3.1c0.4,0,0.7,0,1-0.1v-3.3h2.5v4.9c-1.1,0.4-2.4,0.7-3.8,0.7c-3.5,0-5.5-1.9-5.5-5c0-3.3,2.3-5.5,6.2-5.5
						c1.1,0,2.2,0.2,3.1,0.4L130.2,31.6L130.2,31.6z M116.4,33.6c-0.2-0.6-0.4-1.1-0.5-1.7h0c-0.1,0.6-0.3,1.2-0.5,1.8l-0.7,1.9h2.5
						L116.4,33.6L116.4,33.6z M118.4,39.3l-0.7-1.9h-3.7l-0.7,1.9h-2.5l3.6-10.2h2.8l3.8,10.2H118.4L118.4,39.3z M104.1,39.3v-4.2
						h-3.9v4.2h-2.5V29.1h2.5v3.9h3.9v-3.9h2.5v10.2H104.1z M91.8,39.5c-0.8,0-1.5-0.1-2.2-0.2l0.1-2.2c0.6,0.2,1.5,0.4,2.3,0.4
						c0.9,0,1.6-0.4,1.6-1.1c0-1.7-4.3-0.8-4.3-4.3c0-1.9,1.6-3.2,4.3-3.2c0.6,0,1.3,0.1,2,0.2l-0.1,2c-0.6-0.2-1.3-0.3-1.9-0.3
						c-1,0-1.5,0.4-1.5,1c0,1.6,4.3,1,4.3,4.2C96.2,38.1,94.5,39.5,91.8,39.5 M85.3,29.1h2.5v10.2h-2.5V29.1z M81.4,39.3h-3
						l-1.3-4.8c-0.2-0.7-0.3-1.5-0.4-2.3h0c-0.1,0.8-0.2,1.5-0.4,2.3L75,39.3h-2.8l-2.7-10.2h2.6l1.3,5c0.2,0.7,0.3,1.4,0.4,2.1h0
						c0.1-0.7,0.2-1.4,0.4-2.1l1.4-5h2.6l1.4,4.9c0.2,0.6,0.3,1.3,0.4,2.1h0c0.1-0.8,0.2-1.5,0.4-2.1l1.2-4.9h2.5L81.4,39.3
						L81.4,39.3z M62.5,39.3V29.1h6.1v2H65v2h3.4v1.9H65v2.3h3.6v2L62.5,39.3L62.5,39.3z M57.3,39.5c-0.7,0-1,0-1.4-0.1v-2
						c0.2,0.1,0.5,0.1,0.9,0.1c0.7,0,1.1-0.3,1.1-1.2v-7.2h2.5v7.2C60.4,38,59.7,39.5,57.3,39.5 M128.6,53.2V43h2.5v8.1h3.3v2.1
						L128.6,53.2L128.6,53.2z M120.9,53.2V43h6.1v2h-3.6v2h3.4v1.9h-3.4v2.3h3.6v2L120.9,53.2L120.9,53.2z M115.2,47.4
						c-0.2-0.6-0.4-1.1-0.5-1.7h0c-0.1,0.6-0.3,1.2-0.5,1.8l-0.7,1.9h2.5L115.2,47.4L115.2,47.4z M117.3,53.2l-0.7-1.9h-3.7
						l-0.7,1.9h-2.5l3.6-10.2h2.8l3.8,10.2H117.3z M104.6,44.8c-0.3,0-0.5,0-0.7,0v2.6c0.1,0,0.4,0,0.6,0c1.1,0,1.7-0.5,1.7-1.4
						C106.3,45.3,105.8,44.8,104.6,44.8 M106.6,53.2l-2.5-4h-0.1v4h-2.5V43c0.9-0.1,2.1-0.1,3.4-0.1c2.5,0,4.1,0.9,4.1,3
						c0,1.4-0.9,2.5-2.4,2.8c0.3,0.4,0.6,0.8,0.8,1.1l2.3,3.3L106.6,53.2L106.6,53.2z M95.6,53.4c-0.8,0-1.5-0.1-2.2-0.2l0.1-2.2
						c0.6,0.2,1.5,0.4,2.3,0.4c0.9,0,1.6-0.4,1.6-1.1c0-1.7-4.3-0.8-4.3-4.3c0-1.9,1.6-3.2,4.3-3.2c0.6,0,1.3,0.1,2,0.2l-0.1,2
						c-0.6-0.2-1.3-0.3-1.9-0.3c-1,0-1.5,0.4-1.5,1c0,1.6,4.3,1,4.3,4.2C100,51.9,98.3,53.4,95.6,53.4 M89,43h2.5v10.2H89V43z
						 M79.6,44.8c-0.3,0-0.5,0-0.7,0v2.6c0.1,0,0.4,0,0.6,0c1.1,0,1.7-0.5,1.7-1.4C81.2,45.3,80.7,44.8,79.6,44.8 M81.5,53.2l-2.6-4
						h-0.1v4h-2.5V43c0.9-0.1,2.1-0.1,3.4-0.1c2.5,0,4.1,0.9,4.1,3c0,1.4-0.9,2.5-2.4,2.8c0.3,0.4,0.6,0.8,0.8,1.1l2.3,3.3
						L81.5,53.2L81.5,53.2z M69.9,44.9c-1.3,0-2.5,1-2.5,3.1c0,2,0.8,3.2,2.5,3.2c1.2,0,2.6-0.8,2.6-3.1
						C72.4,46,71.5,44.9,69.9,44.9 M69.7,53.4c-3.3,0-5-2-5-5.2c0-3.3,2.4-5.4,5.3-5.4c2.8,0,5,1.6,5,5.1
						C75,51.3,72.6,53.4,69.7,53.4 M60.4,45v2.2h3.3v1.9h-3.3v4.1h-2.5V43h5.9v2L60.4,45L60.4,45z M75.1,25.5V15.3h6.1v2h-3.6v2h3.4
						v1.9h-3.4v2.3h3.6v2L75.1,25.5L75.1,25.5z M70.4,25.5v-4.2h-3.9v4.2H64V15.3h2.5v3.9h3.9v-3.9h2.5v10.2H70.4z M60.4,17.3v8.2
						h-2.5v-8.2h-2.6v-2h7.6v2H60.4z"/>
				</g>
			</g>
		</g>
	</g>
	<g>
		<path fill="#FFFFFF" d="M182.4,2.8l-2.2,5.5h-1l2.2-5.3h-3.6V0.4h1v1.9h3.7V2.8z"/>
		<path fill="#FFFFFF" d="M191,4.5c0-0.5-0.1-0.9-0.4-1.1S190,3,189.5,3h-2.2V2.2h2.3c0.8,0,1.4,0.2,1.8,0.6s0.6,1,0.6,1.7v3.8h-1
			V4.5z M187.3,6.3c0-0.3,0-0.6,0.1-0.7s0.1-0.4,0.2-0.5h0.8c0,0.2-0.1,0.3-0.1,0.5c0,0.2,0,0.4,0,0.7v2.1h-0.9V6.3z"/>
		<path fill="#FFFFFF" d="M198.5,2.2V3h-1v5.3h-1V3h-2.9V2.2H198.5z"/>
		<path fill="#FFFFFF" d="M200.6,3h-0.7V2.2h1.7v6.1h-1V3z"/>
		<path fill="#FFFFFF" d="M208.3,2.8c0.4,0.4,0.6,1,0.6,1.8v3.8h-1l0-3.8c0-0.5-0.1-0.9-0.3-1.2C207.4,3.1,207,3,206.5,3h-0.9
			c-0.1,0.2-0.2,0.4-0.3,0.7c-0.1,0.3-0.1,0.6-0.1,0.9v2.1c0,0.6-0.1,1-0.4,1.3c-0.3,0.3-0.7,0.4-1.2,0.4c-0.1,0-0.3,0-0.6,0V7.6
			c0.1,0,0.2,0,0.4,0c0.3,0,0.5-0.1,0.7-0.2c0.1-0.2,0.2-0.4,0.2-0.7V4.7c0-0.3,0-0.6,0.1-0.9c0.1-0.3,0.2-0.6,0.3-0.8h-1.1V2.2h2.8
			C207.3,2.2,207.9,2.4,208.3,2.8z"/>
		<path fill="#FFFFFF" d="M215.5,7.6v0.7h-5V7.6h3.3V4.5c0-0.5-0.1-0.9-0.4-1.1c-0.2-0.2-0.6-0.4-1.2-0.4h-1.5V2.2h1.5
			c0.8,0,1.4,0.2,1.8,0.6c0.4,0.4,0.6,1,0.6,1.7v3L215.5,7.6z"/>
	</g>
</g>
</svg>
