<?xml version="1.0" encoding="utf-8"?>
<!-- Generator: Adobe Illustrator 18.1.0, SVG Export Plug-In . SVG Version: 6.00 Build 0)  -->
<svg version="1.1" id="Layer_1" xmlns="http://www.w3.org/2000/svg" xmlns:xlink="http://www.w3.org/1999/xlink" x="0px" y="0px"
	 width="221px" height="55px" viewBox="0 0 221 55" enable-background="new 0 0 221 55" xml:space="preserve">
<g>
	<g>
		<g>
			<g>
				<path fill-rule="evenodd" clip-rule="evenodd" fill="#8DBB07" d="M125,35.8h-21.1V21.2l16.9-3.9c1.3,0.3,2.2,0.8,2.8,1.5
					c0.9,1.1,1.3,3.1,1.3,6.1V35.8z M117.8,31.3v-6.2c0-1.5-0.2-2.5-0.5-2.9c-0.5-0.5-1.5-0.8-3.1-0.8h-3v9.9H117.8z"/>
				<path fill-rule="evenodd" clip-rule="evenodd" fill="#8DBB07" d="M134.8,27.8h-7.2v-6.3c0-1.4-0.1-2.5-0.4-3.5
					c-0.1-0.3-0.2-0.7-0.4-1.1h7.2c0.2,0.4,0.3,0.8,0.4,1.2c0.3,1.1,0.4,2.2,0.4,3.4V27.8z"/>
				<polygon fill-rule="evenodd" clip-rule="evenodd" fill="#8DBB07" points="155.5,21.5 152.1,21.5 152.1,35.8 144.9,35.8 
					144.9,21.5 136.4,21.5 136.4,17 155.5,17 				"/>
				<path fill-rule="evenodd" clip-rule="evenodd" fill="#8DBB07" d="M166.4,35.8h-7.2V21.2c0-1.5-0.2-2.7-0.5-3.6
					c-0.1-0.2-0.1-0.4-0.3-0.6h7.2c0.2,0.4,0.3,0.8,0.4,1.1c0.3,1,0.4,2,0.4,3.1V35.8z"/>
				<path fill-rule="evenodd" clip-rule="evenodd" fill="#8DBB07" d="M189.7,26.5c0,3.3-0.4,5.7-1.1,7c-1,1.9-3.1,2.9-6.1,2.9
					c-1.1,0-2.2-0.3-3.4-0.8v-4.8c0.4,0.4,1,0.6,1.7,0.6c1.1,0,1.7-1.7,1.7-5.1c0-1.5-0.2-2.7-0.5-3.4c-0.5-1.1-1.4-1.7-2.7-1.7
					c-2.2,0-3.3,1.6-3.3,4.7v9.9h-7.2V23.5c0-3-0.3-5.2-0.8-6.5h6.8c0.2,0,0.4,0.5,0.5,1.4l0.2,1.4c0.1,0.2,0.2,0.3,0.2,0.3
					c1.1-2.4,3.3-3.6,6.6-3.6c2.9,0,5,1,6.1,2.9C189.3,20.8,189.7,23.2,189.7,26.5z"/>
				<path fill-rule="evenodd" clip-rule="evenodd" fill="#8DBB07" d="M199.4,27.8h-7.2v-6.3c0-1.4-0.1-2.5-0.4-3.5
					c-0.1-0.3-0.2-0.7-0.4-1.1h7.2c0.2,0.4,0.3,0.8,0.4,1.2c0.3,1.1,0.4,2.2,0.4,3.4V27.8z"/>
				<path fill-rule="evenodd" clip-rule="evenodd" fill="#8DBB07" d="M220.3,23.7l-3.2,12.2h-7.5l2.9-10.8c0.2-0.7,0.3-1.2,0.3-1.5
					c0-1.3-0.8-2-2.3-2h-5.3c-1.2,0-2-0.5-2.6-1.5c-0.5-0.8-0.7-1.8-0.7-3v-4.6c0-1.1-0.1-2.1-0.2-2.9c-0.1-0.3-0.1-0.5-0.2-0.8h7.3
					c0.3,0.8,0.4,2.1,0.4,3.7c0,2,0,3,0,3.2c0.3,0.9,1,1.4,2.3,1.4h5.3c2.7,0,4,1.5,4,4.4C220.6,22.1,220.5,22.9,220.3,23.7z"/>
			</g>
		</g>
		<g>
			<g>
				<path fill-rule="evenodd" clip-rule="evenodd" fill="#286A9C" d="M14.7,20.6c0,0.1-0.3,1.5-1,4.3c-0.2,0.8-0.7,3.2-1.7,7.1
					l-0.9,3.8H8.8l3.5-14.8c0.1-0.7,0.2-1.2,0.2-1.4c0-0.4-0.4-0.6-1.2-0.6H4.9c-1.3,0-2.2-0.2-2.7-0.5c-0.7-0.4-1-1.2-1-2.5v-3.6
					c0-1.1-0.2-2.1-0.6-3.1C0.6,9.1,0.5,8.9,0.4,8.7h2.4c0.2,0.4,0.3,0.7,0.4,1c0.3,0.9,0.4,1.8,0.4,2.7v2c0,1.2,0.1,2,0.3,2.2
					C4,16.8,4.7,17,5.8,17h6.9c1.5,0,2.2,0.8,2.2,2.3c0,0.2,0,0.4-0.1,0.8C14.8,20.3,14.7,20.5,14.7,20.6z"/>
				<polygon fill-rule="evenodd" clip-rule="evenodd" fill="#286A9C" points="32.8,35.8 30.3,35.8 21.6,23.9 18.5,35.8 16.4,35.8 
					20.2,21.7 16.7,17 19,17 27.3,28.2 30.5,17 32.7,17 28.9,30.1 				"/>
				<path fill-rule="evenodd" clip-rule="evenodd" fill="#286A9C" d="M48.5,35.8h-2.2V24.9c0-2.2-0.4-3.7-1.1-4.4
					c-0.9-1-2.7-1.4-5.5-1.4h-4.1V17h4.3c3,0,5.2,0.5,6.4,1.4c1.5,1.2,2.3,3.3,2.3,6.4V35.8z"/>
				<path fill-rule="evenodd" clip-rule="evenodd" fill="#286A9C" d="M61.2,29.6h-2.2V17h2.2V29.6z M68.9,29.2
					c0,4.5-2.7,6.7-8.2,6.7h-7.9L50.4,17h2.3L55,33.8h5.9c3.9,0,5.8-1.5,5.8-4.5V17h2.2V29.2z"/>
				<path fill-rule="evenodd" clip-rule="evenodd" fill="#286A9C" d="M75,26.8h-2.4v-6.1c0-1.6-0.2-2.8-0.7-3.7h2.4
					c0.4,1.3,0.6,2.5,0.6,3.8V26.8z"/>
				<path fill-rule="evenodd" clip-rule="evenodd" fill="#286A9C" d="M94,35.8H78.3v-2.1h4.9c2.4,0,4.3-0.6,5.6-1.9
					c1.4-1.3,2.1-3.1,2.1-5.4c0-2.1-0.5-3.9-1.6-5.2c-1.2-1.5-2.8-2.2-4.9-2.2h-6.2V17h6.2c2.7,0,4.9,0.9,6.5,2.6
					c1.6,1.8,2.4,4,2.4,6.8c0,1.8-0.5,3.3-1.4,4.6c-1,1-2,1.9-3,2.9c0,0.2,0.2,0.2,0.5,0.2c0.3,0,0.6,0,1.1-0.1
					c0.5-0.1,0.9-0.1,1.1-0.1H94V35.8z"/>
			</g>
		</g>
		<path fill="#ADD507" d="M114.4,8.7c-1.3,0.1-2.6,0.3-3.8,0.6c-3.8,0.9-7.3,2.4-10.2,4.4c0,0,0,0-0.1,0l0.6,2.8l0.8,3.4l21.5-5
			l-1.4-6.2c0,0-0.1,0-0.1,0C119.3,8.5,116.9,8.5,114.4,8.7z M108.4,0.2L90.9,14l3.5,0.9l0.7,2.8l0.6,2.5c-0.4,0.3-0.6,0.8-0.5,1.3
			c0.1,0.4,0.4,0.7,0.8,0.9c-0.2,1.3-0.4,2.1-0.6,3.6c1.7,0.3,2.7,0.1,4.1-0.9c-0.9-1.2-1.3-1.9-2.1-3c0.3-0.3,0.4-0.7,0.3-1.1
			c-0.1-0.5-0.5-0.9-1-0.9L96,17.6l-0.6-2.5l4,1l-0.7-2.9l0.5-0.3c0,0,0,0,0.1,0l0,0c3.3-2.3,6.7-4,11-5c2.5-0.6,4.9-0.8,7.3-0.7
			c1.6,0,3.2,0.2,4.8,0.4l0,0c0,0,0,0,0.1,0l0.6,0.1l0.6,2.8l6.4-5.4l0.1-0.1L108.4,0.2z"/>
	</g>
	<g>
		<g>
			<path fill="#286A9C" d="M11.2,43.7v7.9h-0.8l0-1c-0.5,0.8-1.4,1.1-2.5,1.1c-0.8,0-1.5-0.2-1.9-0.7c-0.5-0.5-0.7-1.2-0.7-2.3v-5.1
				h0.9v5.1c0,0.8,0.2,1.4,0.5,1.7C6.9,50.8,7.4,51,7.9,51c0.7,0,1.2-0.1,1.6-0.4c0.4-0.3,0.7-0.7,0.8-1.1v-5.7H11.2z"/>
			<path fill="#286A9C" d="M20.6,44.2c0.4,0.5,0.6,1.2,0.6,2.2v5.2h-0.9v-5.2c0-0.8-0.2-1.3-0.5-1.7s-0.8-0.5-1.4-0.5
				c-0.6,0-1.1,0.2-1.5,0.5c-0.4,0.4-0.7,0.8-0.9,1.3v5.4h-0.9v-7.9h0.8l0,1.3c0.3-0.5,0.6-0.8,1.1-1.1s0.9-0.4,1.5-0.4
				C19.6,43.5,20.2,43.8,20.6,44.2z"/>
			<path fill="#286A9C" d="M26.3,41c0.1,0.1,0.2,0.3,0.2,0.4c0,0.2-0.1,0.3-0.2,0.4c-0.1,0.1-0.3,0.2-0.4,0.2
				c-0.2,0-0.3-0.1-0.4-0.2c-0.1-0.1-0.2-0.2-0.2-0.4c0-0.2,0.1-0.3,0.2-0.4c0.1-0.1,0.3-0.2,0.4-0.2C26.1,40.8,26.2,40.9,26.3,41z
				 M25.4,51.6v-7.9h0.9v7.9H25.4z"/>
			<path fill="#286A9C" d="M36.3,43.7l-3,7.9h-0.6h-0.1l-3-7.9h0.9l2.4,6.7l2.4-6.7H36.3z"/>
			<path fill="#286A9C" d="M39.9,47.7v0.2c0,0.6,0.1,1.1,0.3,1.6s0.5,0.9,1,1.1s0.9,0.4,1.4,0.4c0.5,0,0.9-0.1,1.3-0.3
				c0.4-0.2,0.7-0.4,1-0.8l0.6,0.4c-0.3,0.4-0.7,0.8-1.1,1c-0.5,0.3-1,0.4-1.7,0.4c-0.7,0-1.3-0.2-1.8-0.5c-0.5-0.3-1-0.8-1.3-1.4
				c-0.3-0.6-0.5-1.3-0.5-2v-0.3c0-0.8,0.2-1.5,0.5-2.1c0.3-0.6,0.7-1.1,1.2-1.4c0.5-0.3,1.1-0.5,1.7-0.5c0.7,0,1.2,0.2,1.7,0.5
				s0.8,0.7,1.1,1.3s0.4,1.2,0.4,1.9v0.5H39.9z M41.2,44.6c-0.4,0.2-0.6,0.5-0.9,0.9C40.1,46,40,46.4,39.9,47h4.7v-0.1
				c0-0.5-0.1-0.9-0.3-1.3c-0.2-0.4-0.4-0.7-0.8-0.9s-0.7-0.4-1.2-0.4C42,44.3,41.6,44.4,41.2,44.6z"/>
			<path fill="#286A9C" d="M52.7,44.4c-0.2,0-0.4-0.1-0.6-0.1c-0.6,0-1,0.2-1.4,0.5s-0.6,0.7-0.8,1.3v5.5h-0.9v-7.9h0.9l0,1.2
				c0.2-0.4,0.5-0.8,0.9-1c0.4-0.2,0.8-0.4,1.3-0.4c0.1,0,0.2,0,0.3,0c0.1,0,0.2,0,0.3,0.1L52.7,44.4z"/>
			<path fill="#286A9C" d="M57,47.5c-0.4-0.2-0.7-0.4-0.9-0.7s-0.3-0.6-0.3-1.1c0-0.4,0.1-0.8,0.3-1.1s0.6-0.6,1-0.8
				c0.4-0.2,0.9-0.3,1.5-0.3c0.6,0,1.1,0.1,1.6,0.3c0.4,0.2,0.8,0.5,1,0.8c0.2,0.4,0.4,0.8,0.4,1.2h-0.9c0-0.3-0.1-0.5-0.2-0.8
				s-0.4-0.4-0.7-0.6c-0.3-0.2-0.7-0.2-1.1-0.2c-0.4,0-0.8,0.1-1.1,0.2c-0.3,0.1-0.5,0.3-0.6,0.5s-0.2,0.4-0.2,0.7
				c0,0.3,0.1,0.5,0.2,0.6c0.1,0.2,0.3,0.3,0.6,0.5s0.7,0.3,1.3,0.4c0.7,0.2,1.2,0.3,1.6,0.5c0.4,0.2,0.7,0.4,0.9,0.7
				s0.3,0.6,0.3,1.1c0,0.4-0.1,0.8-0.4,1.1c-0.2,0.3-0.6,0.6-1,0.8c-0.4,0.2-1,0.3-1.5,0.3c-0.6,0-1.2-0.1-1.7-0.3
				c-0.5-0.2-0.8-0.5-1.1-0.9s-0.4-0.8-0.4-1.2h0.9c0,0.6,0.3,1,0.7,1.2c0.4,0.3,0.9,0.4,1.5,0.4c0.4,0,0.8-0.1,1.1-0.2
				s0.5-0.3,0.7-0.5c0.2-0.2,0.2-0.4,0.2-0.7c0-0.4-0.2-0.7-0.5-1s-0.9-0.5-1.7-0.7C57.9,47.8,57.4,47.6,57,47.5z"/>
			<path fill="#286A9C" d="M66.3,41c0.1,0.1,0.2,0.3,0.2,0.4c0,0.2-0.1,0.3-0.2,0.4c-0.1,0.1-0.3,0.2-0.4,0.2
				c-0.2,0-0.3-0.1-0.4-0.2c-0.1-0.1-0.2-0.2-0.2-0.4c0-0.2,0.1-0.3,0.2-0.4c0.1-0.1,0.3-0.2,0.4-0.2C66.1,40.8,66.2,40.9,66.3,41z
				 M65.4,51.6v-7.9h0.9v7.9H65.4z"/>
			<path fill="#286A9C" d="M73.6,51.6c-0.1,0-0.2,0.1-0.4,0.1c-0.2,0-0.3,0-0.5,0c-0.5,0-1-0.2-1.3-0.5S71,50.4,71,49.7v-5.3h-1.5
				v-0.7H71v-2h0.9v2h1.6v0.7h-1.6v5.3c0,0.5,0.1,0.9,0.3,1c0.2,0.2,0.4,0.3,0.8,0.3c0.2,0,0.4,0,0.7-0.1L73.6,51.6z"/>
			<path fill="#286A9C" d="M78.1,41c0.1,0.1,0.2,0.3,0.2,0.4c0,0.2-0.1,0.3-0.2,0.4C78,41.9,77.9,42,77.7,42c-0.2,0-0.3-0.1-0.4-0.2
				c-0.1-0.1-0.2-0.2-0.2-0.4c0-0.2,0.1-0.3,0.2-0.4c0.1-0.1,0.3-0.2,0.4-0.2C77.9,40.8,78,40.9,78.1,41z M77.2,51.6v-7.9h0.9v7.9
				H77.2z"/>
			<path fill="#286A9C" d="M82.7,47.7v0.2c0,0.6,0.1,1.1,0.3,1.6s0.5,0.9,1,1.1s0.9,0.4,1.4,0.4c0.5,0,0.9-0.1,1.3-0.3
				c0.4-0.2,0.7-0.4,1-0.8l0.6,0.4c-0.3,0.4-0.7,0.8-1.1,1c-0.5,0.3-1,0.4-1.7,0.4c-0.7,0-1.3-0.2-1.8-0.5c-0.5-0.3-1-0.8-1.3-1.4
				c-0.3-0.6-0.5-1.3-0.5-2v-0.3c0-0.8,0.2-1.5,0.5-2.1c0.3-0.6,0.7-1.1,1.2-1.4c0.5-0.3,1.1-0.5,1.7-0.5c0.7,0,1.2,0.2,1.7,0.5
				s0.8,0.7,1.1,1.3s0.4,1.2,0.4,1.9v0.5H82.7z M84,44.6c-0.4,0.2-0.6,0.5-0.9,0.9c-0.2,0.4-0.4,0.9-0.4,1.4h4.7v-0.1
				c0-0.5-0.1-0.9-0.3-1.3c-0.2-0.4-0.4-0.7-0.8-0.9s-0.7-0.4-1.2-0.4C84.8,44.3,84.4,44.4,84,44.6z"/>
			<path fill="#286A9C" d="M92.9,47.5c-0.4-0.2-0.7-0.4-0.9-0.7s-0.3-0.6-0.3-1.1c0-0.4,0.1-0.8,0.3-1.1s0.6-0.6,1-0.8
				c0.4-0.2,0.9-0.3,1.5-0.3c0.6,0,1.1,0.1,1.6,0.3c0.4,0.2,0.8,0.5,1,0.8c0.2,0.4,0.4,0.8,0.4,1.2h-0.9c0-0.3-0.1-0.5-0.2-0.8
				s-0.4-0.4-0.7-0.6c-0.3-0.2-0.7-0.2-1.1-0.2c-0.4,0-0.8,0.1-1.1,0.2c-0.3,0.1-0.5,0.3-0.6,0.5s-0.2,0.4-0.2,0.7
				c0,0.3,0.1,0.5,0.2,0.6c0.1,0.2,0.3,0.3,0.6,0.5s0.7,0.3,1.3,0.4c0.7,0.2,1.2,0.3,1.6,0.5c0.4,0.2,0.7,0.4,0.9,0.7
				s0.3,0.6,0.3,1.1c0,0.4-0.1,0.8-0.4,1.1c-0.2,0.3-0.6,0.6-1,0.8c-0.4,0.2-1,0.3-1.5,0.3c-0.6,0-1.2-0.1-1.7-0.3
				c-0.5-0.2-0.8-0.5-1.1-0.9s-0.4-0.8-0.4-1.2h0.9c0,0.6,0.3,1,0.7,1.2c0.4,0.3,0.9,0.4,1.5,0.4c0.4,0,0.8-0.1,1.1-0.2
				s0.5-0.3,0.7-0.5c0.2-0.2,0.2-0.4,0.2-0.7c0-0.4-0.2-0.7-0.5-1s-0.9-0.5-1.7-0.7C93.8,47.8,93.3,47.6,92.9,47.5z"/>
			<path fill="#286A9C" d="M100.5,47.3v-0.7h3.5v0.7H100.5z"/>
			<path fill="#286A9C" d="M113.3,49.2c0,0.5-0.2,0.9-0.5,1.3c-0.3,0.4-0.6,0.7-1.1,0.9c-0.5,0.2-1,0.3-1.5,0.3
				c-0.7,0-1.3-0.2-1.8-0.5c-0.5-0.3-0.9-0.8-1.1-1.4s-0.4-1.3-0.4-2v-0.3c0-0.8,0.1-1.4,0.4-2c0.3-0.6,0.6-1.1,1.1-1.4
				c0.5-0.3,1.1-0.5,1.8-0.5c0.6,0,1.1,0.1,1.5,0.3s0.8,0.6,1.1,1c0.3,0.4,0.4,0.9,0.4,1.5h-0.8c0-0.4-0.1-0.8-0.3-1.1
				c-0.2-0.3-0.5-0.5-0.8-0.7c-0.3-0.2-0.7-0.3-1.1-0.3c-0.6,0-1,0.1-1.4,0.4c-0.4,0.3-0.6,0.7-0.8,1.2c-0.2,0.5-0.3,1-0.3,1.6v0.3
				c0,0.6,0.1,1.1,0.3,1.6s0.4,0.9,0.8,1.2s0.9,0.4,1.4,0.4c0.4,0,0.7-0.1,1.1-0.2c0.3-0.1,0.6-0.4,0.8-0.6c0.2-0.3,0.3-0.6,0.4-1
				H113.3z"/>
			<path fill="#286A9C" d="M116.8,45.5c0.3-0.6,0.7-1.1,1.2-1.4c0.5-0.3,1.2-0.5,1.8-0.5c0.7,0,1.3,0.2,1.9,0.5s1,0.8,1.2,1.4
				s0.4,1.3,0.4,2.1v0.2c0,0.8-0.1,1.5-0.4,2.1s-0.7,1.1-1.2,1.4s-1.1,0.5-1.9,0.5s-1.3-0.2-1.9-0.5s-1-0.8-1.2-1.4
				s-0.4-1.3-0.4-2.1v-0.2C116.4,46.8,116.5,46.1,116.8,45.5z M117.6,49.4c0.2,0.5,0.5,0.9,0.9,1.2c0.4,0.3,0.9,0.4,1.4,0.4
				c0.6,0,1-0.1,1.4-0.4s0.7-0.7,0.9-1.2c0.2-0.5,0.3-1,0.3-1.6v-0.2c0-0.6-0.1-1.1-0.3-1.6s-0.5-0.9-0.9-1.2
				c-0.4-0.3-0.9-0.4-1.4-0.4s-1,0.1-1.4,0.4s-0.7,0.7-0.9,1.2c-0.2,0.5-0.3,1-0.3,1.6v0.2C117.3,48.4,117.4,48.9,117.6,49.4z"/>
			<path fill="#286A9C" d="M127.2,51.6V40.4h0.9v11.3H127.2z"/>
			<path fill="#286A9C" d="M132.4,51.6V40.4h0.9v11.3H132.4z"/>
			<path fill="#286A9C" d="M137.8,47.7v0.2c0,0.6,0.1,1.1,0.3,1.6s0.5,0.9,1,1.1s0.9,0.4,1.4,0.4c0.5,0,0.9-0.1,1.3-0.3
				c0.4-0.2,0.7-0.4,1-0.8l0.6,0.4c-0.3,0.4-0.7,0.8-1.1,1c-0.5,0.3-1,0.4-1.7,0.4c-0.7,0-1.3-0.2-1.8-0.5c-0.5-0.3-1-0.8-1.3-1.4
				c-0.3-0.6-0.5-1.3-0.5-2v-0.3c0-0.8,0.2-1.5,0.5-2.1c0.3-0.6,0.7-1.1,1.2-1.4c0.5-0.3,1.1-0.5,1.7-0.5c0.7,0,1.2,0.2,1.7,0.5
				s0.8,0.7,1.1,1.3s0.4,1.2,0.4,1.9v0.5H137.8z M139.1,44.6c-0.4,0.2-0.6,0.5-0.9,0.9c-0.2,0.4-0.4,0.9-0.4,1.4h4.7v-0.1
				c0-0.5-0.1-0.9-0.3-1.3c-0.2-0.4-0.4-0.7-0.8-0.9s-0.7-0.4-1.2-0.4C139.9,44.3,139.5,44.4,139.1,44.6z"/>
			<path fill="#286A9C" d="M153,43.7v7.8c0,0.7-0.1,1.3-0.4,1.8c-0.3,0.5-0.6,0.9-1.1,1.1s-1,0.4-1.7,0.4c-0.5,0-1-0.1-1.5-0.4
				c-0.5-0.2-0.9-0.6-1.2-1l0.5-0.5c0.3,0.4,0.7,0.7,1,0.9s0.8,0.3,1.2,0.3c0.7,0,1.3-0.2,1.7-0.7s0.6-1.1,0.6-1.9v-0.9
				c-0.3,0.4-0.6,0.7-1,0.9s-0.9,0.3-1.4,0.3c-0.6,0-1.2-0.2-1.6-0.5s-0.8-0.8-1.1-1.4c-0.2-0.6-0.4-1.3-0.4-2.1v-0.2
				c0-0.8,0.1-1.5,0.4-2.1c0.2-0.6,0.6-1.1,1.1-1.4c0.5-0.3,1-0.5,1.6-0.5c0.6,0,1,0.1,1.5,0.3c0.4,0.2,0.8,0.5,1,1l0-1.1H153z
				 M151.3,50.6c0.4-0.3,0.7-0.6,0.9-1.1v-3.7c-0.2-0.5-0.5-0.8-0.8-1.1c-0.4-0.3-0.9-0.4-1.4-0.4c-0.5,0-1,0.1-1.3,0.4
				s-0.6,0.7-0.8,1.2c-0.2,0.5-0.3,1.1-0.3,1.7v0.2c0,0.6,0.1,1.2,0.3,1.7s0.4,0.9,0.8,1.2s0.8,0.4,1.3,0.4
				C150.4,51,150.9,50.9,151.3,50.6z"/>
			<path fill="#286A9C" d="M157.5,47.7v0.2c0,0.6,0.1,1.1,0.3,1.6s0.5,0.9,1,1.1s0.9,0.4,1.4,0.4c0.5,0,0.9-0.1,1.3-0.3
				c0.4-0.2,0.7-0.4,1-0.8l0.6,0.4c-0.3,0.4-0.7,0.8-1.1,1c-0.5,0.3-1,0.4-1.7,0.4c-0.7,0-1.3-0.2-1.8-0.5c-0.5-0.3-1-0.8-1.3-1.4
				c-0.3-0.6-0.5-1.3-0.5-2v-0.3c0-0.8,0.2-1.5,0.5-2.1c0.3-0.6,0.7-1.1,1.2-1.4c0.5-0.3,1.1-0.5,1.7-0.5c0.7,0,1.2,0.2,1.7,0.5
				s0.8,0.7,1.1,1.3s0.4,1.2,0.4,1.9v0.5H157.5z M158.8,44.6c-0.4,0.2-0.6,0.5-0.9,0.9c-0.2,0.4-0.4,0.9-0.4,1.4h4.7v-0.1
				c0-0.5-0.1-0.9-0.3-1.3c-0.2-0.4-0.4-0.7-0.8-0.9s-0.7-0.4-1.2-0.4C159.6,44.3,159.2,44.4,158.8,44.6z"/>
			<path fill="#286A9C" d="M167.8,47.5c-0.4-0.2-0.7-0.4-0.9-0.7s-0.3-0.6-0.3-1.1c0-0.4,0.1-0.8,0.3-1.1s0.6-0.6,1-0.8
				c0.4-0.2,0.9-0.3,1.5-0.3c0.6,0,1.1,0.1,1.6,0.3c0.4,0.2,0.8,0.5,1,0.8c0.2,0.4,0.4,0.8,0.4,1.2h-0.9c0-0.3-0.1-0.5-0.2-0.8
				s-0.4-0.4-0.7-0.6c-0.3-0.2-0.7-0.2-1.1-0.2c-0.4,0-0.8,0.1-1.1,0.2c-0.3,0.1-0.5,0.3-0.6,0.5s-0.2,0.4-0.2,0.7
				c0,0.3,0.1,0.5,0.2,0.6c0.1,0.2,0.3,0.3,0.6,0.5s0.8,0.3,1.3,0.4c0.7,0.2,1.2,0.3,1.6,0.5c0.4,0.2,0.7,0.4,0.9,0.7
				s0.3,0.6,0.3,1.1c0,0.4-0.1,0.8-0.4,1.1c-0.2,0.3-0.6,0.6-1,0.8c-0.4,0.2-1,0.3-1.5,0.3c-0.6,0-1.2-0.1-1.7-0.3
				c-0.5-0.2-0.8-0.5-1.1-0.9s-0.4-0.8-0.4-1.2h0.9c0,0.6,0.3,1,0.7,1.2c0.4,0.3,0.9,0.4,1.5,0.4c0.4,0,0.8-0.1,1.1-0.2
				s0.5-0.3,0.7-0.5c0.2-0.2,0.2-0.4,0.2-0.7c0-0.4-0.2-0.7-0.5-1s-0.9-0.5-1.7-0.7C168.7,47.8,168.2,47.6,167.8,47.5z"/>
			<path fill="#286A9C" d="M177.1,50.6c0.1,0.1,0.2,0.3,0.2,0.4c0,0.2-0.1,0.3-0.2,0.4c-0.1,0.1-0.3,0.2-0.5,0.2s-0.3-0.1-0.5-0.2
				c-0.1-0.1-0.2-0.3-0.2-0.4s0.1-0.3,0.2-0.4c0.1-0.1,0.3-0.2,0.5-0.2S176.9,50.5,177.1,50.6z"/>
			<path fill="#286A9C" d="M181.4,45.5c0.3-0.6,0.7-1.1,1.2-1.4c0.5-0.3,1.2-0.5,1.8-0.5c0.7,0,1.3,0.2,1.9,0.5s1,0.8,1.2,1.4
				s0.4,1.3,0.4,2.1v0.2c0,0.8-0.1,1.5-0.4,2.1s-0.7,1.1-1.2,1.4s-1.2,0.5-1.9,0.5s-1.3-0.2-1.9-0.5s-1-0.8-1.2-1.4
				s-0.4-1.3-0.4-2.1v-0.2C181,46.8,181.1,46.1,181.4,45.5z M182.2,49.4c0.2,0.5,0.5,0.9,0.9,1.2c0.4,0.3,0.9,0.4,1.4,0.4
				c0.6,0,1-0.1,1.4-0.4s0.7-0.7,0.9-1.2c0.2-0.5,0.3-1,0.3-1.6v-0.2c0-0.6-0.1-1.1-0.3-1.6s-0.5-0.9-0.9-1.2
				c-0.4-0.3-0.9-0.4-1.4-0.4s-1,0.1-1.4,0.4s-0.7,0.7-0.9,1.2c-0.2,0.5-0.3,1-0.3,1.6v0.2C181.8,48.4,181.9,48.9,182.2,49.4z"/>
			<path fill="#286A9C" d="M195.3,44.4c-0.2,0-0.4-0.1-0.6-0.1c-0.6,0-1,0.2-1.4,0.5s-0.6,0.7-0.8,1.3v5.5h-0.9v-7.9h0.9l0,1.2
				c0.2-0.4,0.5-0.8,0.9-1c0.4-0.2,0.8-0.4,1.3-0.4c0.1,0,0.2,0,0.3,0c0.1,0,0.2,0,0.3,0.1L195.3,44.4z"/>
			<path fill="#286A9C" d="M204.5,43.7v7.8c0,0.7-0.1,1.3-0.4,1.8c-0.3,0.5-0.6,0.9-1.1,1.1s-1,0.4-1.7,0.4c-0.5,0-1-0.1-1.5-0.4
				c-0.5-0.2-0.9-0.6-1.2-1l0.5-0.5c0.3,0.4,0.7,0.7,1,0.9s0.8,0.3,1.2,0.3c0.7,0,1.3-0.2,1.7-0.7s0.6-1.1,0.6-1.9v-0.9
				c-0.3,0.4-0.6,0.7-1,0.9s-0.9,0.3-1.4,0.3c-0.6,0-1.2-0.2-1.6-0.5s-0.8-0.8-1.1-1.4c-0.2-0.6-0.4-1.3-0.4-2.1v-0.2
				c0-0.8,0.1-1.5,0.4-2.1c0.2-0.6,0.6-1.1,1.1-1.4c0.5-0.3,1-0.5,1.6-0.5c0.6,0,1,0.1,1.5,0.3c0.4,0.2,0.8,0.5,1,1l0-1.1H204.5z
				 M202.8,50.6c0.4-0.3,0.7-0.6,0.9-1.1v-3.7c-0.2-0.5-0.5-0.8-0.8-1.1c-0.4-0.3-0.9-0.4-1.4-0.4c-0.5,0-1,0.1-1.3,0.4
				s-0.6,0.7-0.8,1.2c-0.2,0.5-0.3,1.1-0.3,1.7v0.2c0,0.6,0.1,1.2,0.3,1.7s0.4,0.9,0.8,1.2s0.8,0.4,1.3,0.4
				C201.9,51,202.4,50.9,202.8,50.6z"/>
			<path fill="#286A9C" d="M209.6,50.6c0.1,0.1,0.2,0.3,0.2,0.4c0,0.2-0.1,0.3-0.2,0.4c-0.1,0.1-0.3,0.2-0.5,0.2s-0.3-0.1-0.5-0.2
				c-0.1-0.1-0.2-0.3-0.2-0.4s0.1-0.3,0.2-0.4c0.1-0.1,0.3-0.2,0.5-0.2S209.5,50.5,209.6,50.6z"/>
			<path fill="#286A9C" d="M215,41c0.1,0.1,0.2,0.3,0.2,0.4c0,0.2-0.1,0.3-0.2,0.4c-0.1,0.1-0.3,0.2-0.4,0.2c-0.2,0-0.3-0.1-0.4-0.2
				c-0.1-0.1-0.2-0.2-0.2-0.4c0-0.2,0.1-0.3,0.2-0.4c0.1-0.1,0.3-0.2,0.4-0.2C214.7,40.8,214.9,40.9,215,41z M214.1,51.6v-7.9h0.9
				v7.9H214.1z"/>
			<path fill="#286A9C" d="M219.3,51.6V40.4h0.9v11.3H219.3z"/>
		</g>
	</g>
</g>
</svg>
