<?xml version="1.0" encoding="utf-8"?>
<!-- Generator: Adobe Illustrator 18.1.0, SVG Export Plug-In . SVG Version: 6.00 Build 0)  -->
<svg version="1.1" id="Layer_1" xmlns="http://www.w3.org/2000/svg" xmlns:xlink="http://www.w3.org/1999/xlink" x="0px" y="0px"
	 width="65px" height="65px" viewBox="0 0 65 65" enable-background="new 0 0 65 65" xml:space="preserve">
<g>
	<rect fill="#E2E5E9" width="65" height="65"/>
	<g>
		<path fill="#FFFFFF" d="M33,32.1h-1c-6.8,0.2-14.2,2.8-13.5,9.4l0.7,6.1c0.4,3.1,2.4,3.6,6.4,3.6h13.6c4,0,6-0.5,6.4-3.6l0.7-6.1
			C47.2,34.9,39.8,32.3,33,32.1z"/>
		<path fill="#FFFFFF" d="M40.6,21.5c0-2.7-1.6-5-3.7-6.4c-1.2-0.8-2.7-1.3-4.3-1.3c-0.1,0-0.1,0-0.2,0c-0.1,0-0.1,0-0.2,0
			c-4.4,0.1-8,3.7-8,8.2c0,4.5,3.7,8.2,8.2,8.2c4.5,0,8.2-3.7,8.2-8.2C40.6,21.8,40.6,21.7,40.6,21.5z"/>
	</g>
</g>
</svg>
