<?xml version="1.0" encoding="utf-8"?>
<!-- Generator: Adobe Illustrator 18.1.0, SVG Export Plug-In . SVG Version: 6.00 Build 0)  -->
<svg version="1.1" id="Layer_1" xmlns="http://www.w3.org/2000/svg" xmlns:xlink="http://www.w3.org/1999/xlink" x="0px" y="0px"
	 width="98px" height="202px" viewBox="117.5 -68.5 98 202" enable-background="new 117.5 -68.5 98 202" xml:space="preserve">
<path fill="#FFFFFF" d="M170.2-21.1c0-0.8-0.7-1.5-1.5-1.5h-51.2v3h51.2C169.5-19.6,170.2-20.2,170.2-21.1z M190.3,7.6
	c0-0.8-0.7-1.5-1.5-1.5h-71.3v3h71.3C189.6,9.1,190.3,8.5,190.3,7.6z M162.2,64.9c0-0.8-0.7-1.5-1.5-1.5h-43.2v3h43.2
	C161.5,66.4,162.2,65.8,162.2,64.9z M135.2,36.2c0-0.8-0.7-1.5-1.5-1.5h-16.2v3h16.2C134.5,37.7,135.2,37.1,135.2,36.2z M215.5,21.1
	c0-48.5-43.7-88.1-98-89.4v3c52.6,1.3,95,39.5,95,86.4c0,23.7-10.6,45.7-29.8,62.2c-0.4,0.3-0.6,0.8-0.5,1.3l5.7,44.7
	c-16.1-6.8-29.8-15.4-40.8-25.7c-0.3-0.3-0.6-0.4-1-0.4c-0.1,0-0.3,0-0.4,0.1c-9.1,2.7-18.6,4.2-28.2,4.4v3
	c9.6-0.2,19.1-1.7,28.2-4.3c11.7,10.8,26.3,19.8,43.4,26.7c0.2,0.1,0.4,0.1,0.6,0.1c0.3,0,0.6-0.1,0.9-0.3c0.4-0.3,0.6-0.8,0.6-1.4
	L185.3,85C204.8,68.1,215.5,45.4,215.5,21.1z"/>
</svg>
