<?xml version="1.0" encoding="utf-8"?>
<!-- Generator: Adobe Illustrator 18.1.0, SVG Export Plug-In . SVG Version: 6.00 Build 0)  -->
<svg version="1.1" id="Layer_1" xmlns="http://www.w3.org/2000/svg" xmlns:xlink="http://www.w3.org/1999/xlink" x="0px" y="0px"
	 width="16px" height="16px" viewBox="0 0 16 16" enable-background="new 0 0 16 16" xml:space="preserve">
<g>
	<g>
		<path fill="#195B8C" d="M8,2.1c3.3,0,5.9,2.6,5.9,5.9c0,3.3-2.6,5.9-5.9,5.9S2.1,11.3,2.1,8C2.1,4.7,4.7,2.1,8,2.1L8,2.1z M8,0.1
			C3.6,0.1,0.1,3.6,0.1,8s3.5,7.9,7.9,7.9c4.4,0,7.9-3.5,7.9-7.9S12.4,0.1,8,0.1L8,0.1z"/>
		<path fill="#195B8C" d="M11.6,7H9.1C8.8,6.7,8.4,6.5,8,6.5c-0.1,0-0.3,0-0.4,0.1L5.4,3.7C5.2,3.5,4.9,3.4,4.7,3.6
			C4.5,3.8,4.4,4.1,4.6,4.3l2.2,2.9C6.6,7.4,6.5,7.7,6.5,8c0,0.8,0.7,1.5,1.5,1.5c0.4,0,0.8-0.2,1.1-0.5h2.5c0.5,0,1-0.5,1-1
			C12.6,7.5,12.1,7,11.6,7z"/>
	</g>
</g>
</svg>
