<?xml version="1.0" encoding="utf-8"?>
<!-- Generator: Adobe Illustrator 18.1.0, SVG Export Plug-In . SVG Version: 6.00 Build 0)  -->
<svg version="1.1" id="Layer_1" xmlns="http://www.w3.org/2000/svg" xmlns:xlink="http://www.w3.org/1999/xlink" x="0px" y="0px"
	 width="25px" height="25px" viewBox="0 0 25 25" enable-background="new 0 0 25 25" xml:space="preserve">
<path fill="#216396" d="M9.4,20.1l4.5,4.5c0.2,0.2,0.5,0.3,0.8,0.3c0.1,0,0.3,0,0.4-0.1c0.5-0.2,0.7-0.5,0.7-1V10.7L24.6,2
	c0.4-0.3,0.4-0.8,0.2-1.2c-0.2-0.5-0.5-0.7-1-0.7H1.2c-0.5,0-0.8,0.2-1,0.7C-0.1,1.2,0,1.6,0.4,2l8.7,8.7v8.6
	C9.1,19.6,9.2,19.9,9.4,20.1z"/>
</svg>
