<?xml version="1.0" encoding="utf-8"?>
<!-- Generator: Adobe Illustrator 18.1.0, SVG Export Plug-In . SVG Version: 6.00 Build 0)  -->
<svg version="1.1" id="Layer_1" xmlns="http://www.w3.org/2000/svg" xmlns:xlink="http://www.w3.org/1999/xlink" x="0px" y="0px"
	 width="15px" height="15px" viewBox="0 0 15 15" enable-background="new 0 0 15 15" xml:space="preserve">
<path fill="#FFFFFF" d="M10.3,7.5l3.2-3.2c0.2-0.2,0.2-0.5,0-0.7l-2.1-2.1c-0.2-0.2-0.5-0.2-0.7,0L7.5,4.7L4.3,1.4
	c-0.2-0.2-0.5-0.2-0.7,0L1.4,3.6c-0.2,0.2-0.2,0.5,0,0.7l3.2,3.2l-3.2,3.2c-0.2,0.2-0.2,0.5,0,0.7l2.1,2.1c0.2,0.2,0.5,0.2,0.7,0
	l3.2-3.2l3.2,3.2c0.2,0.2,0.5,0.2,0.7,0l2.1-2.1c0.2-0.2,0.2-0.5,0-0.7L10.3,7.5z"/>
</svg>
