<?xml version="1.0" encoding="utf-8"?>
<!-- Generator: Adobe Illustrator 18.1.0, SVG Export Plug-In . SVG Version: 6.00 Build 0)  -->
<svg version="1.1" id="Layer_1" xmlns="http://www.w3.org/2000/svg" xmlns:xlink="http://www.w3.org/1999/xlink" x="0px" y="0px"
	 width="16px" height="16px" viewBox="0 0 16 16" enable-background="new 0 0 16 16" xml:space="preserve">
<g>
	<g>
		<g>
			<path fill="#17507C" d="M0.2,5.5L0.1,0.6c0-0.2,0.2-0.5,0.4-0.4l4.9,0.1C5.8,0.3,6,0.7,5.7,1L4.4,2.4l2.3,2.3L4.5,6.7L2.3,4.5
				L0.9,5.8C0.6,6.1,0.2,5.9,0.2,5.5z"/>
			<path fill="#17507C" d="M13.7,4.5l1.4,1.4c0.3,0.3,0.8,0.1,0.8-0.3l0.1-4.9c0-0.2-0.2-0.5-0.4-0.4l-4.9,0.1
				c-0.4,0-0.6,0.5-0.3,0.8l1.4,1.4L9.4,4.7l2.1,2.1L13.7,4.5z"/>
			<path fill="#17507C" d="M10.3,15c-0.3,0.3-0.1,0.8,0.3,0.8l4.9,0.1c0.2,0,0.5-0.2,0.4-0.4l-0.1-4.9c0-0.4-0.5-0.6-0.8-0.3
				l-1.4,1.4l-2.3-2.3l-2.1,2.1l2.3,2.3L10.3,15z"/>
			<path fill="#17507C" d="M0.5,15.8l4.9-0.1c0.4,0,0.6-0.5,0.3-0.8l-1.4-1.4l2.3-2.3L4.5,9.2l-2.3,2.3l-1.4-1.4
				C0.6,9.9,0.2,10,0.2,10.4l-0.1,4.9C0.1,15.6,0.3,15.8,0.5,15.8z"/>
		</g>
	</g>
</g>
</svg>
