<?xml version="1.0" encoding="utf-8"?>
<!-- Generator: Adobe Illustrator 18.1.0, SVG Export Plug-In . SVG Version: 6.00 Build 0)  -->
<svg version="1.1" id="Layer_1" xmlns="http://www.w3.org/2000/svg" xmlns:xlink="http://www.w3.org/1999/xlink" x="0px" y="0px"
	 width="55px" height="48px" viewBox="0 0 55 48" enable-background="new 0 0 55 48" xml:space="preserve">
<g>
	<path opacity="5.000000e-002" fill="#010202" d="M27.3,47.6L4.7,27.2h14c0,0,0,0,0,0c0-0.5,4.1-22.9,34.2-22.9
		c0,0-16.7,5.3-16.7,17.6c0,1.7,0.3,3.4,0.8,5.3H50L27.3,47.6z"/>
	<rect x="-8.8" y="-11.4" fill="none" width="63.8" height="36.9"/>
	<linearGradient id="SVGID_1_" gradientUnits="userSpaceOnUse" x1="27.3445" y1="8.3172" x2="27.3445" y2="37.6737">
		<stop  offset="0" style="stop-color:#AED606"/>
		<stop  offset="1" style="stop-color:#8EBC07"/>
	</linearGradient>
	<path fill="url(#SVGID_1_)" d="M27.3,47.6l-22.7-22h14c0,0,0,0,0,0c0-0.5,0.1-24.7,30.2-24.7c0,0-13.7,5.7-13.7,19
		c0,1.8,0.3,3.7,0.8,5.7H50L27.3,47.6z"/>
</g>
</svg>
