<?xml version="1.0" encoding="utf-8"?>
<!-- Generator: Adobe Illustrator 18.1.0, SVG Export Plug-In . SVG Version: 6.00 Build 0)  -->
<svg version="1.1" id="Layer_1" xmlns="http://www.w3.org/2000/svg" xmlns:xlink="http://www.w3.org/1999/xlink" x="0px" y="0px"
	 width="47px" height="31px" viewBox="0 0 47 31" enable-background="new 0 0 47 31" xml:space="preserve">
<g>
	<g>
		<path fill="#FFFFFF" d="M15.9,30.7c-8.5,0-15.5-6.8-15.5-15.2c0-8.4,7-15.2,15.5-15.2c3.7,0,7.4,1.3,10.2,3.7l-3.9,4.5
			c-1.7-1.5-3.9-2.3-6.2-2.3c-5.2,0-9.5,4.2-9.5,9.3c0,5.1,4.3,9.3,9.5,9.3c4.4,0,7.3-2.1,8.3-5.9h-8.2V13h14.5v2.9
			C30.5,24.8,24.6,30.7,15.9,30.7z"/>
	</g>
	<polygon fill="#FFFFFF" points="46.7,13 42.2,13 42.2,8.5 38.6,8.5 38.6,13 34.1,13 34.1,16.6 38.6,16.6 38.6,21.1 42.2,21.1 
		42.2,16.6 46.7,16.6 	"/>
</g>
</svg>
