<?xml version="1.0" encoding="utf-8"?>
<!-- Generator: Adobe Illustrator 18.1.0, SVG Export Plug-In . SVG Version: 6.00 Build 0)  -->
<svg version="1.1" id="Layer_1" xmlns="http://www.w3.org/2000/svg" xmlns:xlink="http://www.w3.org/1999/xlink" x="0px" y="0px"
	 width="53px" height="44px" viewBox="0 0 53 44" enable-background="new 0 0 53 44" xml:space="preserve">
<defs>
	<linearGradient id="grad1" x1="0%" y1="0%" x2="100%" y2="0%">
		<stop  offset="0" style="stop-color:#ADD606"/>
		<stop  offset="1" style="stop-color:#8FBD07"/>
	</linearGradient>
</defs>
<g>
	<path fill="url(#grad1)" d="M45.8,1.4C39-1.8,30.7,0.7,27.6,6c-0.4,0.7-1.1,1.8-1.1,1.8l-0.1,0.1c0,0-0.7-1.2-1.1-1.8
		C22.3,0.7,14-1.7,7.2,1.5C0.4,4.7-1.7,13.9,1.5,20.7c4.2,8.9,25,23.3,25,23.3l0.1-0.1c0,0,20.8-14.4,25-23.3
		C54.7,13.8,52.6,4.7,45.8,1.4z"/>
	<path fill="#73A403" d="M51.5,17.6c-4.2,8.9-25,23.3-25,23.3L26.5,41c0,0-20.8-14.4-25-23.3c-0.8-1.6-1.2-3.4-1.4-5.2
		c-0.3,2.8,0.2,5.7,1.4,8.2c4.2,8.9,25,23.3,25,23.3l0.1-0.1c0,0,20.8-14.4,25-23.3c1.2-2.6,1.7-5.4,1.4-8.2
		C52.7,14.2,52.3,16,51.5,17.6z"/>
</g>
</svg>
