<?xml version="1.0" encoding="utf-8"?>
<!-- Generator: Adobe Illustrator 18.1.0, SVG Export Plug-In . SVG Version: 6.00 Build 0)  -->
<svg version="1.1" id="Layer_1" xmlns="http://www.w3.org/2000/svg" xmlns:xlink="http://www.w3.org/1999/xlink" x="0px" y="0px"
	 width="51px" height="67px" viewBox="0 0 51 67" enable-background="new 0 0 51 67" xml:space="preserve">
<g>
	<g>
		<path fill="#8DBA06" d="M28.4,12.3V1.7c0-0.7-0.6-1.3-1.3-1.3c-0.7,0-1.3,0.6-1.3,1.3v10.7c0,0.7,0.6,1.3,1.3,1.3
			C27.8,13.7,28.4,13.1,28.4,12.3z"/>
		<path fill="#8DBA06" d="M16.9,16.7c0.3,0,0.7-0.1,0.9-0.4c0.5-0.5,0.5-1.4,0-1.9l-7.5-7.5C9.8,6.3,9,6.3,8.4,6.8s-0.5,1.4,0,1.9
			l7.5,7.5C16.2,16.5,16.6,16.7,16.9,16.7z"/>
		<path fill="#8DBA06" d="M49.2,24.3H38.5c-0.7,0-1.3,0.6-1.3,1.3c0,0.7,0.6,1.3,1.3,1.3h10.7c0.7,0,1.3-0.6,1.3-1.3
			C50.5,24.9,49.9,24.3,49.2,24.3z"/>
		<path fill="#8DBA06" d="M3.5,25.6c0,0.7,0.6,1.3,1.3,1.3h10.7c0.7,0,1.3-0.6,1.3-1.3c0-0.7-0.6-1.3-1.3-1.3H4.9
			C4.1,24.3,3.5,24.9,3.5,25.6z"/>
		<path fill="#8DBA06" d="M36.9,17l7.5-7.5C45,9,45,8.1,44.4,7.6c-0.5-0.5-1.4-0.5-1.9,0L35,15.2c-0.5,0.5-0.5,1.4,0,1.9
			c0.3,0.3,0.6,0.4,0.9,0.4C36.3,17.4,36.7,17.3,36.9,17z"/>
		<path fill="#286A9C" d="M0.5,40v23.2c0,1.5,1.2,2.6,2.6,2.6H11c0.9,0,1.7-0.4,2.2-1.1c1.3,1.2,2.9,1.9,4.8,1.9h21.1
			c4.7,0,7.8-2.5,8.3-6.8l2.8-18.1c0-0.1,0-0.1,0-0.2c0-3.9-3.1-7-7-7H32.7V27c0-3.3-1-5.7-2.9-7.1c-3-2.2-7.1-0.9-7.3-0.9
			c-0.6,0.2-0.9,0.7-0.9,1.3v8.6c0,6.7-7.8,9-8.1,9.1c-0.2,0-0.3,0.1-0.4,0.2c-0.5-0.5-1.2-0.9-2-0.9H3.1C1.7,37.4,0.5,38.6,0.5,40z
			 M13.7,40.7c0.2,0,0.3,0,0.5,0c0.4-0.1,10.1-2.9,10.1-11.7v-7.6c1-0.2,2.8-0.2,4,0.7c1.2,0.9,1.8,2.5,1.8,4.9v8.9
			c0,0.7,0.6,1.3,1.3,1.3h11.9c2.4,0,4.3,1.9,4.3,4.2l-2.8,18c0,0,0,0,0,0c-0.4,3-2.3,4.5-5.6,4.5H18c-2.4,0-4.3-1.9-4.3-4.3
			L13.7,40.7L13.7,40.7z M3.2,40.1H11v23.1H3.2V40.1z"/>
	</g>
</g>
</svg>
