<?xml version="1.0" encoding="utf-8"?>
<!-- Generator: Adobe Illustrator 18.1.0, SVG Export Plug-In . SVG Version: 6.00 Build 0)  -->
<svg version="1.1" id="Layer_1" xmlns="http://www.w3.org/2000/svg" xmlns:xlink="http://www.w3.org/1999/xlink" x="0px" y="0px"
	 width="25px" height="26px" viewBox="0 0 25 26" enable-background="new 0 0 25 26" xml:space="preserve">
<path fill="#E1E091" d="M24.3,19.7L15.5,2.8c-1.7-3.2-4.4-3.2-6,0L0.7,19.7c-1.7,3.2-0.1,5.8,3.6,5.8h16.4
	C24.3,25.6,25.9,23,24.3,19.7z M10.5,8c0.4-0.4,0.8-0.5,1.4-0.5h1.2c0.5,0,1,0.1,1.4,0.5c0.4,0.4,0.5,0.8,0.5,1.4l-0.3,4.8
	c-0.1,1.1-1,1.9-2.1,1.9c-1.1,0-2-0.9-2.1-1.9l-0.3-4.8C10,8.8,10.2,8.4,10.5,8z M12.5,22.6c-1.4,0-2.5-1.1-2.5-2.5s1.1-2.5,2.5-2.5
	c1.4,0,2.5,1.1,2.5,2.5S13.9,22.6,12.5,22.6z"/>
</svg>
