<?xml version="1.0" encoding="utf-8"?>
<!-- Generator: Adobe Illustrator 18.1.0, SVG Export Plug-In . SVG Version: 6.00 Build 0)  -->
<svg version="1.1" id="Layer_1" xmlns="http://www.w3.org/2000/svg" xmlns:xlink="http://www.w3.org/1999/xlink" x="0px" y="0px"
	 width="88px" height="62px" viewBox="0 0 88 62" enable-background="new 0 0 88 62" xml:space="preserve">
<g>
	<path id="Triangle_3_" fill="#FFFFFF" d="M34.9,42.4l23.8-12.3L34.9,17.7V42.4z"/>
	<path id="The_Sharpness_3_" opacity="0.12" fill-rule="evenodd" clip-rule="evenodd" fill="#420000" d="M34.9,17.7l20.9,13.9
		l2.9-1.5L34.9,17.7z"/>
	<g id="Lozenge_5_">
		<g>
			<path fill="#28699B" d="M87.1,13.4c0,0-0.9-6.1-3.5-8.7c-3.3-3.5-7.1-3.5-8.8-3.7C62.5,0.1,44,0.1,44,0.1h0c0,0-18.5,0-30.8,0.9
				c-1.7,0.2-5.5,0.2-8.8,3.7c-2.6,2.7-3.5,8.7-3.5,8.7S0,20.5,0,27.6v6.7c0,7.1,0.9,14.2,0.9,14.2s0.9,6.1,3.5,8.7
				c3.3,3.5,7.7,3.4,9.7,3.8c7,0.7,29.9,0.9,29.9,0.9s18.5,0,30.8-0.9c1.7-0.2,5.5-0.2,8.8-3.7c2.6-2.7,3.5-8.7,3.5-8.7
				S88,41.4,88,34.3v-6.7C88,20.5,87.1,13.4,87.1,13.4z M34.9,42.4l0-24.7l23.8,12.4L34.9,42.4z"/>
		</g>
	</g>
</g>
</svg>
