<?xml version="1.0" encoding="utf-8"?>
<!-- Generator: Adobe Illustrator 18.1.0, SVG Export Plug-In . SVG Version: 6.00 Build 0)  -->
<svg version="1.1" id="Layer_1" xmlns="http://www.w3.org/2000/svg" xmlns:xlink="http://www.w3.org/1999/xlink" x="0px" y="0px"
	 width="14px" height="14px" viewBox="0 0 14 14" enable-background="new 0 0 14 14" xml:space="preserve">
<path fill="#B7C4CE" d="M13.5,5H9V0.6C9,0.3,8.8,0,8.5,0h-3C5.2,0,5,0.3,5,0.6V5H0.5C0.2,5,0,5.3,0,5.6v3C0,8.9,0.2,9,0.5,9H5v4.6
	C5,13.9,5.2,14,5.5,14h3C8.8,14,9,13.9,9,13.6V9h4.5C13.8,9,14,8.9,14,8.6v-3C14,5.3,13.8,5,13.5,5z"/>
</svg>
