<?xml version="1.0" encoding="utf-8"?>
<!-- Generator: Adobe Illustrator 18.1.0, SVG Export Plug-In . SVG Version: 6.00 Build 0)  -->
<svg version="1.1" id="Layer_1" xmlns="http://www.w3.org/2000/svg" xmlns:xlink="http://www.w3.org/1999/xlink" x="0px" y="0px"
	 width="19px" height="18px" viewBox="0 0 19 18" enable-background="new 0 0 19 18" xml:space="preserve">
<g>
	<g>
		<path fill="#D5DADF" d="M17.4,12c-1,2.3-2.4,4.3-4.2,5.9l-2.9-2.1c1.3-1.8,2.2-3.5,2.9-5.2c0.6-1.7,0.9-3.6,0.9-5.7V0.1H19v4.6
			C19,7.2,18.5,9.6,17.4,12z M7.1,12c-1,2.3-2.4,4.3-4.2,5.9L0,15.7c1.3-1.8,2.2-3.5,2.9-5.2c0.6-1.7,0.9-3.6,0.9-5.7V0.1h4.9v4.6
			C8.7,7.2,8.2,9.6,7.1,12z"/>
	</g>
</g>
</svg>
