<?xml version="1.0" encoding="utf-8"?>
<!-- Generator: Adobe Illustrator 18.1.0, SVG Export Plug-In . SVG Version: 6.00 Build 0)  -->
<svg version="1.1" id="Layer_1" xmlns="http://www.w3.org/2000/svg" xmlns:xlink="http://www.w3.org/1999/xlink" x="0px" y="0px"
	 width="19px" height="18px" viewBox="0 0 19 18" enable-background="new 0 0 19 18" xml:space="preserve">
<g>
	<g>
		<path fill="#D5DADF" d="M1.6,6c1-2.3,2.4-4.3,4.2-5.9l2.9,2.1C7.4,4,6.4,5.7,5.8,7.5c-0.6,1.7-0.9,3.6-0.9,5.7v4.7H0v-4.6
			C0,10.8,0.5,8.4,1.6,6z M11.9,6c1-2.3,2.4-4.3,4.2-5.9L19,2.3c-1.3,1.8-2.2,3.5-2.9,5.2c-0.6,1.7-0.9,3.6-0.9,5.7v4.7h-4.9v-4.6
			C10.3,10.8,10.8,8.4,11.9,6z"/>
	</g>
</g>
</svg>
