<?xml version="1.0" encoding="utf-8"?>
<!-- Generator: Adobe Illustrator 18.1.0, SVG Export Plug-In . SVG Version: 6.00 Build 0)  -->
<svg version="1.1" id="Layer_1" xmlns="http://www.w3.org/2000/svg" xmlns:xlink="http://www.w3.org/1999/xlink" x="0px" y="0px"
	 width="20px" height="20px" viewBox="0 0 20 20" enable-background="new 0 0 20 20" xml:space="preserve">
<g>
	<circle fill="#17507C" cx="10" cy="10" r="9.8"/>
	<g>
		<path fill="#FFFFFF" d="M9.1,11c0.1-0.3,0.2-0.6,0.4-0.8s0.4-0.5,0.7-0.8c0.3-0.3,0.5-0.5,0.7-0.7s0.3-0.3,0.4-0.6
			c0.1-0.2,0.2-0.4,0.2-0.7c0-0.4-0.1-0.8-0.3-1c-0.2-0.2-0.5-0.4-1-0.4c-0.4,0-0.7,0.1-1,0.3s-0.4,0.5-0.4,1H6.8
			c0-0.6,0.2-1.1,0.4-1.5s0.7-0.7,1.1-1c0.5-0.2,1-0.3,1.6-0.3c0.7,0,1.2,0.1,1.7,0.3c0.5,0.2,0.8,0.5,1.1,1
			c0.2,0.4,0.4,0.9,0.4,1.5c0,0.4-0.1,0.8-0.2,1.1c-0.2,0.3-0.4,0.7-0.6,0.9s-0.6,0.6-1,1c-0.2,0.2-0.4,0.5-0.5,0.8
			c-0.1,0.3-0.2,0.6-0.2,1H9C9,11.7,9,11.4,9.1,11z M10.6,13.8c0.2,0.2,0.3,0.4,0.3,0.7s-0.1,0.5-0.3,0.7c-0.2,0.2-0.4,0.3-0.8,0.3
			c-0.3,0-0.6-0.1-0.8-0.3c-0.2-0.2-0.3-0.4-0.3-0.7s0.1-0.5,0.3-0.7s0.4-0.3,0.8-0.3C10.2,13.5,10.4,13.6,10.6,13.8z"/>
	</g>
</g>
</svg>
