<?xml version="1.0" encoding="utf-8"?>
<!-- Generator: Adobe Illustrator 18.1.0, SVG Export Plug-In . SVG Version: 6.00 Build 0)  -->
<svg version="1.1" id="Layer_1" xmlns="http://www.w3.org/2000/svg" xmlns:xlink="http://www.w3.org/1999/xlink" x="0px" y="0px"
	 width="40px" height="40px" viewBox="0 0 40 40" enable-background="new 0 0 40 40" xml:space="preserve">
<path fill="#216396" d="M38.6,33.1l-6.2-6.2c-0.7-0.7-1.5-1-2.4-1.1c1.7-2.6,2.8-5.7,2.8-9.1c0-9-7.3-16.2-16.2-16.2
	c-9,0-16.2,7.3-16.2,16.2c0,9,7.3,16.2,16.2,16.2c3.6,0,6.9-1.2,9.6-3.1c0.1,0.8,0.4,1.7,1,2.3l6.2,6.2c1.1,1,3.5,1.6,5.3,0
	C40.2,37.1,40.1,34.6,38.6,33.1z M16.5,28c-6.2,0-11.2-5-11.2-11.2s5-11.2,11.2-11.2c6.2,0,11.2,5,11.2,11.2S22.7,28,16.5,28z"/>
</svg>
