<?xml version="1.0" encoding="utf-8"?>
<!-- Generator: Adobe Illustrator 18.1.0, SVG Export Plug-In . SVG Version: 6.00 Build 0)  -->
<svg version="1.1" id="Layer_1" xmlns="http://www.w3.org/2000/svg" xmlns:xlink="http://www.w3.org/1999/xlink" x="0px" y="0px"
	 width="18px" height="18px" viewBox="0 0 18 18" enable-background="new 0 0 18 18" xml:space="preserve">
<path fill="#FFFFFF" d="M17.3,14.8l-2.8-2.8c-0.3-0.3-0.7-0.4-1.1-0.5c0.8-1.1,1.2-2.5,1.2-4c0-4-3.2-7.2-7.2-7.2
	c-4,0-7.2,3.2-7.2,7.2c0,4,3.2,7.2,7.2,7.2c1.6,0,3.1-0.5,4.3-1.4c0,0.4,0.2,0.7,0.5,1l2.8,2.8c0.5,0.5,1.5,0.7,2.4,0
	C18,16.6,17.9,15.5,17.3,14.8z M7.4,12.6c-2.8,0-5-2.2-5-5s2.2-5,5-5c2.8,0,5,2.2,5,5S10.2,12.6,7.4,12.6z"/>
</svg>
