<?xml version="1.0" encoding="utf-8"?>
<!-- Generator: Adobe Illustrator 18.1.0, SVG Export Plug-In . SVG Version: 6.00 Build 0)  -->
<svg version="1.1" id="Layer_1" xmlns="http://www.w3.org/2000/svg" xmlns:xlink="http://www.w3.org/1999/xlink" x="0px" y="0px"
	 width="195px" height="317px" viewBox="0 0 195 317" enable-background="new 0 0 195 317" xml:space="preserve">
<g>
	<g>
		<defs>
			<rect id="SVGID_1_" x="12.5" y="45.8" width="181.7" height="271"/>
		</defs>
		<clipPath id="SVGID_2_">
			<use xlink:href="#SVGID_1_"  overflow="visible"/>
		</clipPath>
		
			<path clip-path="url(#SVGID_2_)" fill="none" stroke="#FFFFFF" stroke-width="3" stroke-linecap="round" stroke-linejoin="round" stroke-miterlimit="22.9256" d="
			M8.4,64.1c-54.8,0-99.3,39.4-99.3,88c0,48.6,44.4,88,99.3,88c10.9,0,21.5-1.6,31.3-4.5c11.1,10.4,25.6,19.7,43.6,27l-6-47.3
			c18.7-16,30.3-38.4,30.3-63.3C107.6,103.5,63.2,64.1,8.4,64.1L8.4,64.1z"/>
		
			<line clip-path="url(#SVGID_2_)" fill="none" stroke="#FFFFFF" stroke-width="3" stroke-linecap="round" stroke-linejoin="round" stroke-miterlimit="22.9256" x1="-34.8" y1="109.8" x2="62.3" y2="109.8"/>
		
			<line clip-path="url(#SVGID_2_)" fill="none" stroke="#FFFFFF" stroke-width="3" stroke-linecap="round" stroke-linejoin="round" stroke-miterlimit="22.9256" x1="-34.8" y1="138.5" x2="82.4" y2="138.5"/>
		
			<line clip-path="url(#SVGID_2_)" fill="none" stroke="#FFFFFF" stroke-width="3" stroke-linecap="round" stroke-linejoin="round" stroke-miterlimit="22.9256" x1="-34.8" y1="195.8" x2="54.3" y2="195.8"/>
		
			<line clip-path="url(#SVGID_2_)" fill="none" stroke="#FFFFFF" stroke-width="3" stroke-linecap="round" stroke-linejoin="round" stroke-miterlimit="22.9256" x1="-34.8" y1="167.1" x2="27.3" y2="167.1"/>
	</g>
</g>
</svg>
