<?xml version="1.0" encoding="utf-8"?>
<!-- Generator: Adobe Illustrator 18.1.0, SVG Export Plug-In . SVG Version: 6.00 Build 0)  -->
<svg version="1.1" id="Layer_1" xmlns="http://www.w3.org/2000/svg" xmlns:xlink="http://www.w3.org/1999/xlink" x="0px" y="0px"
	 width="38px" height="38px" viewBox="0 0 38 38" enable-background="new 0 0 38 38" xml:space="preserve">
<path fill="#3660A0" d="M19,0.5C8.8,0.5,0.5,8.8,0.5,19c0,10.2,8.3,18.5,18.5,18.5c10.2,0,18.5-8.3,18.5-18.5
	C37.5,8.8,29.2,0.5,19,0.5z M23,19h-2.6c0,4.2,0,9.3,0,9.3h-3.9c0,0,0-5.1,0-9.3h-1.8v-3.3h1.8v-2.1c0-1.5,0.7-3.9,3.9-3.9l2.9,0
	v3.2c0,0-1.7,0-2.1,0c-0.3,0-0.8,0.2-0.8,0.9v1.9h2.9L23,19z"/>
</svg>
