<?xml version="1.0" encoding="utf-8"?>
<!-- Generator: Adobe Illustrator 18.1.0, SVG Export Plug-In . SVG Version: 6.00 Build 0)  -->
<svg version="1.1" id="Layer_1" xmlns="http://www.w3.org/2000/svg" xmlns:xlink="http://www.w3.org/1999/xlink" x="0px" y="0px"
	 width="38px" height="38px" viewBox="0 0 38 38" enable-background="new 0 0 38 38" xml:space="preserve">
<path fill="#FBB040" d="M19,0.5C8.8,0.5,0.5,8.8,0.5,19c0,10.2,8.3,18.5,18.5,18.5c10.2,0,18.5-8.3,18.5-18.5
	C37.5,8.8,29.2,0.5,19,0.5z M9.7,13.3L17.9,8c0.6-0.4,1.6-0.4,2.2,0l8.2,5.3c0.6,0.4,0.6,1,0,1.4l-2.8,1.7V14h-13v2.4l-2.8-1.7
	C9.1,14.3,9.1,13.7,9.7,13.3z M15.8,17.9c-0.4,0-0.6-0.3-0.6-0.6c0-0.4,0.3-0.6,0.6-0.6h6.5c0.4,0,0.6,0.3,0.6,0.6
	c0,0.4-0.3,0.6-0.6,0.6H15.8z M21.6,19.8c0,0.4-0.3,0.6-0.6,0.6h-3.9c-0.4,0-0.6-0.3-0.6-0.6c0-0.4,0.3-0.6,0.6-0.6h3.9
	C21.3,19.2,21.6,19.5,21.6,19.8z M29.4,25.7c0,1.4-1.2,2.6-2.6,2.6H11.2c-1.4,0-2.6-1.2-2.6-2.6v-9.6l8.5,5.4
	c0.2,0.1,0.9,0.6,1.9,0.6c1,0,1.8-0.5,1.9-0.6l8.4-5.4V25.7z"/>
</svg>
