<?xml version="1.0" encoding="utf-8"?>
<!-- Generator: Adobe Illustrator 18.1.0, SVG Export Plug-In . SVG Version: 6.00 Build 0)  -->
<svg version="1.1" id="Layer_1" xmlns="http://www.w3.org/2000/svg" xmlns:xlink="http://www.w3.org/1999/xlink" x="0px" y="0px"
	 width="38px" height="38px" viewBox="0 0 38 38" enable-background="new 0 0 38 38" xml:space="preserve">
<g>
	<g>
		<circle fill="#39B54A" cx="19" cy="19" r="18.5"/>
	</g>
	<path fill="#FFFFFF" d="M19.2,7.8c-6.1,0-11,4.9-11,11c0,2.1,0.6,4,1.5,5.6l-1.9,5.8l6.3-1.7c1.5,0.8,3.3,1.3,5.1,1.3
		c6.1,0,11-4.9,11-11C30.2,12.7,25.3,7.8,19.2,7.8z M26,23.7l-0.7,0.7c-2.2,2.2-4.6,1.1-6.7-1.1l-2-2l-2-2c-2.2-2.2-3.2-4.6-1.1-6.7
		l0.7-0.7c0.3-0.3,0.8-0.4,1.2-0.2c1,0.5,2.1,2.4,2.1,2.4c0.2,0.4,0.3,0.9-0.2,1.2c0,0-0.7,0.6-0.8,0.8c-0.5,0.7-0.5,1.4,0.2,2
		l1.5,1.5l1.5,1.5c0.7,0.7,1.3,0.7,2,0.2c0.2-0.1,0.8-0.8,0.8-0.8c0.2-0.4,0.8-0.4,1.2-0.2c0,0,1.9,1.1,2.4,2.1
		C26.4,22.9,26.4,23.4,26,23.7z"/>
</g>
</svg>
