<?xml version="1.0" encoding="utf-8"?>
<!-- Generator: Adobe Illustrator 18.1.0, SVG Export Plug-In . SVG Version: 6.00 Build 0)  -->
<svg version="1.1" id="Layer_1" xmlns="http://www.w3.org/2000/svg" xmlns:xlink="http://www.w3.org/1999/xlink" x="0px" y="0px"
	 width="128px" height="128px" viewBox="-233 356.9 128 128" enable-background="new -233 356.9 128 128" xml:space="preserve">
<g id="_x31_6x16_Spinner.psd" display="none">
	<g display="inline">
		<defs>
			<rect id="SVGID_1_" x="-233" y="356.9" width="128" height="128"/>
		</defs>
		<clipPath id="SVGID_2_">
			<use xlink:href="#SVGID_1_"  overflow="visible"/>
		</clipPath>
		<g clip-path="url(#SVGID_2_)">
			
				<image overflow="visible" enable-background="new    " width="16" height="16" id="Layer_1_1_" xlink:href="52A4576E.png"  transform="matrix(8 0 0 8 -233 356.89)">
			</image>
		</g>
	</g>
</g>
<g opacity="0.8">
	<path fill="#121212" d="M-169,390.7c-3.3,0-6-2.7-6-6V365c0-3.3,2.7-6,6-6s6,2.7,6,6v19.6C-163,388-165.7,390.7-169,390.7z"/>
</g>
<g opacity="0.7">
	<path fill="#121212" d="M-187.1,395.5c-2.1,0-4.1-1.1-5.2-3l-9.8-17c-1.7-2.9-0.7-6.5,2.2-8.2c2.9-1.7,6.5-0.7,8.2,2.2l9.8,17
		c1.7,2.9,0.7,6.5-2.2,8.2C-185.1,395.2-186.1,395.5-187.1,395.5z"/>
</g>
<g opacity="0.6">
	<path fill="#121212" d="M-200.4,408.8c-1,0-2-0.3-3-0.8l-17-9.8c-2.9-1.7-3.9-5.3-2.2-8.2c1.7-2.9,5.3-3.9,8.2-2.2l17,9.8
		c2.9,1.7,3.9,5.3,2.2,8.2C-196.3,407.7-198.3,408.8-200.4,408.8z"/>
</g>
<g opacity="0.5">
	<path fill="#121212" d="M-205.2,426.9h-19.6c-3.3,0-6-2.7-6-6c0-3.3,2.7-6,6-6h19.6c3.3,0,6,2.7,6,6
		C-199.2,424.2-201.9,426.9-205.2,426.9z"/>
</g>
<g opacity="0.4">
	<path fill="#121212" d="M-217.4,454.8c-2.1,0-4.1-1.1-5.2-3c-1.7-2.9-0.7-6.5,2.2-8.2l17-9.8c2.9-1.7,6.5-0.7,8.2,2.2
		c1.7,2.9,0.7,6.5-2.2,8.2l-17,9.8C-215.3,454.6-216.4,454.8-217.4,454.8z"/>
</g>
<g opacity="0.3">
	<path fill="#121212" d="M-196.9,475.3c-1,0-2-0.3-3-0.8c-2.9-1.7-3.9-5.3-2.2-8.2l9.8-17c1.7-2.9,5.3-3.9,8.2-2.2
		c2.9,1.7,3.9,5.3,2.2,8.2l-9.8,17C-192.9,474.2-194.9,475.3-196.9,475.3z"/>
</g>
<g opacity="0.2">
	<path fill="#121212" d="M-169,482.8c-3.3,0-6-2.7-6-6v-19.6c0-3.3,2.7-6,6-6s6,2.7,6,6v19.6C-163,480.1-165.7,482.8-169,482.8z"/>
</g>
<g opacity="0.1">
	<path fill="#121212" d="M-141.1,475.3c-2.1,0-4.1-1.1-5.2-3l-9.8-17c-1.7-2.9-0.7-6.5,2.2-8.2c2.9-1.7,6.5-0.7,8.2,2.2l9.8,17
		c1.7,2.9,0.7,6.5-2.2,8.2C-139,475-140,475.3-141.1,475.3z"/>
</g>
<g opacity="0">
	<path fill="#121212" d="M-120.6,454.8c-1,0-2-0.3-3-0.8l-17-9.8c-2.9-1.7-3.9-5.3-2.2-8.2c1.7-2.9,5.3-3.9,8.2-2.2l17,9.8
		c2.9,1.7,3.9,5.3,2.2,8.2C-116.5,453.7-118.5,454.8-120.6,454.8z"/>
</g>
<g>
	<path fill="#121212" d="M-132.8,426.9c-3.3,0-6-2.7-6-6c0-3.3,2.7-6,6-6l19.6,0c3.3,0,6,2.7,6,6s-2.7,6-6,6L-132.8,426.9z"/>
</g>
<g>
	<path fill="#121212" d="M-137.6,408.8c-2.1,0-4.1-1.1-5.2-3c-1.7-2.9-0.7-6.5,2.2-8.2l17-9.8c2.9-1.7,6.5-0.7,8.2,2.2
		c1.7,2.9,0.7,6.5-2.2,8.2l-17,9.8C-135.6,408.5-136.6,408.8-137.6,408.8z"/>
</g>
<g opacity="0.9">
	<path fill="#121212" d="M-150.9,395.5c-1,0-2-0.3-3-0.8c-2.9-1.7-3.9-5.3-2.2-8.2l9.8-17c1.7-2.9,5.3-3.9,8.2-2.2
		c2.9,1.7,3.9,5.3,2.2,8.2l-9.8,17C-146.8,394.4-148.8,395.5-150.9,395.5z"/>
</g>
</svg>
