<?xml version="1.0" encoding="utf-8"?>
<!-- Generator: Adobe Illustrator 18.1.0, SVG Export Plug-In . SVG Version: 6.00 Build 0)  -->
<svg version="1.1" id="Layer_1" xmlns="http://www.w3.org/2000/svg" xmlns:xlink="http://www.w3.org/1999/xlink" x="0px" y="0px"
	 width="16px" height="14px" viewBox="0 0 16 14" enable-background="new 0 0 16 14" xml:space="preserve">
<g>
	<path fill="#FFFFFF" d="M15.8,8.7l-4.2-4.2c-0.2-0.2-0.4-0.1-0.4,0.2l0,3.2L7.1,8.3c-0.3,0-0.5,0.3-0.5,0.6l0,0.4
		c0,0.3,0.2,0.5,0.5,0.6l4.1,0.5l0,3.2c0,0.3,0.2,0.3,0.4,0.1l4.2-4.2C16,9.2,16,8.9,15.8,8.7z"/>
	<path fill="#FFFFFF" d="M9.4,5.1l0-0.4c0-0.3-0.2-0.5-0.5-0.6L4.8,3.7l0-3.2c0-0.3-0.2-0.3-0.4-0.1L0.2,4.6C0,4.8,0,5.1,0.2,5.3
		l4.2,4.2c0.2,0.2,0.4,0.1,0.4-0.1l0-3.2l4.1-0.5C9.2,5.7,9.4,5.4,9.4,5.1z"/>
</g>
</svg>
