<?xml version="1.0" encoding="utf-8"?>
<!-- Generator: Adobe Illustrator 18.1.0, SVG Export Plug-In . SVG Version: 6.00 Build 0)  -->
<svg version="1.1" id="Layer_1" xmlns="http://www.w3.org/2000/svg" xmlns:xlink="http://www.w3.org/1999/xlink" x="0px" y="0px"
	 width="17px" height="14px" viewBox="0 0 17 14" enable-background="new 0 0 17 14" xml:space="preserve">
<path fill="#ffffff" d="M7.6,13.6c-0.1,0-0.5,0-0.8-0.1c-0.3-0.1-1-0.7-1.3-0.9L0.2,7.3C0,7.1,0,6.8,0.2,6.5l2.1-2.1
	c0.2-0.2,0.6-0.2,0.8,0l3.7,3.7c0.2,0.2,0.5,0.2,0.7,0l6.1-7.6c0.2-0.2,0.5-0.3,0.8-0.1l2.3,1.9C17,2.5,17,2.9,16.8,3.1l-7.5,9.3
	c-0.2,0.2-0.5,0.6-0.7,0.8C8.6,13.3,8.2,13.6,7.6,13.6C7.6,13.6,7.6,13.6,7.6,13.6z"/>
</svg>
