<?xml version="1.0" encoding="utf-8"?>
<!-- Generator: Adobe Illustrator 18.1.0, SVG Export Plug-In . SVG Version: 6.00 Build 0)  -->
<svg version="1.1" id="Layer_1" xmlns="http://www.w3.org/2000/svg" xmlns:xlink="http://www.w3.org/1999/xlink" x="0px" y="0px"
	 width="31px" height="30px" viewBox="0 0 31 30" enable-background="new 0 0 31 30" xml:space="preserve">
<g>
	<path fill="#FFFFFF" d="M20.4,11.8c0.3,0,0.7-0.1,1-0.3c0.3-0.2,0.7-0.4,1-0.8v0.9h1.7V3.2h-1.7v6.4c-0.2,0.2-0.3,0.3-0.5,0.5
		c-0.2,0.1-0.4,0.2-0.5,0.2c-0.2,0-0.3,0-0.4-0.1c-0.1-0.1-0.1-0.2-0.1-0.4V3.2h-1.7v7.1c0,0.5,0.1,0.9,0.3,1.1
		C19.7,11.6,20,11.8,20.4,11.8z"/>
	<path fill="#FFFFFF" d="M24.3,21c0-0.3-0.1-0.6-0.2-0.7c-0.1-0.1-0.3-0.2-0.5-0.2c-0.2,0-0.4,0.1-0.5,0.2c-0.1,0.1-0.2,0.4-0.2,0.7
		v0.8h1.4V21z"/>
	<path fill="#FFFFFF" d="M18.4,25.5c0.2,0,0.3-0.1,0.4-0.2c0.1-0.1,0.1-0.3,0.1-0.5v-4c0-0.3-0.1-0.5-0.2-0.6
		c-0.1-0.1-0.3-0.2-0.5-0.2c-0.1,0-0.2,0-0.3,0.1c-0.1,0.1-0.2,0.1-0.3,0.2v4.8c0.1,0.1,0.2,0.2,0.4,0.3
		C18.2,25.5,18.3,25.5,18.4,25.5z"/>
	<polygon fill="#FFFFFF" points="8.4,11.6 10.3,11.6 10.3,6.9 12.6,0.2 10.6,0.2 9.4,4.8 9.3,4.8 8,0.2 6.1,0.2 8.4,7.1 	"/>
	<path fill="#FFFFFF" d="M15.2,11.8c0.8,0,1.4-0.2,1.8-0.6c0.4-0.4,0.7-1,0.7-1.7V5.2c0-0.6-0.2-1.2-0.7-1.6C16.6,3.2,16,3,15.3,3
		c-0.8,0-1.4,0.2-1.9,0.6c-0.5,0.4-0.7,0.9-0.7,1.6v4.4c0,0.7,0.2,1.3,0.7,1.7C13.9,11.6,14.5,11.8,15.2,11.8z M14.5,5.1
		c0-0.2,0.1-0.3,0.2-0.4c0.1-0.1,0.3-0.2,0.5-0.2c0.2,0,0.4,0.1,0.6,0.2C15.9,4.7,16,4.9,16,5.1v4.6c0,0.2-0.1,0.4-0.2,0.5
		c-0.1,0.1-0.3,0.2-0.6,0.2c-0.2,0-0.4-0.1-0.5-0.2c-0.1-0.1-0.2-0.3-0.2-0.5V5.1z"/>
	<path fill="#FFFFFF" d="M5.9,29.8h19.2c3.1,0,5.5-2.5,5.5-5.5v-4.4c0-3.1-2.5-5.5-5.5-5.5H5.9c-3.1,0-5.5,2.5-5.5,5.5v4.4
		C0.4,27.3,2.8,29.8,5.9,29.8z M21.3,21c0-0.7,0.2-1.2,0.7-1.6c0.4-0.4,1-0.6,1.7-0.6c0.7,0,1.2,0.2,1.6,0.6
		c0.4,0.4,0.6,0.9,0.6,1.7v2h-2.9v1.4c0,0.4,0,0.7,0.1,0.8c0.1,0.2,0.3,0.2,0.5,0.2c0.3,0,0.4-0.1,0.5-0.2c0.1-0.1,0.2-0.4,0.2-0.9
		v-0.4h1.6v0.4c0,0.8-0.2,1.4-0.6,1.8c-0.4,0.4-1,0.6-1.7,0.6c-0.7,0-1.2-0.2-1.6-0.6c-0.4-0.4-0.6-1-0.6-1.7V21z M16.1,16.2h1.5
		v3.3c0.2-0.2,0.4-0.4,0.7-0.5c0.2-0.1,0.5-0.2,0.7-0.2c0.5,0,0.9,0.2,1.1,0.5c0.3,0.3,0.4,0.8,0.4,1.4v4.3c0,0.5-0.1,1-0.4,1.2
		c-0.2,0.3-0.6,0.4-1,0.4c-0.3,0-0.6-0.1-0.8-0.2c-0.2-0.1-0.5-0.3-0.7-0.5v0.6h-1.5V16.2z M10.6,19h1.5v5.9c0,0.2,0,0.3,0.1,0.4
		c0.1,0.1,0.2,0.1,0.3,0.1c0.1,0,0.3-0.1,0.4-0.2c0.2-0.1,0.3-0.2,0.5-0.4V19H15v7.7h-1.5v-0.8c-0.3,0.3-0.6,0.5-0.9,0.7
		c-0.3,0.2-0.6,0.2-0.9,0.2c-0.4,0-0.6-0.1-0.8-0.3c-0.2-0.2-0.3-0.6-0.3-1V19z M4.6,16.2h5.3v1.5H8.1v8.9H6.4v-8.9H4.6V16.2z"/>
</g>
</svg>
